<svg width="9" height="11" viewBox="0 0 9 11" fill="none" xmlns="http://www.w3.org/2000/svg">
<path fill-rule="evenodd" clip-rule="evenodd" d="M0 2.30453C0 2.17922 0.049781 2.05903 0.138392 1.97042C0.227003 1.88181 0.347185 1.83203 0.4725 1.83203H8.0325C8.15781 1.83203 8.278 1.88181 8.36661 1.97042C8.45522 2.05903 8.505 2.17922 8.505 2.30453C8.505 2.42985 8.45522 2.55003 8.36661 2.63864C8.278 2.72725 8.15781 2.77703 8.0325 2.77703H0.4725C0.347185 2.77703 0.227003 2.72725 0.138392 2.63864C0.049781 2.55003 0 2.42985 0 2.30453Z" fill="#FF6464"/>
<path fill-rule="evenodd" clip-rule="evenodd" d="M3.83232 0.945C3.39762 0.945 3.04482 1.2978 3.04482 1.7325V2.3058H2.09982V1.7325C2.09982 1.27301 2.28235 0.832344 2.60726 0.507437C2.93217 0.182531 3.37284 0 3.83232 0H4.67274C5.13223 0 5.5729 0.182531 5.89781 0.507437C6.22271 0.832344 6.40524 1.27301 6.40524 1.7325V2.3058H5.46024V1.7325C5.46024 1.2978 5.10744 0.945 4.67274 0.945H3.83232ZM0.472534 2.3058L1.73253 10.5525H6.77253L8.03253 2.3058H0.472534ZM4.56753 4.59648C4.56753 4.51294 4.53435 4.43282 4.47527 4.37374C4.4162 4.31467 4.33608 4.28148 4.25253 4.28148C4.16899 4.28148 4.08887 4.31467 4.02979 4.37374C3.97072 4.43282 3.93753 4.51294 3.93753 4.59648V8.26182C3.93753 8.34536 3.97072 8.42549 4.02979 8.48456C4.08887 8.54363 4.16899 8.57682 4.25253 8.57682C4.33608 8.57682 4.4162 8.54363 4.47527 8.48456C4.53435 8.42549 4.56753 8.34536 4.56753 8.26182V4.59648ZM2.53641 4.28148C2.57684 4.27491 2.61818 4.2767 2.6579 4.28672C2.69761 4.29675 2.73484 4.3148 2.76731 4.33977C2.79977 4.36474 2.82678 4.3961 2.84666 4.4319C2.86655 4.46771 2.87888 4.50721 2.88291 4.54797L3.30249 8.21331C3.31187 8.29737 3.28869 8.38182 3.23772 8.44932C3.18675 8.51681 3.11186 8.56221 3.02844 8.57619C2.98808 8.58257 2.94683 8.58064 2.90723 8.57054C2.86763 8.56043 2.83051 8.54235 2.79814 8.51741C2.76576 8.49247 2.73882 8.46118 2.71895 8.42547C2.69908 8.38975 2.6867 8.35036 2.68257 8.3097L2.26236 4.64436C2.25316 4.5604 2.27641 4.47611 2.32737 4.40875C2.37833 4.3414 2.45312 4.29609 2.53641 4.28211M6.2427 4.64499C6.25191 4.56104 6.22865 4.47674 6.1777 4.40938C6.12674 4.34203 6.05195 4.29672 5.96865 4.28274C5.92827 4.27617 5.88698 4.27794 5.84731 4.28793C5.80763 4.29791 5.77043 4.31591 5.73797 4.34081C5.70551 4.36572 5.67849 4.397 5.65858 4.43273C5.63866 4.46847 5.62626 4.5079 5.62215 4.5486L5.20257 8.21394C5.19319 8.298 5.21637 8.38245 5.26734 8.44995C5.31832 8.51744 5.39321 8.56284 5.47662 8.57682C5.517 8.58329 5.55828 8.58144 5.59792 8.57137C5.63755 8.5613 5.67471 8.54323 5.70711 8.51827C5.7395 8.49331 5.76645 8.46198 5.78629 8.42623C5.80614 8.39047 5.81846 8.35103 5.82249 8.31033L6.2427 4.64499Z" fill="#FF6464"/>
</svg>
