<svg width="24" height="22" viewBox="0 0 24 22" fill="none" xmlns="http://www.w3.org/2000/svg">
<path d="M21.3492 10.8972H9.8606M18.9305 14.5252L22.5585 10.8972L18.9305 7.26927M12.8839 4.85063V3.6413C12.8839 2.99984 12.6291 2.38465 12.1755 1.93106C11.7219 1.47748 11.1067 1.22266 10.4653 1.22266H4.41865C3.77718 1.22266 3.16199 1.47748 2.70841 1.93106C2.25482 2.38465 2 2.99984 2 3.6413V18.1532C2 18.7946 2.25482 19.4098 2.70841 19.8634C3.16199 20.317 3.77718 20.5718 4.41865 20.5718H10.4653C11.1067 20.5718 11.7219 20.317 12.1755 19.8634C12.6291 19.4098 12.8839 18.7946 12.8839 18.1532V16.9439" stroke="black" stroke-width="2.41865" stroke-linecap="round" stroke-linejoin="round"/>
</svg>
