<svg width="200" height="45" viewBox="0 0 200 45" fill="none" xmlns="http://www.w3.org/2000/svg">
<g clip-path="url(#clip0_1430_163)">
<path d="M195.429 0.560547H4.57227C2.36313 0.560547 0.572266 2.32343 0.572266 4.49805V40.498C0.572266 42.6727 2.36313 44.4355 4.57227 44.4355H195.429C197.639 44.4355 199.429 42.6727 199.429 40.498V4.49805C199.429 2.32343 197.639 0.560547 195.429 0.560547Z" fill="white"/>
<mask id="mask0_1430_163" style="mask-type:luminance" maskUnits="userSpaceOnUse" x="13" y="11" width="24" height="23">
<path d="M36.572 11.25H13.7148V33.75H36.572V11.25Z" fill="white"/>
</mask>
<g mask="url(#mask0_1430_163)">
<path d="M36.114 22.7577C36.114 21.96 36.0413 21.193 35.9062 20.4565H25.1426V24.8083H31.2932C31.0283 26.2145 30.2231 27.406 29.0127 28.2037V31.0265H32.7062C34.8673 29.068 36.114 26.1838 36.114 22.7577Z" fill="#4285F4"/>
<path d="M25.1427 33.7492C28.2284 33.7492 30.8154 32.7418 32.7063 31.0237L29.0128 28.2009C27.9895 28.8759 26.6803 29.2748 25.1427 29.2748C22.166 29.2748 19.6466 27.2958 18.7479 24.6367H14.9297V27.5515C16.8103 31.2282 20.6752 33.7492 25.1427 33.7492Z" fill="#34A853"/>
<path d="M18.7486 24.6361C18.52 23.9611 18.3902 23.24 18.3902 22.4986C18.3902 21.7571 18.52 21.0361 18.7486 20.3611V17.4463H14.9304C14.1564 18.965 13.7148 20.6833 13.7148 22.4986C13.7148 24.3139 14.1564 26.0321 14.9304 27.5508L18.7486 24.6361Z" fill="#FBBC04"/>
<path d="M25.1427 15.7245C26.8205 15.7245 28.3271 16.292 29.5115 17.4068L32.7895 14.1801C30.8103 12.3648 28.2232 11.25 25.1427 11.25C20.6752 11.25 16.8103 13.771 14.9297 17.4477L18.7479 20.3625C19.6466 17.7035 22.166 15.7245 25.1427 15.7245Z" fill="#E94235"/>
</g>
<path d="M55.1406 25.243C55.1406 25.0123 55.1041 24.8073 55.0312 24.6278C54.9635 24.4483 54.8411 24.2843 54.6641 24.1356C54.487 23.987 54.237 23.8434 53.9141 23.7049C53.5963 23.5614 53.1901 23.4152 52.6953 23.2666C52.1536 23.1026 51.6536 22.9206 51.1953 22.7205C50.7422 22.5155 50.3464 22.2797 50.0078 22.013C49.6693 21.7413 49.4063 21.4312 49.2187 21.0825C49.0312 20.7287 48.9375 20.3211 48.9375 19.8598C48.9375 19.4035 49.0338 18.9881 49.2265 18.6138C49.4245 18.2397 49.7031 17.9167 50.0625 17.6449C50.4271 17.368 50.8568 17.1553 51.3515 17.0066C51.8464 16.8528 52.3933 16.7759 52.9922 16.7759C53.8359 16.7759 54.5625 16.9297 55.1719 17.2373C55.7865 17.545 56.2578 17.9576 56.5859 18.4755C56.9193 18.9933 57.0859 19.5649 57.0859 20.1904H55.1406C55.1406 19.8213 55.0599 19.4957 54.8984 19.2137C54.7422 18.9266 54.5026 18.701 54.1797 18.537C53.8619 18.373 53.4583 18.2909 52.9688 18.2909C52.5053 18.2909 52.1198 18.3602 51.8125 18.4985C51.5053 18.637 51.276 18.8241 51.125 19.0599C50.9739 19.2958 50.8984 19.5623 50.8984 19.8598C50.8984 20.0699 50.9479 20.2622 51.0469 20.4366C51.1458 20.6058 51.2969 20.7646 51.5 20.9133C51.7031 21.0569 51.9583 21.1928 52.2656 21.3209C52.5729 21.4491 52.9349 21.5721 53.3515 21.69C53.9817 21.8747 54.5312 22.0797 55 22.3053C55.4688 22.5258 55.8594 22.777 56.1719 23.0589C56.4843 23.341 56.7187 23.6614 56.875 24.0203C57.0312 24.3741 57.1094 24.7765 57.1094 25.2277C57.1094 25.6993 57.013 26.1249 56.8203 26.5043C56.6277 26.8785 56.3515 27.1989 55.9922 27.4656C55.6381 27.727 55.211 27.9295 54.711 28.0731C54.2161 28.2116 53.6641 28.2807 53.0547 28.2807C52.5078 28.2807 51.9688 28.209 51.4375 28.0654C50.9114 27.9219 50.4323 27.704 50 27.4118C49.5677 27.1143 49.224 26.7452 48.9688 26.3043C48.7135 25.8583 48.5859 25.3379 48.5859 24.7432H50.5469C50.5469 25.1072 50.6094 25.4174 50.7344 25.6737C50.8646 25.9301 51.0442 26.1402 51.2735 26.3043C51.5026 26.4633 51.7682 26.5812 52.0703 26.658C52.3776 26.735 52.7057 26.7735 53.0547 26.7735C53.513 26.7735 53.8959 26.7093 54.2031 26.5812C54.5157 26.453 54.7499 26.2735 54.9063 26.0429C55.0625 25.8122 55.1406 25.5455 55.1406 25.243ZM60.6719 19.8059V28.127H58.7813V19.8059H60.6719ZM58.6562 17.6218C58.6562 17.3399 58.7499 17.1066 58.9375 16.922C59.1302 16.7323 59.3959 16.6374 59.7344 16.6374C60.0677 16.6374 60.3307 16.7323 60.5234 16.922C60.7161 17.1066 60.8125 17.3399 60.8125 17.6218C60.8125 17.8987 60.7161 18.1294 60.5234 18.3139C60.3307 18.4985 60.0677 18.5908 59.7344 18.5908C59.3959 18.5908 59.1302 18.4985 58.9375 18.3139C58.7499 18.1294 58.6562 17.8987 58.6562 17.6218ZM68.1485 19.8059H69.8594V27.8962C69.8594 28.6448 69.6979 29.2805 69.375 29.8034C69.0521 30.3264 68.6016 30.7238 68.0234 30.9955C67.4453 31.2723 66.776 31.4107 66.0157 31.4107C65.6927 31.4107 65.3334 31.3646 64.9375 31.2723C64.5469 31.1801 64.1666 31.0314 63.7969 30.8263C63.4323 30.6264 63.1277 30.3623 62.8829 30.0342L63.7656 28.9421C64.0677 29.2959 64.401 29.5548 64.7656 29.7188C65.1302 29.883 65.513 29.965 65.9141 29.965C66.3464 29.965 66.7135 29.8856 67.0157 29.7266C67.323 29.5728 67.5599 29.3447 67.7265 29.0421C67.8933 28.7396 67.9766 28.3705 67.9766 27.9347V21.69L68.1485 19.8059ZM62.4063 24.0587V23.8972C62.4063 23.2666 62.4843 22.6924 62.6406 22.1746C62.7969 21.6516 63.0208 21.203 63.3125 20.8287C63.6041 20.4494 63.9583 20.1597 64.375 19.9597C64.7917 19.7546 65.263 19.6521 65.789 19.6521C66.3359 19.6521 66.8021 19.7495 67.1875 19.9444C67.5782 20.1391 67.9037 20.4186 68.1641 20.7826C68.4245 21.1415 68.6277 21.5721 68.7735 22.0746C68.9245 22.5719 69.0365 23.1257 69.1094 23.7357V24.251C69.0417 24.8457 68.9271 25.3892 68.7656 25.8813C68.6041 26.3735 68.3906 26.7991 68.125 27.158C67.8594 27.5169 67.5312 27.7937 67.1406 27.9886C66.7552 28.1833 66.2994 28.2807 65.7735 28.2807C65.2578 28.2807 64.7917 28.1757 64.375 27.9654C63.9635 27.7553 63.6094 27.4605 63.3125 27.081C63.0208 26.7017 62.7969 26.2556 62.6406 25.743C62.4843 25.2251 62.4063 24.6636 62.4063 24.0587ZM64.289 23.8972V24.0587C64.289 24.4381 64.3255 24.7919 64.3984 25.1199C64.4766 25.4481 64.5937 25.7378 64.7499 25.989C64.9114 26.2352 65.1146 26.4299 65.3594 26.5734C65.6094 26.7119 65.9037 26.7811 66.2422 26.7811C66.6849 26.7811 67.0469 26.6889 67.3281 26.5043C67.6146 26.3198 67.8334 26.071 67.9843 25.7583C68.1406 25.4405 68.2501 25.0866 68.3125 24.6971V23.3051C68.2813 23.0026 68.2161 22.7205 68.1171 22.4591C68.0234 22.1976 67.8959 21.9695 67.7344 21.7746C67.5729 21.5747 67.3698 21.4209 67.125 21.3133C66.8802 21.2004 66.5912 21.1441 66.2578 21.1441C65.9193 21.1441 65.625 21.2159 65.375 21.3594C65.125 21.503 64.9193 21.7003 64.7578 21.9515C64.6016 22.2027 64.4843 22.495 64.4063 22.8282C64.3281 23.1615 64.289 23.5178 64.289 23.8972ZM73.6797 21.5824V28.127H71.7969V19.8059H73.5703L73.6797 21.5824ZM73.3438 23.6588L72.7344 23.6511C72.7395 23.0615 72.823 22.5206 72.9843 22.0284C73.1511 21.5363 73.3802 21.1133 73.6719 20.7596C73.9688 20.4057 74.323 20.1341 74.7344 19.9444C75.1458 19.7495 75.6041 19.6521 76.1094 19.6521C76.5157 19.6521 76.8829 19.7085 77.211 19.8213C77.5442 19.929 77.8281 20.1058 78.0625 20.352C78.3021 20.598 78.4843 20.9184 78.6094 21.3133C78.7344 21.7029 78.7969 22.1822 78.7969 22.7514V28.127H76.9063V22.7436C76.9063 22.3438 76.8464 22.0284 76.7265 21.7977C76.612 21.5619 76.4427 21.3953 76.2187 21.2979C76 21.1953 75.7265 21.1441 75.3984 21.1441C75.0755 21.1441 74.7865 21.2107 74.5312 21.344C74.276 21.4773 74.0599 21.6593 73.8829 21.8901C73.711 22.1207 73.5782 22.3873 73.4843 22.6898C73.3906 22.9923 73.3438 23.3153 73.3438 23.6588ZM86.7187 19.8059V28.127H84.8281V19.8059H86.7187ZM84.7031 17.6218C84.7031 17.3399 84.7969 17.1066 84.9843 16.922C85.177 16.7323 85.4427 16.6374 85.7813 16.6374C86.1146 16.6374 86.3776 16.7323 86.5703 16.922C86.763 17.1066 86.8594 17.3399 86.8594 17.6218C86.8594 17.8987 86.763 18.1294 86.5703 18.3139C86.3776 18.4985 86.1146 18.5908 85.7813 18.5908C85.4427 18.5908 85.177 18.4985 84.9843 18.3139C84.7969 18.1294 84.7031 17.8987 84.7031 17.6218ZM90.6485 21.5824V28.127H88.7656V19.8059H90.5391L90.6485 21.5824ZM90.3125 23.6588L89.7031 23.6511C89.7083 23.0615 89.7917 22.5206 89.9531 22.0284C90.1198 21.5363 90.3489 21.1133 90.6406 20.7596C90.9375 20.4057 91.2916 20.1341 91.7031 19.9444C92.1146 19.7495 92.5729 19.6521 93.0782 19.6521C93.4843 19.6521 93.8515 19.7085 94.1797 19.8213C94.513 19.929 94.7969 20.1058 95.0312 20.352C95.2709 20.598 95.4531 20.9184 95.5782 21.3133C95.7031 21.7029 95.7656 22.1822 95.7656 22.7514V28.127H93.875V22.7436C93.875 22.3438 93.8151 22.0284 93.6953 21.7977C93.5807 21.5619 93.4114 21.3953 93.1875 21.2979C92.9688 21.1953 92.6953 21.1441 92.3672 21.1441C92.0442 21.1441 91.7552 21.2107 91.5 21.344C91.2448 21.4773 91.0287 21.6593 90.8515 21.8901C90.6797 22.1207 90.5469 22.3873 90.4531 22.6898C90.3594 22.9923 90.3125 23.3153 90.3125 23.6588ZM103.969 26.2813L105.922 19.8059H107.125L106.797 21.7439L104.828 28.127H103.75L103.969 26.2813ZM102.82 19.8059L104.344 26.312L104.469 28.127H103.266L100.977 19.8059H102.82ZM108.953 26.2352L110.43 19.8059H112.266L109.984 28.127H108.781L108.953 26.2352ZM107.328 19.8059L109.258 26.2043L109.5 28.127H108.422L106.43 21.7362L106.102 19.8059H107.328ZM115.562 19.8059V28.127H113.672V19.8059H115.562ZM113.547 17.6218C113.547 17.3399 113.641 17.1066 113.828 16.922C114.021 16.7323 114.287 16.6374 114.625 16.6374C114.959 16.6374 115.222 16.7323 115.414 16.922C115.607 17.1066 115.703 17.3399 115.703 17.6218C115.703 17.8987 115.607 18.1294 115.414 18.3139C115.222 18.4985 114.959 18.5908 114.625 18.5908C114.287 18.5908 114.021 18.4985 113.828 18.3139C113.641 18.1294 113.547 17.8987 113.547 17.6218ZM121.499 19.8059V21.1594H116.735V19.8059H121.499ZM118.11 17.768H119.992V25.8276C119.992 26.0838 120.029 26.2813 120.102 26.4197C120.179 26.553 120.287 26.6427 120.422 26.6889C120.558 26.735 120.717 26.7581 120.898 26.7581C121.029 26.7581 121.153 26.7504 121.273 26.735C121.393 26.7196 121.489 26.7043 121.562 26.6889L121.57 28.1039C121.414 28.15 121.232 28.1911 121.024 28.227C120.821 28.2629 120.586 28.2807 120.32 28.2807C119.888 28.2807 119.505 28.2064 119.171 28.0578C118.839 27.904 118.578 27.6552 118.391 27.3118C118.203 26.9683 118.11 26.512 118.11 25.9429V17.768ZM124.813 16.3145V28.127H122.937V16.3145H124.813ZM124.485 23.6588L123.875 23.6511C123.88 23.0769 123.961 22.5463 124.118 22.0592C124.279 21.5721 124.503 21.1491 124.789 20.7903C125.081 20.4262 125.43 20.1469 125.835 19.952C126.242 19.7521 126.693 19.6521 127.187 19.6521C127.605 19.6521 127.979 19.7085 128.312 19.8213C128.651 19.934 128.943 20.1161 129.187 20.3673C129.432 20.6134 129.617 20.9364 129.742 21.3363C129.872 21.7311 129.937 22.2131 129.937 22.7821V28.127H128.047V22.7668C128.047 22.3668 127.987 22.0489 127.867 21.8131C127.753 21.5773 127.583 21.4081 127.359 21.3055C127.135 21.1979 126.862 21.1441 126.539 21.1441C126.2 21.1441 125.901 21.2107 125.641 21.344C125.385 21.4773 125.171 21.6593 125 21.8901C124.829 22.1207 124.698 22.3873 124.609 22.6898C124.526 22.9923 124.485 23.3153 124.485 23.6588ZM144.75 22.4053V26.6811C144.589 26.8914 144.336 27.1221 143.992 27.3733C143.654 27.6194 143.203 27.8322 142.641 28.0116C142.078 28.1911 141.377 28.2807 140.539 28.2807C139.825 28.2807 139.171 28.1628 138.578 27.927C137.984 27.6861 137.471 27.3348 137.039 26.8734C136.611 26.412 136.281 25.8506 136.047 25.1892C135.813 24.5227 135.695 23.7639 135.695 22.9128V22.1361C135.695 21.2902 135.802 20.5365 136.016 19.8751C136.234 19.2086 136.547 18.6447 136.953 18.1832C137.359 17.7218 137.849 17.3732 138.422 17.1373C139 16.8964 139.654 16.7759 140.383 16.7759C141.315 16.7759 142.086 16.9297 142.695 17.2373C143.31 17.5398 143.784 17.9602 144.118 18.4985C144.45 19.0368 144.662 19.6521 144.75 20.3442H142.829C142.766 19.9546 142.643 19.606 142.461 19.2983C142.283 18.9907 142.029 18.7497 141.695 18.5755C141.367 18.396 140.941 18.3063 140.414 18.3063C139.961 18.3063 139.562 18.3909 139.218 18.5601C138.875 18.7293 138.589 18.9779 138.359 19.3061C138.135 19.6341 137.966 20.034 137.851 20.5058C137.737 20.9775 137.68 21.5158 137.68 22.1207V22.9128C137.68 23.5281 137.745 24.0741 137.875 24.5509C138.01 25.0277 138.203 25.4302 138.453 25.7583C138.709 26.0864 139.018 26.3351 139.383 26.5043C139.747 26.6684 140.159 26.7504 140.617 26.7504C141.065 26.7504 141.432 26.7145 141.719 26.6427C142.006 26.5658 142.232 26.4761 142.399 26.3735C142.57 26.2659 142.703 26.1634 142.797 26.066V23.8434H140.43V22.4053H144.75ZM146.375 24.0587V23.8819C146.375 23.282 146.464 22.7257 146.641 22.2131C146.817 21.6952 147.073 21.2466 147.406 20.8672C147.745 20.4827 148.157 20.1854 148.641 19.9751C149.13 19.7598 149.682 19.6521 150.297 19.6521C150.917 19.6521 151.469 19.7598 151.953 19.9751C152.442 20.1854 152.857 20.4827 153.195 20.8672C153.534 21.2466 153.792 21.6952 153.969 22.2131C154.146 22.7257 154.234 23.282 154.234 23.8819V24.0587C154.234 24.6586 154.146 25.2149 153.969 25.7276C153.792 26.2402 153.534 26.6889 153.195 27.0734C152.857 27.4527 152.446 27.7501 151.961 27.9654C151.477 28.1757 150.927 28.2807 150.312 28.2807C149.693 28.2807 149.138 28.1757 148.648 27.9654C148.165 27.7501 147.753 27.4527 147.414 27.0734C147.075 26.6889 146.817 26.2402 146.641 25.7276C146.464 25.2149 146.375 24.6586 146.375 24.0587ZM148.258 23.8819V24.0587C148.258 24.433 148.297 24.7867 148.375 25.1199C148.453 25.4533 148.576 25.7454 148.742 25.9967C148.909 26.248 149.122 26.4453 149.383 26.5889C149.643 26.7324 149.953 26.8042 150.312 26.8042C150.662 26.8042 150.963 26.7324 151.218 26.5889C151.479 26.4453 151.693 26.248 151.859 25.9967C152.026 25.7454 152.149 25.4533 152.226 25.1199C152.31 24.7867 152.352 24.433 152.352 24.0587V23.8819C152.352 23.5127 152.31 23.164 152.226 22.836C152.149 22.5027 152.024 22.2079 151.851 21.9515C151.685 21.6952 151.471 21.4952 151.211 21.3516C150.955 21.203 150.651 21.1287 150.297 21.1287C149.943 21.1287 149.635 21.203 149.375 21.3516C149.12 21.4952 148.909 21.6952 148.742 21.9515C148.576 22.2079 148.453 22.5027 148.375 22.836C148.297 23.164 148.258 23.5127 148.258 23.8819ZM155.453 24.0587V23.8819C155.453 23.282 155.542 22.7257 155.719 22.2131C155.896 21.6952 156.151 21.2466 156.485 20.8672C156.823 20.4827 157.234 20.1854 157.719 19.9751C158.208 19.7598 158.76 19.6521 159.375 19.6521C159.994 19.6521 160.547 19.7598 161.031 19.9751C161.521 20.1854 161.935 20.4827 162.273 20.8672C162.611 21.2466 162.87 21.6952 163.047 22.2131C163.224 22.7257 163.312 23.282 163.312 23.8819V24.0587C163.312 24.6586 163.224 25.2149 163.047 25.7276C162.87 26.2402 162.611 26.6889 162.273 27.0734C161.935 27.4527 161.523 27.7501 161.039 27.9654C160.554 28.1757 160.006 28.2807 159.391 28.2807C158.77 28.2807 158.216 28.1757 157.727 27.9654C157.242 27.7501 156.831 27.4527 156.493 27.0734C156.153 26.6889 155.896 26.2402 155.719 25.7276C155.542 25.2149 155.453 24.6586 155.453 24.0587ZM157.336 23.8819V24.0587C157.336 24.433 157.375 24.7867 157.453 25.1199C157.531 25.4533 157.654 25.7454 157.821 25.9967C157.987 26.248 158.2 26.4453 158.461 26.5889C158.721 26.7324 159.031 26.8042 159.391 26.8042C159.739 26.8042 160.041 26.7324 160.297 26.5889C160.558 26.4453 160.77 26.248 160.937 25.9967C161.104 25.7454 161.226 25.4533 161.305 25.1199C161.389 24.7867 161.43 24.433 161.43 24.0587V23.8819C161.43 23.5127 161.389 23.164 161.305 22.836C161.226 22.5027 161.102 22.2079 160.929 21.9515C160.763 21.6952 160.55 21.4952 160.289 21.3516C160.034 21.203 159.729 21.1287 159.375 21.1287C159.021 21.1287 158.713 21.203 158.453 21.3516C158.198 21.4952 157.987 21.6952 157.821 21.9515C157.654 22.2079 157.531 22.5027 157.453 22.836C157.375 23.164 157.336 23.5127 157.336 23.8819ZM170.305 19.8059H172.016V27.8962C172.016 28.6448 171.854 29.2805 171.531 29.8034C171.208 30.3264 170.758 30.7238 170.179 30.9955C169.601 31.2723 168.933 31.4107 168.171 31.4107C167.849 31.4107 167.489 31.3646 167.094 31.2723C166.703 31.1801 166.323 31.0314 165.953 30.8263C165.589 30.6264 165.283 30.3623 165.039 30.0342L165.922 28.9421C166.224 29.2959 166.558 29.5548 166.922 29.7188C167.287 29.883 167.67 29.965 168.071 29.965C168.503 29.965 168.87 29.8856 169.171 29.7266C169.479 29.5728 169.717 29.3447 169.882 29.0421C170.049 28.7396 170.133 28.3705 170.133 27.9347V21.69L170.305 19.8059ZM164.562 24.0587V23.8972C164.562 23.2666 164.641 22.6924 164.797 22.1746C164.953 21.6516 165.177 21.203 165.469 20.8287C165.76 20.4494 166.114 20.1597 166.531 19.9597C166.947 19.7546 167.419 19.6521 167.945 19.6521C168.493 19.6521 168.959 19.7495 169.344 19.9444C169.735 20.1391 170.059 20.4186 170.32 20.7826C170.581 21.1415 170.784 21.5721 170.929 22.0746C171.081 22.5719 171.193 23.1257 171.265 23.7357V24.251C171.198 24.8457 171.083 25.3892 170.922 25.8813C170.76 26.3735 170.547 26.7991 170.281 27.158C170.016 27.5169 169.688 27.7937 169.297 27.9886C168.912 28.1833 168.456 28.2807 167.929 28.2807C167.414 28.2807 166.947 28.1757 166.531 27.9654C166.12 27.7553 165.766 27.4605 165.469 27.081C165.177 26.7017 164.953 26.2556 164.797 25.743C164.641 25.2251 164.562 24.6636 164.562 24.0587ZM166.446 23.8972V24.0587C166.446 24.4381 166.482 24.7919 166.554 25.1199C166.633 25.4481 166.75 25.7378 166.906 25.989C167.067 26.2352 167.271 26.4299 167.515 26.5734C167.766 26.7119 168.059 26.7811 168.399 26.7811C168.841 26.7811 169.203 26.6889 169.485 26.5043C169.77 26.3198 169.99 26.071 170.141 25.7583C170.297 25.4405 170.406 25.0866 170.469 24.6971V23.3051C170.438 23.0026 170.373 22.7205 170.273 22.4591C170.179 22.1976 170.053 21.9695 169.89 21.7746C169.729 21.5747 169.526 21.4209 169.281 21.3133C169.037 21.2004 168.747 21.1441 168.414 21.1441C168.075 21.1441 167.782 21.2159 167.531 21.3594C167.281 21.503 167.075 21.7003 166.914 21.9515C166.758 22.2027 166.641 22.495 166.562 22.8282C166.485 23.1615 166.446 23.5178 166.446 23.8972ZM175.984 16.3145V28.127H174.094V16.3145H175.984ZM181.774 28.2807C181.149 28.2807 180.583 28.1808 180.078 27.9808C179.578 27.7757 179.151 27.4912 178.797 27.1272C178.448 26.7632 178.179 26.3351 177.992 25.8429C177.805 25.3507 177.711 24.82 177.711 24.251V23.9433C177.711 23.2923 177.807 22.7027 178 22.1746C178.193 21.6465 178.461 21.1953 178.805 20.8211C179.149 20.4416 179.554 20.1519 180.024 19.952C180.493 19.7521 181 19.6521 181.547 19.6521C182.151 19.6521 182.68 19.7521 183.133 19.952C183.586 20.1519 183.961 20.434 184.258 20.798C184.56 21.1569 184.784 21.585 184.929 22.0823C185.081 22.5796 185.157 23.1281 185.157 23.728V24.5201H178.625V23.1897H183.297V23.0435C183.287 22.7103 183.218 22.3976 183.094 22.1054C182.974 21.8131 182.789 21.5773 182.539 21.3979C182.289 21.2183 181.955 21.1287 181.539 21.1287C181.226 21.1287 180.947 21.1953 180.703 21.3286C180.464 21.4568 180.263 21.6439 180.102 21.8901C179.941 22.1361 179.815 22.4334 179.727 22.7821C179.643 23.1257 179.601 23.5127 179.601 23.9433V24.251C179.601 24.615 179.651 24.9533 179.75 25.2661C179.854 25.5738 180.006 25.8429 180.203 26.0736C180.401 26.3043 180.641 26.4864 180.922 26.6197C181.203 26.7478 181.523 26.8119 181.882 26.8119C182.336 26.8119 182.739 26.7222 183.094 26.5427C183.448 26.3633 183.755 26.1095 184.016 25.7813L185.008 26.7273C184.825 26.9888 184.589 27.24 184.297 27.481C184.006 27.7168 183.648 27.909 183.226 28.0578C182.81 28.2064 182.326 28.2807 181.774 28.2807Z" fill="#1F1F1F"/>
<path d="M195.429 0.560547H4.57227C2.36313 0.560547 0.572266 2.32343 0.572266 4.49805V40.498C0.572266 42.6727 2.36313 44.4355 4.57227 44.4355H195.429C197.639 44.4355 199.429 42.6727 199.429 40.498V4.49805C199.429 2.32343 197.639 0.560547 195.429 0.560547Z" stroke="#747775"/>
</g>
<defs>
<clipPath id="clip0_1430_163">
<rect width="200" height="45" fill="white"/>
</clipPath>
</defs>
</svg>
