<svg width="16" height="15" viewBox="0 0 16 15" fill="none" xmlns="http://www.w3.org/2000/svg">
<path d="M13.8 7.4H6.2M12.2 9.8L14.6 7.4L12.2 5M8.2 3.4V2.6C8.2 2.17565 8.03143 1.76869 7.73137 1.46863C7.43131 1.16857 7.02435 1 6.6 1H2.6C2.17565 1 1.76869 1.16857 1.46863 1.46863C1.16857 1.76869 1 2.17565 1 2.6V12.2C1 12.6243 1.16857 13.0313 1.46863 13.3314C1.76869 13.6314 2.17565 13.8 2.6 13.8H6.6C7.02435 13.8 7.43131 13.6314 7.73137 13.3314C8.03143 13.0313 8.2 12.6243 8.2 12.2V11.4" stroke="#707070" stroke-width="1.6" stroke-linecap="round" stroke-linejoin="round"/>
</svg>
