<svg width="16" height="17" viewBox="0 0 16 17" fill="none" xmlns="http://www.w3.org/2000/svg">
<path d="M14.1765 8.5H6.35294M12.5294 11.125L15 8.5L12.5294 5.875M8.41176 4.125V3.25C8.41176 2.78587 8.23824 2.34075 7.92935 2.01256C7.62047 1.68437 7.20153 1.5 6.76471 1.5H2.64706C2.21023 1.5 1.7913 1.68437 1.48241 2.01256C1.17353 2.34075 1 2.78587 1 3.25V13.75C1 14.2141 1.17353 14.6592 1.48241 14.9874C1.7913 15.3156 2.21023 15.5 2.64706 15.5H6.76471C7.20153 15.5 7.62047 15.3156 7.92935 14.9874C8.23824 14.6592 8.41176 14.2141 8.41176 13.75V12.875" stroke="#FF6464" stroke-width="1.3" stroke-linecap="round" stroke-linejoin="round"/>
</svg>
