<svg width="14" height="16" viewBox="0 0 14 16" fill="none" xmlns="http://www.w3.org/2000/svg">
<path d="M7.00402 15.2968C7.50671 15.2968 7.98881 15.0971 8.34427 14.7417C8.69972 14.3862 8.89942 13.9041 8.89942 13.4014H5.10862C5.10862 13.9041 5.30831 14.3862 5.66377 14.7417C6.01922 15.0971 6.50133 15.2968 7.00402 15.2968ZM7.94698 1.17516C7.96021 1.04339 7.94567 0.910307 7.9043 0.784497C7.86293 0.658687 7.79566 0.542944 7.70681 0.444732C7.61796 0.34652 7.50952 0.26802 7.38847 0.214295C7.26742 0.16057 7.13645 0.132812 7.00402 0.132812C6.87158 0.132812 6.74062 0.16057 6.61957 0.214295C6.49852 0.26802 6.39007 0.34652 6.30122 0.444732C6.21238 0.542944 6.1451 0.658687 6.10373 0.784497C6.06237 0.910307 6.04783 1.04339 6.06106 1.17516C4.98972 1.39271 4.02657 1.97399 3.33482 2.8205C2.64307 3.667 2.2653 4.72665 2.26552 5.81984C2.26552 6.86042 1.79167 11.506 0.370117 12.4537H13.6379C12.2164 11.506 11.7425 6.86042 11.7425 5.81984C11.7425 3.52641 10.1125 1.61205 7.94698 1.17516Z" fill="#262626"/>
</svg>
