<svg width="11" height="13" viewBox="0 0 11 13" fill="none" xmlns="http://www.w3.org/2000/svg">
<path d="M5.50299 12.6139C5.88968 12.6139 6.26053 12.4602 6.53396 12.1868C6.80738 11.9134 6.96099 11.5425 6.96099 11.1559H4.04499C4.04499 11.5425 4.1986 11.9134 4.47203 12.1868C4.74546 12.4602 5.11631 12.6139 5.50299 12.6139ZM6.22835 1.75103C6.23852 1.64966 6.22734 1.54729 6.19552 1.45051C6.1637 1.35374 6.11195 1.2647 6.0436 1.18916C5.97526 1.11361 5.89184 1.05322 5.79873 1.0119C5.70561 0.970571 5.60487 0.949219 5.50299 0.949219C5.40112 0.949219 5.30038 0.970571 5.20726 1.0119C5.11415 1.05322 5.03073 1.11361 4.96238 1.18916C4.89404 1.2647 4.84229 1.35374 4.81047 1.45051C4.77865 1.54729 4.76746 1.64966 4.77764 1.75103C3.95354 1.91837 3.21265 2.36551 2.68053 3.01667C2.14842 3.66782 1.85783 4.48294 1.85799 5.32386C1.85799 6.1243 1.49349 9.69786 0.399994 10.4269H10.606C9.51249 9.69786 9.14799 6.1243 9.14799 5.32386C9.14799 3.55968 7.89411 2.0871 6.22835 1.75103Z" fill="#707070"/>
</svg>
