<svg width="17" height="13" viewBox="0 0 17 13" fill="none" xmlns="http://www.w3.org/2000/svg">
    <path d="M12.096 10.368C12.096 10.9791 11.8533 11.5651 11.4212 11.9972C10.9891 12.4293 10.4031 12.672 9.792 12.672C8.8056 12.672 7.8516 12.029 7.524 11.1442C7.47415 11.0017 7.48221 10.8454 7.54645 10.7088C7.61068 10.5722 7.72596 10.4663 7.86748 10.4138C8.00901 10.3614 8.16547 10.3666 8.3032 10.4283C8.44094 10.49 8.54895 10.6033 8.604 10.7438C8.76528 11.1794 9.288 11.52 9.792 11.52C10.0975 11.52 10.3905 11.3986 10.6066 11.1826C10.8226 10.9665 10.944 10.6735 10.944 10.368C10.944 10.0625 10.8226 9.76945 10.6066 9.55341C10.3905 9.33737 10.0975 9.216 9.792 9.216H1.728C1.57524 9.216 1.42873 9.15531 1.32071 9.04729C1.21269 8.93927 1.152 8.79276 1.152 8.64C1.152 8.48724 1.21269 8.34073 1.32071 8.23271C1.42873 8.12468 1.57524 8.064 1.728 8.064H9.792C10.4031 8.064 10.9891 8.30674 11.4212 8.73883C11.8533 9.17091 12.096 9.75694 12.096 10.368ZM7.488 4.608C8.09906 4.608 8.68509 4.36526 9.11717 3.93317C9.54926 3.50109 9.792 2.91506 9.792 2.304C9.792 1.69294 9.54926 1.10691 9.11717 0.674826C8.68509 0.242742 8.09906 0 7.488 0C6.5016 0 5.5476 0.64296 5.22 1.52784C5.17015 1.6703 5.17821 1.82664 5.24245 1.96322C5.30668 2.0998 5.42196 2.20571 5.56348 2.25817C5.70501 2.31063 5.86147 2.30544 5.9992 2.24372C6.13694 2.18201 6.24495 2.06869 6.3 1.92816C6.46128 1.49256 6.984 1.152 7.488 1.152C7.79353 1.152 8.08654 1.27337 8.30259 1.48941C8.51863 1.70545 8.64 1.99847 8.64 2.304C8.64 2.60953 8.51863 2.90254 8.30259 3.11859C8.08654 3.33463 7.79353 3.456 7.488 3.456H0.576C0.423235 3.456 0.276727 3.51669 0.168706 3.62471C0.0606855 3.73273 0 3.87924 0 4.032C0 4.18476 0.0606855 4.33127 0.168706 4.43929C0.276727 4.54731 0.423235 4.608 0.576 4.608H7.488ZM13.824 2.304C12.8376 2.304 11.8836 2.94696 11.556 3.83184C11.5062 3.9743 11.5142 4.13064 11.5784 4.26722C11.6427 4.4038 11.758 4.50971 11.8995 4.56217C12.041 4.61463 12.1975 4.60944 12.3352 4.54772C12.4729 4.48601 12.581 4.37269 12.636 4.23216C12.7973 3.79656 13.32 3.456 13.824 3.456C14.1295 3.456 14.4225 3.57737 14.6386 3.79341C14.8546 4.00945 14.976 4.30247 14.976 4.608C14.976 4.91353 14.8546 5.20654 14.6386 5.42259C14.4225 5.63863 14.1295 5.76 13.824 5.76H1.152C0.999235 5.76 0.852727 5.82069 0.744707 5.92871C0.636686 6.03673 0.576 6.18324 0.576 6.336C0.576 6.48876 0.636686 6.63527 0.744707 6.74329C0.852727 6.85131 0.999235 6.912 1.152 6.912H13.824C14.4351 6.912 15.0211 6.66926 15.4532 6.23717C15.8853 5.80509 16.128 5.21906 16.128 4.608C16.128 3.99694 15.8853 3.41091 15.4532 2.97883C15.0211 2.54674 14.4351 2.304 13.824 2.304Z" fill="#72A6FC"/>
</svg>
