<svg width="81" height="31" viewBox="0 0 81 31" fill="none" xmlns="http://www.w3.org/2000/svg">
<rect x="0.0996094" y="0.699219" width="80.8" height="29.6" rx="12" fill="#0085FF"/>
<path d="M30.5325 8.7785C31.2475 8.7785 31.8828 8.90225 32.4383 9.14975C32.9993 9.39725 33.4365 9.74375 33.75 10.1892C34.0635 10.6347 34.223 11.149 34.2285 11.732C34.223 12.227 34.0993 12.6752 33.8573 13.0767C33.6208 13.4782 33.2853 13.811 32.8508 14.075C32.4218 14.339 31.924 14.515 31.3575 14.603V15.9147C32.8095 15.8322 34.091 15.7085 35.202 15.5435L35.3175 16.6985C33.937 16.946 32.4933 17.111 30.9863 17.1935C29.4848 17.2705 27.887 17.309 26.193 17.309L26.028 16.0385H26.7705C27.711 16.0385 28.7175 16.022 29.79 15.989V14.6195C29.2015 14.537 28.6845 14.3637 28.239 14.0997C27.7935 13.8357 27.4498 13.5002 27.2078 13.0932C26.9658 12.6862 26.8475 12.2325 26.853 11.732C26.8475 11.1545 26.9988 10.643 27.3068 10.1975C27.6203 9.7465 28.0575 9.39725 28.6185 9.14975C29.1795 8.90225 29.8175 8.7785 30.5325 8.7785ZM30.5325 9.983C30.098 9.983 29.713 10.0545 29.3775 10.1975C29.042 10.3405 28.7808 10.544 28.5938 10.808C28.4068 11.072 28.316 11.38 28.3215 11.732C28.316 12.073 28.4068 12.3755 28.5938 12.6395C28.7808 12.898 29.042 13.1015 29.3775 13.25C29.7185 13.393 30.1035 13.4645 30.5325 13.4645C30.967 13.4645 31.352 13.393 31.6875 13.25C32.023 13.107 32.2815 12.9035 32.463 12.6395C32.65 12.3755 32.7435 12.073 32.7435 11.732C32.7435 11.38 32.65 11.072 32.463 10.808C32.2815 10.544 32.023 10.3405 31.6875 10.1975C31.3575 10.0545 30.9725 9.983 30.5325 9.983ZM37.677 13.019H39.789V14.339H37.677V19.4375H36.1095V8.135H37.677V13.019ZM38.205 22.589H28.1235V18.4475H29.691V21.302H38.205V22.589ZM54.177 21.137H40.647V19.817H44.343V17.21H42.297V12.5075H50.976V10.445H42.264V9.158H52.527V13.778H43.848V15.923H52.8735V17.21H50.6295V19.817H54.177V21.137ZM49.095 19.817V17.21H45.861V19.817H49.095Z" fill="white"/>
</svg>
