<svg width="34" height="34" viewBox="0 0 34 34" fill="none" xmlns="http://www.w3.org/2000/svg">
<g filter="url(#filter0_dd_590_2584)">
<circle cx="17" cy="17" r="12" fill="white"/>
<circle cx="17" cy="17" r="11.95" stroke="#ABABAB" stroke-width="0.1"/>
</g>
<path d="M21.9044 14.1454C21.9007 11.4654 19.7259 9.29701 17.0459 9.30079C14.3671 9.30457 12.1974 11.4793 12.2012 14.158C12.2024 15.3261 12.777 16.3542 13.4032 17.3156C14.0609 18.3248 14.5082 19.2963 15.0047 20.3786C15.2957 21.0149 16.0895 21.2631 16.7825 21.311C17.4604 21.3564 18.321 21.2795 18.888 20.8158C19.7763 20.0901 19.7965 18.7016 20.3798 17.7755C21.0943 16.644 21.9057 15.5478 21.9044 14.1454Z" fill="#FCC21B"/>
<path d="M18.3701 24.039C18.4444 23.9848 18.5061 23.9218 18.549 23.8311C18.6006 23.7177 18.583 23.6106 18.5704 23.4909C18.5603 23.3889 18.5704 23.3448 18.6397 23.2742C18.7178 23.1948 18.7972 23.123 18.8111 23.0058C18.8211 22.9189 18.8022 22.8357 18.7859 22.7526C18.777 22.7223 18.772 22.6908 18.772 22.6593C18.7896 22.5926 18.8741 22.5459 18.9207 22.5006C19.0416 22.3834 19.1538 22.2209 19.1891 22.0558C19.2117 21.9525 19.2067 21.8038 19.1412 21.7169C19.0442 21.5883 18.9144 21.64 18.7909 21.6954C18.7506 21.7131 18.7153 21.7358 18.675 21.7547C17.9089 22.1264 17.0067 22.1264 16.194 21.921C15.9874 21.8693 15.7808 21.8063 15.588 21.7156C15.4355 21.645 15.2201 21.5657 15.1155 21.7547C15.0273 21.9134 15.0726 22.1251 15.1369 22.2851C15.1747 22.3784 15.2566 22.459 15.3246 22.5308C15.3902 22.6001 15.4191 22.6354 15.4002 22.7236C15.3826 22.8042 15.3952 22.8723 15.4028 22.9542C15.4141 23.0651 15.4292 23.1709 15.501 23.2604C15.5703 23.3473 15.6737 23.4141 15.7354 23.5061C15.7896 23.5854 15.7883 23.6925 15.8198 23.782C15.8727 23.9281 16 24.0831 16.1285 24.1713C16.2747 24.2709 16.4712 24.2646 16.5985 24.3956C16.7661 24.5695 17.0055 24.6955 17.2524 24.6804C17.5548 24.6627 17.7174 24.4284 17.948 24.2696C18.0374 24.2079 18.1496 24.1814 18.2441 24.1234C18.2869 24.0945 18.3297 24.068 18.3701 24.039Z" fill="#78A3AD"/>
<ellipse cx="17" cy="14" rx="3.5" ry="4" fill="white"/>
<ellipse cx="17" cy="18" rx="1.75" ry="2" fill="white"/>
<path d="M18.52 18.3903C18.52 18.2805 18.5053 18.1635 18.5486 18.0605C18.6403 17.842 18.741 17.6272 18.8345 17.4094C18.8755 17.3139 18.915 17.2101 18.979 17.1277C18.9951 17.1071 18.9936 17.0626 19.0147 17.0489C19.0203 17.0453 19.0276 17.0333 19.0276 17.0424C19.0276 17.0669 19.0224 17.0888 19.0147 17.1117" stroke="white" stroke-width="0.2" stroke-linecap="round"/>
<path d="M19.3552 16.8242C19.3379 16.8281 19.3217 16.8662 19.3131 16.8792C19.2696 16.9448 19.2264 17.0101 19.1796 17.0734C19.0364 17.2672 18.9135 17.474 18.7855 17.6781C18.6983 17.8172 18.6012 17.9539 18.5221 18.0979C18.4968 18.1439 18.4859 18.1964 18.4686 18.2456C18.4478 18.3044 18.4321 18.3685 18.4043 18.4241" stroke="white" stroke-width="0.2" stroke-linecap="round"/>
<path d="M18.5449 18.5084C18.5517 18.4071 18.5732 18.3099 18.6042 18.2132C18.6922 17.9382 18.8035 17.6703 18.909 17.4018C19.0371 17.0758 19.1646 16.7499 19.2849 16.4209C19.4316 16.0197 19.5655 15.6164 19.6893 15.2079C19.7002 15.1722 19.709 15.1167 19.7529 15.1094" stroke="white" stroke-width="0.2" stroke-linecap="round"/>
<path d="M19.6833 16.4219C19.6059 16.5078 19.5372 16.6011 19.4754 16.6988C19.244 17.0641 19.0663 17.4641 18.8613 17.8444C18.7488 18.0531 18.6318 18.2591 18.514 18.4648C18.4231 18.6234 18.3222 18.7806 18.2468 18.9478C18.2192 19.009 18.201 19.0711 18.1906 19.1372C18.187 19.1604 18.182 19.1745 18.1719 19.1948" stroke="white" stroke-width="0.2" stroke-linecap="round"/>
<path d="M15.4166 18.5767C15.3727 18.4944 15.3826 18.5152 15.3299 18.3991C15.203 18.1194 15.0699 17.8386 14.9752 17.5459C14.8761 17.2401 14.8385 17.0486 14.7918 16.7277C14.7461 16.4145 14.7399 16.1072 14.7207 15.793" stroke="white" stroke-width="0.2" stroke-linecap="round"/>
<path d="M15.3409 18.0605C15.3643 18.0722 15.3472 18.008 15.343 17.9822C15.3273 17.8869 15.2994 17.7943 15.275 17.7011C15.2382 17.5601 15.203 17.4298 15.1455 17.2956C15.1405 17.284 15.1019 17.2021 15.1079 17.2298C15.1528 17.4397 15.2121 17.6458 15.2651 17.8536C15.2796 17.9106 15.2913 17.9681 15.3012 18.0261C15.3048 18.0471 15.2939 18.0308 15.2892 18.0224C15.2319 17.9206 15.1925 17.8056 15.1486 17.6979C15.0972 17.5719 15.0305 17.4255 15.0305 17.2862C15.0305 17.2506 15.0199 17.2281 15.0117 17.1953" stroke="white" stroke-width="0.2" stroke-linecap="round"/>
<path d="M14.9332 17.656C14.9244 17.6159 14.8989 17.5793 14.8785 17.5445C14.79 17.3936 14.7034 17.2423 14.6307 17.0828C14.5726 16.9553 14.5218 16.8243 14.4692 16.6945C14.4389 16.6197 14.4088 16.5462 14.3867 16.4688" stroke="white" stroke-width="0.2" stroke-linecap="round"/>
<path d="M14.375 16.5078C14.3885 16.5393 14.4146 16.5689 14.4341 16.5961C14.5395 16.7436 14.6454 16.891 14.7432 17.0438C14.8756 17.2506 14.9922 17.4673 15.1163 17.6791C15.217 17.8509 15.3201 18.0213 15.4196 18.1938C15.4405 18.2301 15.4087 18.1953 15.3983 18.1919" stroke="white" stroke-width="0.2" stroke-linecap="round"/>
<path d="M14.923 17.6095C14.9219 17.6095 14.9145 17.6088 14.9142 17.6106C14.9134 17.6158 14.9171 17.6209 14.9197 17.6255C14.9559 17.6901 15.0009 17.7519 15.0442 17.8115C15.1826 18.0024 15.3345 18.1824 15.4866 18.3624C15.5509 18.4385 15.6166 18.5199 15.6831 18.5931" stroke="white" stroke-width="0.2" stroke-linecap="round"/>
<path d="M20.2417 13.6289C20.2001 13.7705 20.1372 13.9071 20.0796 14.0423C19.8858 14.4969 19.6804 14.9466 19.4848 15.4005C19.2499 15.9454 19.0048 16.4962 18.8309 17.0646C18.8219 17.094 18.7729 17.3508 18.7729 17.2815" stroke="#FCC21B" stroke-width="3" stroke-linecap="round"/>
<path d="M18.773 17.2621C18.773 17.493 18.6683 17.7601 18.4831 17.9042C18.3937 17.9737 18.3068 18.0368 18.2082 18.0932C18.1404 18.1319 18.0484 18.2102 17.9709 18.2274C17.7102 18.2853 17.553 18.5896 17.2806 18.5956C17.1175 18.5993 16.944 18.5945 16.806 18.499C16.5895 18.3491 16.3698 18.1422 16.1843 17.9568C15.9533 17.7257 15.7249 17.4501 15.6346 17.129C15.5752 16.9176 15.4699 16.7631 15.3716 16.5664" stroke="#FCC21B" stroke-width="3" stroke-linecap="round"/>
<path d="M15.3715 16.4686C15.3715 16.0444 15.2516 15.6204 15.1493 15.2113C15.0383 14.7673 14.874 14.3393 14.8497 13.8789" stroke="#FCC21B" stroke-width="3" stroke-linecap="round"/>
<path d="M14.8498 13.704C14.8498 13.378 14.8296 13.056 14.9099 12.7377C14.9939 12.4049 15.0334 12.0635 15.1493 11.7413C15.1997 11.6014 15.2805 11.5375 15.4102 11.4912C15.5482 11.4419 15.6772 11.3666 15.8247 11.3462C15.9658 11.3267 16.1036 11.2556 16.2456 11.2496C16.4491 11.2409 16.6462 11.2109 16.8511 11.2109C17.1833 11.2109 17.4739 11.2313 17.7873 11.3505C18.0173 11.438 18.2266 11.5786 18.4401 11.6984C18.6018 11.7891 18.7544 11.8648 18.8213 12.043C19.0165 12.5636 18.7901 13.1965 18.5217 13.6439C18.4183 13.8162 18.2741 14.0589 18.0654 14.1195C17.9782 14.1448 17.8954 14.1389 17.8131 14.0969C17.5616 13.9686 17.3463 13.7386 17.1571 13.5343C17.0577 13.4271 16.9579 13.313 16.8833 13.1865C16.8807 13.182 16.8404 13.0879 16.8404 13.1371C16.8404 13.5477 16.8597 13.9595 16.8597 14.3707C16.8597 14.9094 16.8597 15.448 16.8597 15.9866C16.8597 16.1266 16.856 16.258 16.8833 16.3946C16.9012 16.4842 16.9244 16.5713 16.9413 16.6609C16.9507 16.7107 16.9858 16.8796 16.9993 16.7382C17.0885 15.8016 17.3597 14.8913 17.4889 13.9595C17.5426 13.572 17.6076 13.1736 17.5941 12.7806C17.5905 12.677 16.9639 12.8923 16.8597 12.8923" stroke="#FCC21B" stroke-width="3" stroke-linecap="round"/>
<defs>
<filter id="filter0_dd_590_2584" x="0" y="0" width="34" height="34" filterUnits="userSpaceOnUse" color-interpolation-filters="sRGB">
<feFlood flood-opacity="0" result="BackgroundImageFix"/>
<feColorMatrix in="SourceAlpha" type="matrix" values="0 0 0 0 0 0 0 0 0 0 0 0 0 0 0 0 0 0 127 0" result="hardAlpha"/>
<feOffset dx="1" dy="1"/>
<feGaussianBlur stdDeviation="2"/>
<feComposite in2="hardAlpha" operator="out"/>
<feColorMatrix type="matrix" values="0 0 0 0 0 0 0 0 0 0 0 0 0 0 0 0 0 0 0.05 0"/>
<feBlend mode="normal" in2="BackgroundImageFix" result="effect1_dropShadow_590_2584"/>
<feColorMatrix in="SourceAlpha" type="matrix" values="0 0 0 0 0 0 0 0 0 0 0 0 0 0 0 0 0 0 127 0" result="hardAlpha"/>
<feOffset dx="-1" dy="-1"/>
<feGaussianBlur stdDeviation="2"/>
<feComposite in2="hardAlpha" operator="out"/>
<feColorMatrix type="matrix" values="0 0 0 0 0 0 0 0 0 0 0 0 0 0 0 0 0 0 0.05 0"/>
<feBlend mode="normal" in2="effect1_dropShadow_590_2584" result="effect2_dropShadow_590_2584"/>
<feBlend mode="normal" in="SourceGraphic" in2="effect2_dropShadow_590_2584" result="shape"/>
</filter>
</defs>
</svg>
