<svg version="1.1" id="Layer_1" xmlns="http://www.w3.org/2000/svg" xmlns:xlink="http://www.w3.org/1999/xlink" x="0px" y="0px"
	 width="100%" viewBox="0 0 5490 5580" enable-background="new 0 0 5490 5580" xml:space="preserve">
<path fill="#FBFBFB" opacity="1.000000" stroke="none" 
	d="
M5496.000000,2140.000000 
	C5496.000000,3289.333252 5496.000000,4436.666504 5496.000000,5584.000000 
	C3665.333984,5584.000000 1834.667725,5584.000000 4.001199,5584.000000 
	C4.000799,3724.000977 4.000799,1864.001709 4.000400,4.001947 
	C1834.665527,4.001298 3665.331055,4.001298 5495.998047,4.000649 
	C5496.000000,715.333313 5496.000000,1426.666626 5496.000000,2140.000000 
M3266.416992,500.055695 
	C3249.013184,495.813995 3231.667480,491.313721 3214.188965,487.406128 
	C3198.015137,483.790222 3181.665771,480.966949 3165.452881,477.516785 
	C3124.524658,468.807098 3083.362305,461.128723 3041.787354,456.731018 
	C3018.644775,454.283051 2996.193359,447.934418 2972.713623,447.258118 
	C2952.249268,446.668671 2931.924805,442.257935 2911.450684,440.663513 
	C2894.895508,439.374298 2878.332520,438.590607 2861.759766,437.029419 
	C2831.326660,434.162506 2800.667969,433.064850 2770.082275,432.593414 
	C2722.764160,431.864105 2675.419922,431.716492 2628.102295,432.396484 
	C2592.848633,432.903137 2557.619629,435.107025 2522.379883,436.565826 
	C2521.050293,436.620819 2519.713379,436.712036 2518.399902,436.916107 
	C2489.472412,441.409882 2460.120117,440.958618 2431.105713,444.425385 
	C2413.989258,446.470551 2396.849365,448.348572 2379.771240,450.678009 
	C2357.407715,453.728394 2335.100098,457.187744 2312.757812,460.397614 
	C2300.276611,462.190765 2287.638428,463.169617 2275.309326,465.684662 
	C2249.303467,470.989716 2223.372803,476.563721 2197.271729,481.487305 
	C2160.138916,488.491882 2123.340820,497.564758 2086.763672,507.143738 
	C2046.932739,517.574890 2007.509399,529.565918 1967.926880,540.941345 
	C1957.716309,543.875793 1947.438721,546.664917 1937.427612,550.189941 
	C1906.087158,561.225098 1874.831543,572.503235 1843.598145,583.839417 
	C1824.841919,590.647034 1805.909302,597.077026 1787.546265,604.837463 
	C1747.799683,621.634949 1707.456177,637.072815 1669.175781,657.268799 
	C1650.949341,666.884827 1631.743408,674.625977 1613.298462,683.850708 
	C1584.153564,698.426758 1554.945923,712.934631 1526.375977,728.586792 
	C1496.656372,744.868835 1467.461182,762.140564 1438.409180,779.599304 
	C1411.642700,795.684631 1385.025879,812.070862 1358.974731,829.280823 
	C1331.252563,847.594849 1304.155518,866.866699 1277.007324,886.034424 
	C1257.460938,899.834961 1237.122070,912.835266 1219.224854,928.567871 
	C1196.717041,948.353699 1171.232300,964.158081 1149.150391,984.499329 
	C1124.237549,1007.448364 1097.705200,1028.637085 1071.927734,1050.650757 
	C1062.831543,1058.418823 1053.486084,1065.953857 1044.942505,1074.299683 
	C1015.380066,1103.177979 986.047546,1132.293213 956.776001,1161.467041 
	C941.669434,1176.523193 926.291138,1191.369263 912.072571,1207.239258 
	C888.129028,1233.963867 864.947144,1261.373413 841.567993,1288.600342 
	C824.681824,1308.265869 807.081909,1327.409668 791.439087,1348.029297 
	C769.382568,1377.103394 746.621216,1405.633545 725.578186,1435.534424 
	C709.158325,1458.866211 692.321655,1481.911011 676.499634,1505.677246 
	C668.763367,1517.297974 660.113525,1528.333130 652.759155,1540.180664 
	C635.929443,1567.292603 619.934143,1594.923096 603.065979,1622.010498 
	C577.773987,1662.625244 555.544861,1704.957275 533.091187,1747.122559 
	C508.992676,1792.376587 487.355682,1838.888672 467.316315,1886.117432 
	C457.977997,1908.126099 447.708160,1929.755127 438.889923,1951.965088 
	C428.091949,1979.160889 418.042786,2006.668335 408.284729,2034.258545 
	C399.419647,2059.324219 392.177063,2084.983643 382.765076,2109.830322 
	C371.912750,2138.479492 364.631622,2168.149902 355.652100,2197.325928 
	C350.184265,2215.092041 345.715942,2233.181885 341.267639,2251.241943 
	C332.850922,2285.413330 324.224731,2319.548584 316.712677,2353.923340 
	C309.769409,2385.695312 303.700897,2417.679443 298.135162,2449.724365 
	C294.051758,2473.234863 291.372742,2496.990234 288.126434,2520.644531 
	C285.780151,2537.740479 283.421509,2554.835938 281.263580,2571.956299 
	C278.275604,2595.661377 274.796143,2619.333496 272.804657,2643.126465 
	C271.254456,2661.647461 270.434174,2680.255371 269.188446,2698.797852 
	C266.961700,2731.942871 266.578491,2765.242432 264.879791,2798.477783 
	C263.248535,2830.393066 263.892365,2862.465088 264.547974,2894.447266 
	C265.407104,2936.358887 267.239563,2978.250488 268.719788,3020.148438 
	C268.836578,3023.454102 269.493011,3026.739258 269.862335,3030.038086 
	C270.673737,3037.285400 272.480316,3044.593018 272.072388,3051.773193 
	C270.740417,3075.221191 275.085144,3098.263428 277.603088,3121.272705 
	C280.776276,3150.270264 285.982056,3179.082031 288.800873,3208.198730 
	C290.139404,3222.025146 292.737885,3235.745117 295.125580,3249.450684 
	C299.455383,3274.304443 303.746643,3299.171875 308.639526,3323.917969 
	C312.498138,3343.433594 317.239624,3362.774414 321.580078,3382.194824 
	C322.448456,3386.080078 323.206024,3389.990967 324.134399,3393.861572 
	C329.865967,3417.754883 335.318848,3441.720947 341.463440,3465.508057 
	C349.603577,3497.020264 357.587982,3528.540771 367.195038,3559.707764 
	C381.492432,3606.090332 396.316772,3652.274902 413.403625,3697.666748 
	C424.172424,3726.274170 435.149567,3754.827637 446.874481,3783.113770 
	C462.170197,3820.015137 478.982971,3856.201416 495.138519,3892.685059 
	C506.436523,3918.198975 519.345703,3943.036621 532.341125,3967.752930 
	C552.160950,4005.448242 571.398438,4043.540283 593.201599,4080.080566 
	C624.871033,4133.155762 657.348389,4185.805176 692.806213,4236.503418 
	C706.907043,4256.665039 720.555664,4277.213379 735.778503,4296.505371 
	C769.119934,4338.758301 800.409058,4382.578613 836.278381,4422.926758 
	C866.765503,4457.220703 895.761902,4492.831055 927.865356,4525.712402 
	C942.268799,4540.464844 955.666321,4556.206055 970.191956,4570.831543 
	C983.249146,4583.978027 997.492310,4595.939453 1010.742310,4608.904297 
	C1042.147095,4639.631348 1074.235596,4669.583008 1108.063232,4697.651367 
	C1133.610718,4718.848633 1158.606812,4740.729492 1184.563965,4761.408203 
	C1208.451294,4780.438477 1233.253296,4798.324219 1257.733521,4816.605469 
	C1268.897949,4824.942383 1280.352051,4832.892578 1291.511108,4841.236816 
	C1326.148071,4867.137695 1362.984741,4889.736816 1399.219482,4913.241699 
	C1407.014893,4918.298828 1414.584229,4923.729004 1422.566895,4928.466797 
	C1441.446045,4939.673828 1460.387817,4950.787109 1479.528076,4961.540039 
	C1512.590210,4980.112793 1545.448242,4999.100586 1579.065308,5016.622070 
	C1639.894043,5048.324707 1702.346313,5076.560547 1765.776733,5102.747070 
	C1811.892090,5121.785645 1858.498901,5139.380371 1905.646362,5155.605957 
	C1924.497070,5162.093262 1943.440552,5168.315918 1962.398315,5174.485352 
	C1968.706299,5176.538574 1975.390869,5177.527344 1981.560791,5179.895508 
	C2012.656494,5191.830566 2045.639893,5197.124512 2077.224121,5207.401855 
	C2092.959961,5212.521973 2109.367676,5215.619141 2125.534424,5219.361328 
	C2145.578613,5224.000488 2165.684570,5228.375000 2185.769775,5232.836914 
	C2206.497559,5237.442383 2227.190430,5242.219238 2247.982422,5246.516113 
	C2258.369385,5248.662598 2268.922852,5250.052734 2279.436768,5251.530762 
	C2303.102295,5254.856445 2327.071777,5256.679199 2350.403564,5261.566406 
	C2386.295410,5269.084473 2422.800537,5270.820312 2459.001465,5275.134277 
	C2487.991943,5278.589844 2517.380127,5278.704590 2546.591309,5280.309570 
	C2549.916992,5280.492188 2553.240723,5280.716309 2556.563477,5280.948242 
	C2586.375244,5283.028320 2616.176270,5286.641113 2645.999756,5286.832031 
	C2687.880615,5287.100098 2729.778564,5289.062988 2771.722168,5284.427246 
	C2803.395264,5280.926758 2835.478027,5281.132812 2867.378418,5279.687500 
	C2870.706787,5279.536133 2874.048584,5279.519531 2877.360596,5279.197266 
	C2902.457275,5276.763672 2927.500977,5273.329590 2952.654297,5272.071777 
	C2975.302490,5270.939453 2997.516602,5267.498047 3019.788086,5263.903320 
	C3028.968506,5262.421875 3038.180664,5261.129883 3047.388916,5259.826660 
	C3069.075439,5256.758789 3091.194824,5255.488281 3112.370361,5250.333008 
	C3157.502686,5239.345215 3203.750000,5233.989746 3248.560303,5221.143066 
	C3275.255371,5213.490234 3302.655762,5208.128906 3329.582520,5200.819824 
	C3375.118652,5188.457520 3420.343018,5175.287109 3464.941406,5159.939941 
	C3496.395264,5149.115234 3527.776123,5138.080078 3559.177246,5127.102539 
	C3561.683350,5126.227051 3564.094727,5125.077148 3566.542480,5124.036621 
	C3587.964600,5114.932129 3609.054443,5104.922852 3630.876465,5096.906738 
	C3673.462891,5081.263672 3714.012695,5061.103027 3754.815186,5041.640625 
	C3816.680664,5012.130371 3876.549805,4978.730957 3935.449219,4943.649902 
	C3956.594727,4931.055664 3977.864502,4918.646484 3998.653076,4905.481934 
	C4017.725342,4893.405762 4036.219971,4880.416504 4054.981445,4867.847656 
	C4064.907227,4861.198242 4075.158447,4854.991211 4084.744385,4847.885742 
	C4115.164062,4825.335938 4145.399414,4802.535645 4175.586914,4779.675293 
	C4190.417969,4768.443848 4205.305664,4757.249023 4219.602051,4745.357422 
	C4241.058105,4727.511719 4262.069824,4709.129395 4283.172363,4690.861328 
	C4302.271484,4674.326660 4322.082520,4658.501465 4340.113770,4640.865234 
	C4405.327637,4577.079590 4471.031738,4513.726562 4529.768066,4443.695312 
	C4552.405762,4416.704102 4575.592773,4390.152344 4597.559082,4362.626465 
	C4618.263184,4336.682129 4638.334961,4310.176270 4657.528320,4283.096680 
	C4685.195801,4244.061523 4712.578125,4204.778809 4738.646973,4164.669434 
	C4760.019531,4131.785645 4779.964844,4097.919922 4799.322266,4063.796631 
	C4819.988281,4027.367188 4839.827637,3990.435547 4858.904297,3953.148193 
	C4876.468750,3918.816406 4893.446777,3884.163574 4908.308105,3848.506592 
	C4922.878418,3813.547119 4938.868164,3779.170166 4953.020508,3744.048096 
	C4963.689941,3717.568604 4972.611816,3690.375732 4982.003906,3663.392822 
	C4993.145508,3631.381104 5004.987793,3599.561768 5014.674805,3567.106445 
	C5029.874023,3516.181885 5043.266602,3464.723145 5055.755859,3413.055420 
	C5060.115723,3395.017822 5063.609375,3376.766846 5067.305176,3358.573975 
	C5073.641602,3327.378174 5081.907227,3296.563477 5084.671387,3264.664307 
	C5085.697754,3252.818115 5088.265625,3241.048584 5090.886719,3229.414551 
	C5093.081055,3219.672607 5095.126953,3210.084229 5095.707031,3199.993896 
	C5096.581543,3184.782959 5099.130371,3169.672363 5100.831055,3154.503662 
	C5103.270508,3132.741211 5105.617188,3110.968262 5107.943848,3089.193359 
	C5109.001953,3079.295410 5110.385742,3069.402100 5110.801270,3059.472168 
	C5111.663086,3038.879150 5116.536621,3018.647461 5115.607422,2997.863770 
	C5115.133789,2987.274414 5116.289062,2976.594482 5117.009766,2965.975830 
	C5117.502441,2958.709473 5119.166992,2951.480713 5119.190918,2944.231445 
	C5119.380859,2886.903809 5119.312500,2829.575439 5119.287598,2772.247314 
	C5119.285156,2767.585938 5119.884277,2762.690918 5118.706055,2758.307129 
	C5115.185059,2745.207764 5115.443359,2731.883057 5115.515137,2718.596436 
	C5115.647949,2693.904053 5111.928223,2669.605713 5109.064453,2645.190674 
	C5106.820801,2626.067383 5105.765137,2606.807373 5103.767578,2587.651367 
	C5101.568359,2566.553955 5099.151855,2545.471680 5096.354980,2524.446289 
	C5093.814941,2505.357422 5090.675781,2486.347656 5087.728516,2467.314209 
	C5084.582520,2446.994141 5081.845703,2426.593506 5078.010742,2406.402588 
	C5074.541504,2388.138184 5069.781250,2370.120361 5065.682617,2351.973145 
	C5059.403320,2324.171631 5053.235840,2296.344727 5046.955566,2268.543457 
	C5044.030762,2255.594971 5041.550293,2242.506592 5037.828125,2229.786133 
	C5027.741211,2195.317871 5017.338867,2160.937012 5006.587402,2126.670166 
	C4999.827148,2105.124756 4992.079590,2083.891602 4985.011230,2062.440186 
	C4971.278809,2020.765625 4955.898926,1979.702026 4939.046875,1939.204590 
	C4929.590332,1916.480469 4919.650391,1893.944702 4909.379883,1871.575806 
	C4892.177246,1834.109863 4875.212891,1796.508911 4856.863770,1759.603394 
	C4842.380371,1730.473022 4825.844727,1702.367798 4810.437012,1673.690796 
	C4788.726074,1633.280029 4764.937500,1594.068604 4740.168945,1555.525391 
	C4713.947266,1514.719849 4686.189941,1474.891235 4658.654297,1434.944946 
	C4648.874512,1420.758301 4637.756836,1407.495361 4627.287598,1393.781860 
	C4620.439453,1384.811523 4613.756348,1375.713989 4606.827148,1366.807861 
	C4595.803223,1352.640015 4585.246582,1338.045044 4573.389648,1324.603271 
	C4554.040527,1302.667603 4537.563965,1278.251831 4516.031738,1258.216553 
	C4515.546875,1257.765625 4515.172852,1257.198486 4514.727051,1256.703003 
	C4492.943848,1232.475586 4471.390625,1208.036011 4449.282227,1184.109497 
	C4437.076660,1170.900146 4423.663086,1158.813965 4411.278320,1145.762695 
	C4378.693848,1111.425537 4342.903320,1080.460693 4308.736328,1047.790771 
	C4296.250488,1035.852051 4282.974121,1024.740356 4270.044434,1013.266357 
	C4268.551758,1011.941650 4266.984375,1010.699768 4265.433105,1009.442444 
	C4239.096680,988.095276 4212.785645,966.717712 4186.404297,945.426758 
	C4177.625000,938.341675 4168.890625,931.169189 4159.744629,924.578796 
	C4135.492188,907.102905 4111.059570,889.875427 4086.625488,872.652893 
	C4079.034668,867.302490 4070.531006,863.056335 4063.612549,856.976257 
	C4038.423584,834.839417 4008.546631,819.710144 3980.750000,801.607056 
	C3945.159912,778.428345 3907.447021,758.522522 3870.805176,736.941284 
	C3835.233398,715.990601 3798.220947,697.810852 3761.382812,679.283142 
	C3729.293213,663.143555 3696.802979,647.875305 3663.585449,634.177551 
	C3624.849121,618.204163 3586.448486,601.355957 3547.311523,586.437012 
	C3519.439209,575.812317 3491.754639,564.427673 3462.879150,556.540833 
	C3460.951904,556.014465 3458.953369,555.620483 3457.143066,554.815613 
	C3430.303711,542.882202 3401.456055,537.232300 3373.594971,528.557739 
	C3339.376465,517.903992 3304.382324,509.741272 3266.416992,500.055695 
z"/>
<path fill="#B3B3B3" opacity="1.000000" stroke="none" 
	d="
M3268.070312,500.278687 
	C3304.382324,509.741272 3339.376465,517.903992 3373.594971,528.557739 
	C3401.456055,537.232300 3430.303711,542.882202 3457.143066,554.815613 
	C3458.953369,555.620483 3460.951904,556.014465 3462.879150,556.540833 
	C3491.754639,564.427673 3519.439209,575.812317 3547.311523,586.437012 
	C3586.448486,601.355957 3624.849121,618.204163 3663.585449,634.177551 
	C3696.802979,647.875305 3729.293213,663.143555 3761.382812,679.283142 
	C3798.220947,697.810852 3835.233398,715.990601 3870.805176,736.941284 
	C3907.447021,758.522522 3945.159912,778.428345 3980.750000,801.607056 
	C4008.546631,819.710144 4038.423584,834.839417 4063.612549,856.976257 
	C4070.531006,863.056335 4079.034668,867.302490 4086.625488,872.652893 
	C4111.059570,889.875427 4135.492188,907.102905 4159.744629,924.578796 
	C4168.890625,931.169189 4177.625000,938.341675 4186.404297,945.426758 
	C4212.785645,966.717712 4239.096680,988.095276 4265.433105,1009.442444 
	C4266.984375,1010.699768 4268.551758,1011.941650 4270.044434,1013.266357 
	C4282.974121,1024.740356 4296.250488,1035.852051 4308.736328,1047.790771 
	C4342.903320,1080.460693 4378.693848,1111.425537 4411.278320,1145.762695 
	C4423.663086,1158.813965 4437.076660,1170.900146 4449.282227,1184.109497 
	C4471.390625,1208.036011 4492.943848,1232.475586 4514.727051,1256.703003 
	C4515.172852,1257.198486 4515.546875,1257.765625 4516.031738,1258.216553 
	C4537.563965,1278.251831 4554.040527,1302.667603 4573.389648,1324.603271 
	C4585.246582,1338.045044 4595.803223,1352.640015 4606.827148,1366.807861 
	C4613.756348,1375.713989 4620.439453,1384.811523 4627.287598,1393.781860 
	C4637.756836,1407.495361 4648.874512,1420.758301 4658.654297,1434.944946 
	C4686.189941,1474.891235 4713.947266,1514.719849 4740.168945,1555.525391 
	C4764.937500,1594.068604 4788.726074,1633.280029 4810.437012,1673.690796 
	C4825.844727,1702.367798 4842.380371,1730.473022 4856.863770,1759.603394 
	C4875.212891,1796.508911 4892.177246,1834.109863 4909.379883,1871.575806 
	C4919.650391,1893.944702 4929.590332,1916.480469 4939.046875,1939.204590 
	C4955.898926,1979.702026 4971.278809,2020.765625 4985.011230,2062.440186 
	C4992.079590,2083.891602 4999.827148,2105.124756 5006.587402,2126.670166 
	C5017.338867,2160.937012 5027.741211,2195.317871 5037.828125,2229.786133 
	C5041.550293,2242.506592 5044.030762,2255.594971 5046.955566,2268.543457 
	C5053.235840,2296.344727 5059.403320,2324.171631 5065.682617,2351.973145 
	C5069.781250,2370.120361 5074.541504,2388.138184 5078.010742,2406.402588 
	C5081.845703,2426.593506 5084.582520,2446.994141 5087.728516,2467.314209 
	C5090.675781,2486.347656 5093.814941,2505.357422 5096.354980,2524.446289 
	C5099.151855,2545.471680 5101.568359,2566.553955 5103.767578,2587.651367 
	C5105.765137,2606.807373 5106.820801,2626.067383 5109.064453,2645.190674 
	C5111.928223,2669.605713 5115.647949,2693.904053 5115.515137,2718.596436 
	C5115.443359,2731.883057 5115.185059,2745.207764 5118.706055,2758.307129 
	C5119.884277,2762.690918 5119.285156,2767.585938 5119.287598,2772.247314 
	C5119.312500,2829.575439 5119.380859,2886.903809 5119.190918,2944.231445 
	C5119.166992,2951.480713 5117.502441,2958.709473 5117.009766,2965.975830 
	C5116.289062,2976.594482 5115.133789,2987.274414 5115.607422,2997.863770 
	C5116.536621,3018.647461 5111.663086,3038.879150 5110.801270,3059.472168 
	C5110.385742,3069.402100 5109.001953,3079.295410 5107.943848,3089.193359 
	C5105.617188,3110.968262 5103.270508,3132.741211 5100.831055,3154.503662 
	C5099.130371,3169.672363 5096.581543,3184.782959 5095.707031,3199.993896 
	C5095.126953,3210.084229 5093.081055,3219.672607 5090.886719,3229.414551 
	C5088.265625,3241.048584 5085.697754,3252.818115 5084.671387,3264.664307 
	C5081.907227,3296.563477 5073.641602,3327.378174 5067.305176,3358.573975 
	C5063.609375,3376.766846 5060.115723,3395.017822 5055.755859,3413.055420 
	C5043.266602,3464.723145 5029.874023,3516.181885 5014.674805,3567.106445 
	C5004.987793,3599.561768 4993.145508,3631.381104 4982.003906,3663.392822 
	C4972.611816,3690.375732 4963.689941,3717.568604 4953.020508,3744.048096 
	C4938.868164,3779.170166 4922.878418,3813.547119 4908.308105,3848.506592 
	C4893.446777,3884.163574 4876.468750,3918.816406 4858.904297,3953.148193 
	C4839.827637,3990.435547 4819.988281,4027.367188 4799.322266,4063.796631 
	C4779.964844,4097.919922 4760.019531,4131.785645 4738.646973,4164.669434 
	C4712.578125,4204.778809 4685.195801,4244.061523 4657.528320,4283.096680 
	C4638.334961,4310.176270 4618.263184,4336.682129 4597.559082,4362.626465 
	C4575.592773,4390.152344 4552.405762,4416.704102 4529.768066,4443.695312 
	C4471.031738,4513.726562 4405.327637,4577.079590 4340.113770,4640.865234 
	C4322.082520,4658.501465 4302.271484,4674.326660 4283.172363,4690.861328 
	C4262.069824,4709.129395 4241.058105,4727.511719 4219.602051,4745.357422 
	C4205.305664,4757.249023 4190.417969,4768.443848 4175.586914,4779.675293 
	C4145.399414,4802.535645 4115.164062,4825.335938 4084.744385,4847.885742 
	C4075.158447,4854.991211 4064.907227,4861.198242 4054.981445,4867.847656 
	C4036.219971,4880.416504 4017.725342,4893.405762 3998.653076,4905.481934 
	C3977.864502,4918.646484 3956.594727,4931.055664 3935.449219,4943.649902 
	C3876.549805,4978.730957 3816.680664,5012.130371 3754.815186,5041.640625 
	C3714.012695,5061.103027 3673.462891,5081.263672 3630.876465,5096.906738 
	C3609.054443,5104.922852 3587.964600,5114.932129 3566.542480,5124.036621 
	C3564.094727,5125.077148 3561.683350,5126.227051 3559.177246,5127.102539 
	C3527.776123,5138.080078 3496.395264,5149.115234 3464.941406,5159.939941 
	C3420.343018,5175.287109 3375.118652,5188.457520 3329.582520,5200.819824 
	C3302.655762,5208.128906 3275.255371,5213.490234 3248.560303,5221.143066 
	C3203.750000,5233.989746 3157.502686,5239.345215 3112.370361,5250.333008 
	C3091.194824,5255.488281 3069.075439,5256.758789 3047.388916,5259.826660 
	C3038.180664,5261.129883 3028.968506,5262.421875 3019.788086,5263.903320 
	C2997.516602,5267.498047 2975.302490,5270.939453 2952.654297,5272.071777 
	C2927.500977,5273.329590 2902.457275,5276.763672 2877.360596,5279.197266 
	C2874.048584,5279.519531 2870.706787,5279.536133 2867.378418,5279.687500 
	C2835.478027,5281.132812 2803.395264,5280.926758 2771.722168,5284.427246 
	C2729.778564,5289.062988 2687.880615,5287.100098 2645.999756,5286.832031 
	C2616.176270,5286.641113 2586.375244,5283.028320 2556.563477,5280.948242 
	C2553.240723,5280.716309 2549.916992,5280.492188 2546.591309,5280.309570 
	C2517.380127,5278.704590 2487.991943,5278.589844 2459.001465,5275.134277 
	C2422.800537,5270.820312 2386.295410,5269.084473 2350.403564,5261.566406 
	C2327.071777,5256.679199 2303.102295,5254.856445 2279.436768,5251.530762 
	C2268.922852,5250.052734 2258.369385,5248.662598 2247.982422,5246.516113 
	C2227.190430,5242.219238 2206.497559,5237.442383 2185.769775,5232.836914 
	C2165.684570,5228.375000 2145.578613,5224.000488 2125.534424,5219.361328 
	C2109.367676,5215.619141 2092.959961,5212.521973 2077.224121,5207.401855 
	C2045.639893,5197.124512 2012.656494,5191.830566 1981.560791,5179.895508 
	C1975.390869,5177.527344 1968.706299,5176.538574 1962.398315,5174.485352 
	C1943.440552,5168.315918 1924.497070,5162.093262 1905.646362,5155.605957 
	C1858.498901,5139.380371 1811.892090,5121.785645 1765.776733,5102.747070 
	C1702.346313,5076.560547 1639.894043,5048.324707 1579.065308,5016.622070 
	C1545.448242,4999.100586 1512.590210,4980.112793 1479.528076,4961.540039 
	C1460.387817,4950.787109 1441.446045,4939.673828 1422.566895,4928.466797 
	C1414.584229,4923.729004 1407.014893,4918.298828 1399.219482,4913.241699 
	C1362.984741,4889.736816 1326.148071,4867.137695 1291.511108,4841.236816 
	C1280.352051,4832.892578 1268.897949,4824.942383 1257.733521,4816.605469 
	C1233.253296,4798.324219 1208.451294,4780.438477 1184.563965,4761.408203 
	C1158.606812,4740.729492 1133.610718,4718.848633 1108.063232,4697.651367 
	C1074.235596,4669.583008 1042.147095,4639.631348 1010.742310,4608.904297 
	C997.492310,4595.939453 983.249146,4583.978027 970.191956,4570.831543 
	C955.666321,4556.206055 942.268799,4540.464844 927.865356,4525.712402 
	C895.761902,4492.831055 866.765503,4457.220703 836.278381,4422.926758 
	C800.409058,4382.578613 769.119934,4338.758301 735.778503,4296.505371 
	C720.555664,4277.213379 706.907043,4256.665039 692.806213,4236.503418 
	C657.348389,4185.805176 624.871033,4133.155762 593.201599,4080.080566 
	C571.398438,4043.540283 552.160950,4005.448242 532.341125,3967.752930 
	C519.345703,3943.036621 506.436523,3918.198975 495.138519,3892.685059 
	C478.982971,3856.201416 462.170197,3820.015137 446.874481,3783.113770 
	C435.149567,3754.827637 424.172424,3726.274170 413.403625,3697.666748 
	C396.316772,3652.274902 381.492432,3606.090332 367.195038,3559.707764 
	C357.587982,3528.540771 349.603577,3497.020264 341.463440,3465.508057 
	C335.318848,3441.720947 329.865967,3417.754883 324.134399,3393.861572 
	C323.206024,3389.990967 322.448456,3386.080078 321.580078,3382.194824 
	C317.239624,3362.774414 312.498138,3343.433594 308.639526,3323.917969 
	C303.746643,3299.171875 299.455383,3274.304443 295.125580,3249.450684 
	C292.737885,3235.745117 290.139404,3222.025146 288.800873,3208.198730 
	C285.982056,3179.082031 280.776276,3150.270264 277.603088,3121.272705 
	C275.085144,3098.263428 270.740417,3075.221191 272.072388,3051.773193 
	C272.480316,3044.593018 270.673737,3037.285400 269.862335,3030.038086 
	C269.493011,3026.739258 268.836578,3023.454102 268.719788,3020.148438 
	C267.239563,2978.250488 265.407104,2936.358887 264.547974,2894.447266 
	C263.892365,2862.465088 263.248535,2830.393066 264.879791,2798.477783 
	C266.578491,2765.242432 266.961700,2731.942871 269.188446,2698.797852 
	C270.434174,2680.255371 271.254456,2661.647461 272.804657,2643.126465 
	C274.796143,2619.333496 278.275604,2595.661377 281.263580,2571.956299 
	C283.421509,2554.835938 285.780151,2537.740479 288.126434,2520.644531 
	C291.372742,2496.990234 294.051758,2473.234863 298.135162,2449.724365 
	C303.700897,2417.679443 309.769409,2385.695312 316.712677,2353.923340 
	C324.224731,2319.548584 332.850922,2285.413330 341.267639,2251.241943 
	C345.715942,2233.181885 350.184265,2215.092041 355.652100,2197.325928 
	C364.631622,2168.149902 371.912750,2138.479492 382.765076,2109.830322 
	C392.177063,2084.983643 399.419647,2059.324219 408.284729,2034.258545 
	C418.042786,2006.668335 428.091949,1979.160889 438.889923,1951.965088 
	C447.708160,1929.755127 457.977997,1908.126099 467.316315,1886.117432 
	C487.355682,1838.888672 508.992676,1792.376587 533.091187,1747.122559 
	C555.544861,1704.957275 577.773987,1662.625244 603.065979,1622.010498 
	C619.934143,1594.923096 635.929443,1567.292603 652.759155,1540.180664 
	C660.113525,1528.333130 668.763367,1517.297974 676.499634,1505.677246 
	C692.321655,1481.911011 709.158325,1458.866211 725.578186,1435.534424 
	C746.621216,1405.633545 769.382568,1377.103394 791.439087,1348.029297 
	C807.081909,1327.409668 824.681824,1308.265869 841.567993,1288.600342 
	C864.947144,1261.373413 888.129028,1233.963867 912.072571,1207.239258 
	C926.291138,1191.369263 941.669434,1176.523193 956.776001,1161.467041 
	C986.047546,1132.293213 1015.380066,1103.177979 1044.942505,1074.299683 
	C1053.486084,1065.953857 1062.831543,1058.418823 1071.927734,1050.650757 
	C1097.705200,1028.637085 1124.237549,1007.448364 1149.150391,984.499329 
	C1171.232300,964.158081 1196.717041,948.353699 1219.224854,928.567871 
	C1237.122070,912.835266 1257.460938,899.834961 1277.007324,886.034424 
	C1304.155518,866.866699 1331.252563,847.594849 1358.974731,829.280823 
	C1385.025879,812.070862 1411.642700,795.684631 1438.409180,779.599304 
	C1467.461182,762.140564 1496.656372,744.868835 1526.375977,728.586792 
	C1554.945923,712.934631 1584.153564,698.426758 1613.298462,683.850708 
	C1631.743408,674.625977 1650.949341,666.884827 1669.175781,657.268799 
	C1707.456177,637.072815 1747.799683,621.634949 1787.546265,604.837463 
	C1805.909302,597.077026 1824.841919,590.647034 1843.598145,583.839417 
	C1874.831543,572.503235 1906.087158,561.225098 1937.427612,550.189941 
	C1947.438721,546.664917 1957.716309,543.875793 1967.926880,540.941345 
	C2007.509399,529.565918 2046.932739,517.574890 2086.763672,507.143738 
	C2123.340820,497.564758 2160.138916,488.491882 2197.271729,481.487305 
	C2223.372803,476.563721 2249.303467,470.989716 2275.309326,465.684662 
	C2287.638428,463.169617 2300.276611,462.190765 2312.757812,460.397614 
	C2335.100098,457.187744 2357.407715,453.728394 2379.771240,450.678009 
	C2396.849365,448.348572 2413.989258,446.470551 2431.105713,444.425385 
	C2460.120117,440.958618 2489.472412,441.409882 2518.399902,436.916107 
	C2519.713379,436.712036 2521.050293,436.620819 2522.379883,436.565826 
	C2557.619629,435.107025 2592.848633,432.903137 2628.102295,432.396484 
	C2675.419922,431.716492 2722.764160,431.864105 2770.082275,432.593414 
	C2800.667969,433.064850 2831.326660,434.162506 2861.759766,437.029419 
	C2878.332520,438.590607 2894.895508,439.374298 2911.450684,440.663513 
	C2931.924805,442.257935 2952.249268,446.668671 2972.713623,447.258118 
	C2996.193359,447.934418 3018.644775,454.283051 3041.787354,456.731018 
	C3083.362305,461.128723 3124.524658,468.807098 3165.452881,477.516785 
	C3181.665771,480.966949 3198.015137,483.790222 3214.188965,487.406128 
	C3231.667480,491.313721 3249.013184,495.813995 3268.070312,500.278687 
M4934.530273,1991.533325 
	C4929.135742,1977.940552 4923.722656,1964.355347 4918.351074,1950.753540 
	C4895.849121,1893.780151 4870.291504,1838.180908 4842.454102,1783.645508 
	C4823.984863,1747.463501 4805.870117,1711.026978 4785.592773,1675.860474 
	C4760.339844,1632.065918 4734.230957,1588.748535 4706.630859,1546.312134 
	C4684.481934,1512.258057 4661.088379,1479.148438 4637.243652,1446.326782 
	C4622.798340,1426.443115 4607.075684,1407.482666 4592.764648,1387.507568 
	C4569.484375,1355.013916 4542.996582,1325.166504 4517.394043,1294.594604 
	C4504.159668,1278.791016 4489.978516,1263.777344 4476.133789,1248.489014 
	C4454.704102,1224.824097 4434.023438,1200.406372 4411.527344,1177.798340 
	C4378.185547,1144.290527 4343.533691,1112.086426 4309.437500,1079.329102 
	C4307.996094,1077.943604 4306.589355,1076.515259 4305.077148,1075.209961 
	C4287.954102,1060.427002 4270.862793,1045.605347 4253.663086,1030.911621 
	C4234.457031,1014.504272 4216.149902,996.805176 4195.624023,982.244934 
	C4171.206543,964.923767 4148.558594,945.411316 4124.374512,927.791809 
	C4088.350098,901.545227 4051.960693,875.891479 4014.935791,851.131226 
	C3992.836426,836.352539 3970.029053,822.634644 3947.582275,808.372986 
	C3911.101807,785.194641 3873.531738,763.876465 3835.501221,743.396179 
	C3812.666504,731.099060 3789.326416,719.735901 3766.148926,708.081177 
	C3745.384521,697.639954 3724.722168,686.966431 3703.666016,677.142822 
	C3681.353027,666.732544 3658.816895,656.744934 3636.042725,647.389893 
	C3594.199219,630.201660 3552.411133,612.802368 3510.029541,597.023438 
	C3474.513916,583.800781 3438.310059,572.369080 3402.173584,560.891541 
	C3377.463135,553.042969 3352.448486,546.087219 3327.385498,539.425720 
	C3283.071045,527.647339 3238.772217,515.752441 3193.728760,506.951660 
	C3167.647949,501.855988 3141.623535,496.445618 3115.472656,491.740173 
	C3088.059082,486.807556 3060.570801,482.240265 3033.026123,478.103760 
	C3014.647217,475.343750 2996.128418,473.478760 2977.644531,471.466156 
	C2959.163574,469.453918 2940.630127,467.920746 2922.154053,465.868378 
	C2907.629150,464.254913 2893.206787,461.344727 2878.650879,460.461945 
	C2844.778564,458.407593 2810.866455,456.693665 2776.945557,455.846649 
	C2742.965088,454.998169 2708.949463,455.674347 2674.957764,455.137146 
	C2620.301514,454.273315 2565.791992,457.577026 2511.252930,460.180756 
	C2508.592529,460.307770 2505.925049,460.454315 2503.282471,460.771576 
	C2474.933594,464.175049 2446.656982,468.435242 2418.222656,470.798889 
	C2393.038086,472.892395 2367.954834,475.354187 2343.036133,479.497040 
	C2312.917480,484.504486 2282.764160,489.322418 2252.706055,494.672882 
	C2230.478271,498.629486 2208.349365,503.165527 2186.231201,507.709351 
	C2169.976562,511.048584 2153.781250,514.693359 2137.609619,518.419678 
	C2089.024658,529.614929 2040.994263,542.991455 1993.250122,557.224365 
	C1930.747437,575.856873 1869.121460,597.344360 1808.624023,621.672485 
	C1766.671753,638.542908 1724.339111,654.710632 1683.941040,675.318787 
	C1669.757080,682.554382 1654.953857,688.565552 1640.618530,695.517334 
	C1621.464600,704.805847 1602.216919,713.959351 1583.503906,724.084412 
	C1554.822510,739.603027 1526.740356,756.228149 1498.077271,771.781738 
	C1464.729614,789.877197 1432.293579,809.393311 1400.865967,830.648193 
	C1368.906006,852.262939 1336.517090,873.246460 1304.670654,895.024719 
	C1283.282227,909.651306 1262.046143,924.580261 1241.568604,940.441162 
	C1208.454346,966.089966 1175.947021,992.525940 1143.340210,1018.823792 
	C1132.473022,1027.588379 1121.834351,1036.673096 1111.531738,1046.093140 
	C1088.448853,1067.198364 1065.642578,1088.605957 1042.723022,1109.889893 
	C1041.746338,1110.796875 1040.803833,1111.746216 1039.778687,1112.595093 
	C1006.847778,1139.862183 978.292053,1171.650879 948.380249,1201.982544 
	C925.994873,1224.682007 905.439758,1249.202393 884.355469,1273.163452 
	C869.871826,1289.623169 855.709045,1306.374023 841.724487,1323.261230 
	C832.401978,1334.518677 824.065247,1346.604614 814.555603,1357.692139 
	C787.676575,1389.031006 762.882935,1421.931763 739.304199,1455.792480 
	C724.115051,1477.605225 708.453857,1499.090820 693.384399,1520.984741 
	C683.574768,1535.236816 674.286377,1549.856934 665.057983,1564.497314 
	C654.454590,1581.318970 644.111694,1598.306274 633.773254,1615.293213 
	C623.750305,1631.762085 613.582031,1648.153198 604.017334,1664.886963 
	C593.806213,1682.751587 584.174133,1700.948486 574.385803,1719.052734 
	C563.620605,1738.963867 552.554932,1758.727661 542.373230,1778.935059 
	C531.310974,1800.890137 520.870056,1823.169189 510.612091,1845.515503 
	C500.895569,1866.682373 491.533691,1888.020264 482.446808,1909.465576 
	C473.620728,1930.295654 465.123718,1951.272217 456.874054,1972.337769 
	C444.503601,2003.926025 431.909668,2035.445679 420.480316,2067.377441 
	C411.292725,2093.045898 403.376038,2119.186523 395.467102,2145.290771 
	C385.831818,2177.093262 376.059540,2208.885742 367.691864,2241.032471 
	C357.987823,2278.313232 349.464203,2315.910889 340.972168,2353.493896 
	C335.851959,2376.154297 331.829376,2399.060791 327.196838,2421.833252 
	C323.487030,2440.069580 320.987213,2458.447754 318.596161,2476.914307 
	C315.188873,2503.229736 309.358978,2529.163818 306.654449,2555.703125 
	C303.893707,2582.793213 298.982391,2609.658936 298.986359,2637.022217 
	C298.986725,2639.666992 298.442810,2642.311279 298.165344,2644.957031 
	C297.127472,2654.851807 295.975128,2664.737061 295.109467,2674.646973 
	C294.646301,2679.949463 295.132446,2685.356445 294.415527,2690.610840 
	C290.543884,2718.986816 288.497192,2747.580322 288.343018,2776.111328 
	C287.961548,2846.698242 284.882629,2917.340820 291.166687,2987.864746 
	C293.231445,3011.036621 294.106567,3034.314453 295.544739,3057.542725 
	C295.668121,3059.535400 295.928558,3061.520020 296.136871,3063.507080 
	C298.558502,3086.604004 300.977722,3109.701172 303.407104,3132.797363 
	C305.284180,3150.643066 306.535797,3168.583252 309.208344,3186.309082 
	C313.266937,3213.228027 319.594849,3239.853760 322.626312,3266.865967 
	C326.572235,3302.025879 336.403534,3335.913086 342.349731,3370.598389 
	C346.178375,3392.932373 352.892059,3414.543945 358.157776,3436.499268 
	C369.641022,3484.378662 382.979187,3531.626709 397.699890,3578.609375 
	C410.423065,3619.216309 423.582733,3659.629883 438.942322,3699.280762 
	C454.803833,3740.228027 471.169708,3780.994629 488.174622,3821.479248 
	C505.164124,3861.927246 524.664917,3901.251709 543.964050,3940.642578 
	C552.444092,3957.950928 561.115356,3975.180176 570.255249,3992.145996 
	C580.037354,4010.303711 590.334656,4028.189209 600.657043,4046.049072 
	C615.640869,4071.973877 630.239075,4098.150879 646.127258,4123.515625 
	C663.064880,4150.556152 680.919800,4177.047852 699.085266,4203.286621 
	C723.305664,4238.270996 747.617126,4273.221680 772.984863,4307.373535 
	C800.337891,4344.198242 828.687988,4380.280273 859.267517,4414.569824 
	C883.602539,4441.856934 906.212646,4470.750488 931.454773,4497.145508 
	C974.202087,4541.846680 1017.844788,4585.682129 1063.687744,4627.337402 
	C1094.721802,4655.536621 1125.917480,4683.472656 1158.505981,4709.840820 
	C1188.477905,4734.091797 1217.960815,4759.015137 1248.836792,4782.064941 
	C1289.314575,4812.282227 1330.328491,4841.808105 1372.807495,4869.261719 
	C1413.060181,4895.275391 1453.684937,4920.639648 1495.362427,4944.298340 
	C1510.403931,4952.836426 1525.620483,4961.071777 1540.845215,4969.282715 
	C1569.551392,4984.763184 1597.728027,5001.390625 1627.212402,5015.222656 
	C1665.713867,5033.285156 1703.622192,5052.702637 1743.247314,5068.366699 
	C1783.451294,5084.259277 1823.274414,5101.134277 1863.660400,5116.541504 
	C1890.360718,5126.727539 1917.696655,5135.274902 1944.859497,5144.217285 
	C1994.136353,5160.439941 2043.899048,5174.970215 2094.203613,5187.738770 
	C2136.742188,5198.535645 2179.493896,5208.317383 2222.527588,5216.827148 
	C2251.825439,5222.619629 2281.292725,5227.573730 2310.727783,5232.647949 
	C2327.097656,5235.470215 2343.512451,5238.126465 2359.989258,5240.207031 
	C2376.459961,5242.286133 2393.065430,5243.282715 2409.554199,5245.240234 
	C2437.244873,5248.527344 2464.807617,5253.221680 2492.574707,5255.449219 
	C2526.386230,5258.161133 2560.348633,5259.058105 2594.256348,5260.480957 
	C2606.904785,5261.011230 2619.595215,5260.522461 2632.246338,5261.011719 
	C2651.500488,5261.755371 2670.731689,5263.552246 2689.983643,5263.736328 
	C2703.218750,5263.863281 2716.459229,5261.506348 2729.721436,5261.142090 
	C2772.302979,5259.971191 2814.859863,5260.196289 2857.474365,5257.355469 
	C2892.024414,5255.052246 2926.294678,5250.555176 2960.761230,5247.826172 
	C2989.165527,5245.577148 3017.275879,5239.845215 3045.640381,5236.816895 
	C3083.388184,5232.786133 3120.268555,5223.978027 3157.605713,5217.725098 
	C3180.524170,5213.886719 3203.148438,5208.271484 3225.875977,5203.321289 
	C3240.796387,5200.071777 3255.920166,5197.429688 3270.505859,5193.033203 
	C3302.986328,5183.240723 3336.073486,5175.773926 3368.535889,5165.771973 
	C3409.843506,5153.044922 3451.633057,5141.975098 3491.720215,5125.522949 
	C3497.229736,5123.262207 3503.183105,5122.097168 3508.896973,5120.315918 
	C3515.247559,5118.336426 3521.693115,5116.569336 3527.864014,5114.121094 
	C3551.975342,5104.555664 3576.116455,5095.046387 3600.019775,5084.977539 
	C3635.584717,5069.995605 3671.222412,5055.137695 3706.328613,5039.129883 
	C3734.163818,5026.437500 3761.275635,5012.152832 3788.653809,4998.465332 
	C3803.512695,4991.036621 3818.436523,4983.706055 3833.004639,4975.734375 
	C3850.515137,4966.152344 3867.811279,4956.158203 3884.963867,4945.945801 
	C3915.833984,4927.563965 3946.606934,4909.016113 3977.262451,4890.279785 
	C3993.141602,4880.574707 4008.768799,4870.448730 4024.350586,4860.269531 
	C4038.262207,4851.181641 4052.202637,4842.103027 4065.688965,4832.406738 
	C4089.448975,4815.324219 4112.981445,4797.919922 4136.399414,4780.370605 
	C4151.805664,4768.825195 4167.011230,4756.996094 4182.006348,4744.920898 
	C4199.086914,4731.167480 4215.836914,4717.002441 4232.725098,4703.010254 
	C4252.683105,4686.476074 4273.254883,4670.619629 4292.443848,4653.236328 
	C4321.055664,4627.315918 4348.729980,4600.358398 4376.730957,4573.766113 
	C4414.916992,4537.501465 4449.907227,4498.161621 4486.058105,4459.938965 
	C4487.431641,4458.486328 4488.842285,4457.060547 4490.113281,4455.521484 
	C4512.548828,4428.365723 4534.499023,4400.791992 4557.513672,4374.137695 
	C4581.454590,4346.410645 4603.606934,4317.368164 4624.953125,4287.657715 
	C4643.944336,4261.224121 4663.298828,4235.043945 4681.849609,4208.306152 
	C4696.630371,4187.001465 4710.713379,4165.196777 4724.595703,4143.290527 
	C4735.266602,4126.452637 4745.268555,4109.184570 4755.343262,4091.976318 
	C4772.488281,4062.690186 4789.568359,4033.364502 4806.441406,4003.921387 
	C4812.721680,3992.962891 4818.577637,3981.744385 4824.222656,3970.442383 
	C4834.922852,3949.020264 4845.335449,3927.454590 4855.859375,3905.944824 
	C4865.487793,3886.264160 4875.951660,3866.940186 4884.559570,3846.822266 
	C4904.435059,3800.367676 4924.395996,3753.905273 4942.448730,3706.729004 
	C4958.368164,3665.130371 4972.448730,3622.784424 4986.025879,3580.347412 
	C4996.747559,3546.836670 5006.164551,3512.863770 5014.906250,3478.774414 
	C5025.632812,3436.944580 5035.284668,3394.832764 5044.933594,3352.735596 
	C5049.228027,3333.999268 5052.541992,3315.030762 5056.007812,3296.114014 
	C5060.198242,3273.239990 5064.546875,3250.379395 5067.978027,3227.386230 
	C5072.485352,3197.181152 5076.153320,3166.850830 5080.208008,3136.577881 
	C5081.355469,3128.012207 5082.980469,3119.492188 5083.721191,3110.893799 
	C5086.629395,3077.128662 5089.933594,3043.377686 5091.831055,3009.550781 
	C5093.805176,2974.357910 5093.985840,2939.082764 5095.556152,2903.844727 
	C5097.389160,2862.715820 5097.604492,2821.429443 5093.520996,2780.129395 
	C5090.388184,2748.447021 5093.179688,2716.332520 5089.167480,2684.462158 
	C5086.852051,2666.068604 5086.933105,2647.374023 5085.146973,2628.802979 
	C5082.980469,2606.285156 5081.076172,2583.799316 5077.240723,2561.486816 
	C5075.443359,2551.030029 5074.008789,2540.499512 5072.774902,2529.959717 
	C5070.844727,2513.466309 5070.164062,2496.770752 5067.286133,2480.454834 
	C5060.366699,2441.219238 5052.709961,2402.107666 5044.873047,2363.041992 
	C5041.476074,2346.107910 5036.144531,2329.550049 5033.015137,2312.577148 
	C5025.407227,2271.314697 5013.285645,2231.222900 5001.980469,2190.948730 
	C4992.819824,2158.314697 4982.279785,2126.039062 4971.433594,2093.914551 
	C4960.160645,2060.523193 4947.784668,2027.504395 4934.530273,1991.533325 
z"/>
<path fill="#FFFFFF" opacity="1.000000" stroke="none" 
	d="
M4935.210938,1992.927979 
	C4947.784668,2027.504395 4960.160645,2060.523193 4971.433594,2093.914551 
	C4982.279785,2126.039062 4992.819824,2158.314697 5001.980469,2190.948730 
	C5013.285645,2231.222900 5025.407227,2271.314697 5033.015137,2312.577148 
	C5036.144531,2329.550049 5041.476074,2346.107910 5044.873047,2363.041992 
	C5052.709961,2402.107666 5060.366699,2441.219238 5067.286133,2480.454834 
	C5070.164062,2496.770752 5070.844727,2513.466309 5072.774902,2529.959717 
	C5074.008789,2540.499512 5075.443359,2551.030029 5077.240723,2561.486816 
	C5081.076172,2583.799316 5082.980469,2606.285156 5085.146973,2628.802979 
	C5086.933105,2647.374023 5086.852051,2666.068604 5089.167480,2684.462158 
	C5093.179688,2716.332520 5090.388184,2748.447021 5093.520996,2780.129395 
	C5097.604492,2821.429443 5097.389160,2862.715820 5095.556152,2903.844727 
	C5093.985840,2939.082764 5093.805176,2974.357910 5091.831055,3009.550781 
	C5089.933594,3043.377686 5086.629395,3077.128662 5083.721191,3110.893799 
	C5082.980469,3119.492188 5081.355469,3128.012207 5080.208008,3136.577881 
	C5076.153320,3166.850830 5072.485352,3197.181152 5067.978027,3227.386230 
	C5064.546875,3250.379395 5060.198242,3273.239990 5056.007812,3296.114014 
	C5052.541992,3315.030762 5049.228027,3333.999268 5044.933594,3352.735596 
	C5035.284668,3394.832764 5025.632812,3436.944580 5014.906250,3478.774414 
	C5006.164551,3512.863770 4996.747559,3546.836670 4986.025879,3580.347412 
	C4972.448730,3622.784424 4958.368164,3665.130371 4942.448730,3706.729004 
	C4924.395996,3753.905273 4904.435059,3800.367676 4884.559570,3846.822266 
	C4875.951660,3866.940186 4865.487793,3886.264160 4855.859375,3905.944824 
	C4845.335449,3927.454590 4834.922852,3949.020264 4824.222656,3970.442383 
	C4818.577637,3981.744385 4812.721680,3992.962891 4806.441406,4003.921387 
	C4789.568359,4033.364502 4772.488281,4062.690186 4755.343262,4091.976318 
	C4745.268555,4109.184570 4735.266602,4126.452637 4724.595703,4143.290527 
	C4710.713379,4165.196777 4696.630371,4187.001465 4681.849609,4208.306152 
	C4663.298828,4235.043945 4643.944336,4261.224121 4624.953125,4287.657715 
	C4603.606934,4317.368164 4581.454590,4346.410645 4557.513672,4374.137695 
	C4534.499023,4400.791992 4512.548828,4428.365723 4490.113281,4455.521484 
	C4488.842285,4457.060547 4487.431641,4458.486328 4486.058105,4459.938965 
	C4449.907227,4498.161621 4414.916992,4537.501465 4376.730957,4573.766113 
	C4348.729980,4600.358398 4321.055664,4627.315918 4292.443848,4653.236328 
	C4273.254883,4670.619629 4252.683105,4686.476074 4232.725098,4703.010254 
	C4215.836914,4717.002441 4199.086914,4731.167480 4182.006348,4744.920898 
	C4167.011230,4756.996094 4151.805664,4768.825195 4136.399414,4780.370605 
	C4112.981445,4797.919922 4089.448975,4815.324219 4065.688965,4832.406738 
	C4052.202637,4842.103027 4038.262207,4851.181641 4024.350586,4860.269531 
	C4008.768799,4870.448730 3993.141602,4880.574707 3977.262451,4890.279785 
	C3946.606934,4909.016113 3915.833984,4927.563965 3884.963867,4945.945801 
	C3867.811279,4956.158203 3850.515137,4966.152344 3833.004639,4975.734375 
	C3818.436523,4983.706055 3803.512695,4991.036621 3788.653809,4998.465332 
	C3761.275635,5012.152832 3734.163818,5026.437500 3706.328613,5039.129883 
	C3671.222412,5055.137695 3635.584717,5069.995605 3600.019775,5084.977539 
	C3576.116455,5095.046387 3551.975342,5104.555664 3527.864014,5114.121094 
	C3521.693115,5116.569336 3515.247559,5118.336426 3508.896973,5120.315918 
	C3503.183105,5122.097168 3497.229736,5123.262207 3491.720215,5125.522949 
	C3451.633057,5141.975098 3409.843506,5153.044922 3368.535889,5165.771973 
	C3336.073486,5175.773926 3302.986328,5183.240723 3270.505859,5193.033203 
	C3255.920166,5197.429688 3240.796387,5200.071777 3225.875977,5203.321289 
	C3203.148438,5208.271484 3180.524170,5213.886719 3157.605713,5217.725098 
	C3120.268555,5223.978027 3083.388184,5232.786133 3045.640381,5236.816895 
	C3017.275879,5239.845215 2989.165527,5245.577148 2960.761230,5247.826172 
	C2926.294678,5250.555176 2892.024414,5255.052246 2857.474365,5257.355469 
	C2814.859863,5260.196289 2772.302979,5259.971191 2729.721436,5261.142090 
	C2716.459229,5261.506348 2703.218750,5263.863281 2689.983643,5263.736328 
	C2670.731689,5263.552246 2651.500488,5261.755371 2632.246338,5261.011719 
	C2619.595215,5260.522461 2606.904785,5261.011230 2594.256348,5260.480957 
	C2560.348633,5259.058105 2526.386230,5258.161133 2492.574707,5255.449219 
	C2464.807617,5253.221680 2437.244873,5248.527344 2409.554199,5245.240234 
	C2393.065430,5243.282715 2376.459961,5242.286133 2359.989258,5240.207031 
	C2343.512451,5238.126465 2327.097656,5235.470215 2310.727783,5232.647949 
	C2281.292725,5227.573730 2251.825439,5222.619629 2222.527588,5216.827148 
	C2179.493896,5208.317383 2136.742188,5198.535645 2094.203613,5187.738770 
	C2043.899048,5174.970215 1994.136353,5160.439941 1944.859497,5144.217285 
	C1917.696655,5135.274902 1890.360718,5126.727539 1863.660400,5116.541504 
	C1823.274414,5101.134277 1783.451294,5084.259277 1743.247314,5068.366699 
	C1703.622192,5052.702637 1665.713867,5033.285156 1627.212402,5015.222656 
	C1597.728027,5001.390625 1569.551392,4984.763184 1540.845215,4969.282715 
	C1525.620483,4961.071777 1510.403931,4952.836426 1495.362427,4944.298340 
	C1453.684937,4920.639648 1413.060181,4895.275391 1372.807495,4869.261719 
	C1330.328491,4841.808105 1289.314575,4812.282227 1248.836792,4782.064941 
	C1217.960815,4759.015137 1188.477905,4734.091797 1158.505981,4709.840820 
	C1125.917480,4683.472656 1094.721802,4655.536621 1063.687744,4627.337402 
	C1017.844788,4585.682129 974.202087,4541.846680 931.454773,4497.145508 
	C906.212646,4470.750488 883.602539,4441.856934 859.267517,4414.569824 
	C828.687988,4380.280273 800.337891,4344.198242 772.984863,4307.373535 
	C747.617126,4273.221680 723.305664,4238.270996 699.085266,4203.286621 
	C680.919800,4177.047852 663.064880,4150.556152 646.127258,4123.515625 
	C630.239075,4098.150879 615.640869,4071.973877 600.657043,4046.049072 
	C590.334656,4028.189209 580.037354,4010.303711 570.255249,3992.145996 
	C561.115356,3975.180176 552.444092,3957.950928 543.964050,3940.642578 
	C524.664917,3901.251709 505.164124,3861.927246 488.174622,3821.479248 
	C471.169708,3780.994629 454.803833,3740.228027 438.942322,3699.280762 
	C423.582733,3659.629883 410.423065,3619.216309 397.699890,3578.609375 
	C382.979187,3531.626709 369.641022,3484.378662 358.157776,3436.499268 
	C352.892059,3414.543945 346.178375,3392.932373 342.349731,3370.598389 
	C336.403534,3335.913086 326.572235,3302.025879 322.626312,3266.865967 
	C319.594849,3239.853760 313.266937,3213.228027 309.208344,3186.309082 
	C306.535797,3168.583252 305.284180,3150.643066 303.407104,3132.797363 
	C300.977722,3109.701172 298.558502,3086.604004 296.136871,3063.507080 
	C295.928558,3061.520020 295.668121,3059.535400 295.544739,3057.542725 
	C294.106567,3034.314453 293.231445,3011.036621 291.166687,2987.864746 
	C284.882629,2917.340820 287.961548,2846.698242 288.343018,2776.111328 
	C288.497192,2747.580322 290.543884,2718.986816 294.415527,2690.610840 
	C295.132446,2685.356445 294.646301,2679.949463 295.109467,2674.646973 
	C295.975128,2664.737061 297.127472,2654.851807 298.165344,2644.957031 
	C298.442810,2642.311279 298.986725,2639.666992 298.986359,2637.022217 
	C298.982391,2609.658936 303.893707,2582.793213 306.654449,2555.703125 
	C309.358978,2529.163818 315.188873,2503.229736 318.596161,2476.914307 
	C320.987213,2458.447754 323.487030,2440.069580 327.196838,2421.833252 
	C331.829376,2399.060791 335.851959,2376.154297 340.972168,2353.493896 
	C349.464203,2315.910889 357.987823,2278.313232 367.691864,2241.032471 
	C376.059540,2208.885742 385.831818,2177.093262 395.467102,2145.290771 
	C403.376038,2119.186523 411.292725,2093.045898 420.480316,2067.377441 
	C431.909668,2035.445679 444.503601,2003.926025 456.874054,1972.337769 
	C465.123718,1951.272217 473.620728,1930.295654 482.446808,1909.465576 
	C491.533691,1888.020264 500.895569,1866.682373 510.612091,1845.515503 
	C520.870056,1823.169189 531.310974,1800.890137 542.373230,1778.935059 
	C552.554932,1758.727661 563.620605,1738.963867 574.385803,1719.052734 
	C584.174133,1700.948486 593.806213,1682.751587 604.017334,1664.886963 
	C613.582031,1648.153198 623.750305,1631.762085 633.773254,1615.293213 
	C644.111694,1598.306274 654.454590,1581.318970 665.057983,1564.497314 
	C674.286377,1549.856934 683.574768,1535.236816 693.384399,1520.984741 
	C708.453857,1499.090820 724.115051,1477.605225 739.304199,1455.792480 
	C762.882935,1421.931763 787.676575,1389.031006 814.555603,1357.692139 
	C824.065247,1346.604614 832.401978,1334.518677 841.724487,1323.261230 
	C855.709045,1306.374023 869.871826,1289.623169 884.355469,1273.163452 
	C905.439758,1249.202393 925.994873,1224.682007 948.380249,1201.982544 
	C978.292053,1171.650879 1006.847778,1139.862183 1039.778687,1112.595093 
	C1040.803833,1111.746216 1041.746338,1110.796875 1042.723022,1109.889893 
	C1065.642578,1088.605957 1088.448853,1067.198364 1111.531738,1046.093140 
	C1121.834351,1036.673096 1132.473022,1027.588379 1143.340210,1018.823792 
	C1175.947021,992.525940 1208.454346,966.089966 1241.568604,940.441162 
	C1262.046143,924.580261 1283.282227,909.651306 1304.670654,895.024719 
	C1336.517090,873.246460 1368.906006,852.262939 1400.865967,830.648193 
	C1432.293579,809.393311 1464.729614,789.877197 1498.077271,771.781738 
	C1526.740356,756.228149 1554.822510,739.603027 1583.503906,724.084412 
	C1602.216919,713.959351 1621.464600,704.805847 1640.618530,695.517334 
	C1654.953857,688.565552 1669.757080,682.554382 1683.941040,675.318787 
	C1724.339111,654.710632 1766.671753,638.542908 1808.624023,621.672485 
	C1869.121460,597.344360 1930.747437,575.856873 1993.250122,557.224365 
	C2040.994263,542.991455 2089.024658,529.614929 2137.609619,518.419678 
	C2153.781250,514.693359 2169.976562,511.048584 2186.231201,507.709351 
	C2208.349365,503.165527 2230.478271,498.629486 2252.706055,494.672882 
	C2282.764160,489.322418 2312.917480,484.504486 2343.036133,479.497040 
	C2367.954834,475.354187 2393.038086,472.892395 2418.222656,470.798889 
	C2446.656982,468.435242 2474.933594,464.175049 2503.282471,460.771576 
	C2505.925049,460.454315 2508.592529,460.307770 2511.252930,460.180756 
	C2565.791992,457.577026 2620.301514,454.273315 2674.957764,455.137146 
	C2708.949463,455.674347 2742.965088,454.998169 2776.945557,455.846649 
	C2810.866455,456.693665 2844.778564,458.407593 2878.650879,460.461945 
	C2893.206787,461.344727 2907.629150,464.254913 2922.154053,465.868378 
	C2940.630127,467.920746 2959.163574,469.453918 2977.644531,471.466156 
	C2996.128418,473.478760 3014.647217,475.343750 3033.026123,478.103760 
	C3060.570801,482.240265 3088.059082,486.807556 3115.472656,491.740173 
	C3141.623535,496.445618 3167.647949,501.855988 3193.728760,506.951660 
	C3238.772217,515.752441 3283.071045,527.647339 3327.385498,539.425720 
	C3352.448486,546.087219 3377.463135,553.042969 3402.173584,560.891541 
	C3438.310059,572.369080 3474.513916,583.800781 3510.029541,597.023438 
	C3552.411133,612.802368 3594.199219,630.201660 3636.042725,647.389893 
	C3658.816895,656.744934 3681.353027,666.732544 3703.666016,677.142822 
	C3724.722168,686.966431 3745.384521,697.639954 3766.148926,708.081177 
	C3789.326416,719.735901 3812.666504,731.099060 3835.501221,743.396179 
	C3873.531738,763.876465 3911.101807,785.194641 3947.582275,808.372986 
	C3970.029053,822.634644 3992.836426,836.352539 4014.935791,851.131226 
	C4051.960693,875.891479 4088.350098,901.545227 4124.374512,927.791809 
	C4148.558594,945.411316 4171.206543,964.923767 4195.624023,982.244934 
	C4216.149902,996.805176 4234.457031,1014.504272 4253.663086,1030.911621 
	C4270.862793,1045.605347 4287.954102,1060.427002 4305.077148,1075.209961 
	C4306.589355,1076.515259 4307.996094,1077.943604 4309.437500,1079.329102 
	C4343.533691,1112.086426 4378.185547,1144.290527 4411.527344,1177.798340 
	C4434.023438,1200.406372 4454.704102,1224.824097 4476.133789,1248.489014 
	C4489.978516,1263.777344 4504.159668,1278.791016 4517.394043,1294.594604 
	C4542.996582,1325.166504 4569.484375,1355.013916 4592.764648,1387.507568 
	C4607.075684,1407.482666 4622.798340,1426.443115 4637.243652,1446.326782 
	C4661.088379,1479.148438 4684.481934,1512.258057 4706.630859,1546.312134 
	C4734.230957,1588.748535 4760.339844,1632.065918 4785.592773,1675.860474 
	C4805.870117,1711.026978 4823.984863,1747.463501 4842.454102,1783.645508 
	C4870.291504,1838.180908 4895.849121,1893.780151 4918.351074,1950.753540 
	C4923.722656,1964.355347 4929.135742,1977.940552 4935.210938,1992.927979 
M3189.809570,1432.087280 
	C3164.617676,1417.098267 3138.306396,1404.307861 3111.900635,1391.619995 
	C3072.171143,1372.530151 3030.940186,1357.303711 2988.841797,1344.799438 
	C2945.498291,1331.925415 2901.609131,1321.257690 2856.667480,1314.404297 
	C2809.114502,1307.152588 2761.416504,1303.187744 2713.509766,1301.732056 
	C2672.876953,1300.497437 2632.251221,1303.272583 2591.924072,1308.547974 
	C2561.576904,1312.517822 2531.101318,1316.358398 2501.200684,1322.698120 
	C2452.347656,1333.056396 2404.075439,1346.140137 2357.591553,1364.643066 
	C2325.468750,1377.429565 2293.271973,1390.442627 2262.467529,1406.039185 
	C2203.567627,1435.860718 2147.794434,1470.876343 2095.999023,1512.130005 
	C2041.079956,1555.871704 1990.651733,1604.142700 1946.307983,1658.552246 
	C1927.401245,1681.750488 1909.361694,1705.742676 1892.242920,1730.290894 
	C1865.944092,1768.002930 1842.654297,1807.579468 1822.659790,1849.067993 
	C1805.885620,1883.874390 1790.554199,1919.213623 1777.753662,1955.722900 
	C1766.291260,1988.416016 1755.931030,2021.405029 1748.322021,2055.157715 
	C1738.660400,2098.015137 1729.420410,2141.015137 1726.934692,2185.069824 
	C1724.947388,2220.290283 1721.467285,2255.546143 1721.862183,2290.750244 
	C1722.309448,2330.625977 1724.297485,2370.693115 1732.690430,2409.937744 
	C1739.506836,2441.811279 1745.897339,2473.879395 1754.968994,2505.138184 
	C1764.041626,2536.399658 1775.401611,2567.076660 1787.210205,2597.445801 
	C1804.101807,2640.887939 1824.173706,2682.909424 1846.144409,2724.076416 
	C1874.069946,2776.401367 1903.944702,2827.538086 1935.901001,2877.480957 
	C1952.404175,2903.272705 1969.316162,2928.813477 1985.314941,2954.914062 
	C2010.020264,2995.218750 2034.516602,3035.663818 2058.304199,3076.513916 
	C2075.047852,3105.268066 2090.842285,3134.595215 2106.376709,3164.027344 
	C2123.149414,3195.805908 2139.345215,3227.895020 2155.390625,3260.049316 
	C2172.925049,3295.187744 2190.305664,3330.410156 2207.182617,3365.867432 
	C2222.051270,3397.105713 2236.069336,3428.748535 2250.581787,3460.157715 
	C2263.149414,3487.357666 2276.106934,3514.379639 2288.479492,3541.667725 
	C2299.886230,3566.825195 2315.452881,3588.981445 2334.406006,3608.970459 
	C2372.905518,3649.574463 2420.550049,3675.691162 2472.200195,3694.874512 
	C2527.508789,3715.416748 2585.345215,3725.743896 2643.873291,3730.018311 
	C2698.336426,3733.995850 2753.044434,3734.101562 2807.542725,3727.709717 
	C2857.286865,3721.875488 2906.356201,3712.980713 2953.564941,3695.853271 
	C3002.159668,3678.223145 3046.996582,3653.953369 3085.942139,3619.398193 
	C3127.399414,3582.614258 3158.440186,3537.950928 3184.541504,3489.633789 
	C3208.008789,3446.192627 3225.875732,3400.222656 3242.047363,3353.713867 
	C3263.465820,3292.115723 3283.043945,3229.879395 3304.266602,3168.210938 
	C3313.132080,3142.449463 3323.769287,3117.265381 3334.352051,3092.134766 
	C3351.748535,3050.822998 3375.967773,3013.285645 3400.117188,2975.744141 
	C3453.075439,2893.417969 3506.689453,2811.501465 3553.790771,2725.568115 
	C3593.254883,2653.568848 3627.207520,2579.285889 3650.471191,2500.304443 
	C3671.679932,2428.298828 3683.952148,2355.028076 3683.221191,2279.866943 
	C3682.968994,2253.915527 3681.468018,2227.954346 3679.822021,2202.043213 
	C3677.115479,2159.439453 3669.999268,2117.385986 3661.277832,2075.689209 
	C3653.237793,2037.249878 3642.326416,1999.548706 3629.510742,1962.328857 
	C3614.302490,1918.160889 3595.514893,1875.661133 3574.529053,1834.033813 
	C3561.027344,1807.251343 3545.829590,1781.469849 3529.832764,1756.101440 
	C3499.187012,1707.502319 3464.341309,1662.078491 3425.327637,1620.041016 
	C3386.798096,1578.525513 3345.600830,1539.716675 3300.334229,1505.422607 
	C3265.800293,1479.259521 3230.400391,1454.435181 3189.809570,1432.087280 
M2619.148193,3871.507812 
	C2589.811523,3865.604980 2560.176758,3860.876221 2531.206787,3853.527832 
	C2486.068359,3842.078125 2441.427734,3828.814941 2399.272705,3808.310547 
	C2389.181641,3803.402100 2378.263672,3799.214111 2367.273193,3797.316162 
	C2332.457764,3791.303223 2315.606934,3803.396484 2305.654297,3830.436768 
	C2304.744385,3832.908447 2304.608887,3835.654785 2303.832031,3838.187256 
	C2297.935059,3857.410889 2300.950195,3876.519531 2304.935547,3895.477295 
	C2310.386475,3921.403809 2321.179688,3944.574463 2340.841064,3963.146973 
	C2347.097900,3969.057617 2352.027344,3976.348633 2357.986816,3982.605957 
	C2366.380859,3991.419678 2369.087158,4001.549316 2368.459961,4013.645996 
	C2367.633545,4029.579346 2367.825439,4045.614502 2368.503662,4061.566650 
	C2369.861816,4093.519775 2380.822021,4121.294434 2405.808838,4142.477051 
	C2409.868408,4145.918945 2414.112793,4149.172852 2417.919434,4152.875977 
	C2430.933594,4165.535156 2442.649902,4178.988770 2445.510498,4197.965332 
	C2446.597900,4205.178223 2447.732666,4212.527832 2450.099854,4219.382324 
	C2467.039307,4268.436523 2497.197754,4305.253906 2547.509277,4322.998535 
	C2555.675781,4325.878906 2563.905273,4328.591309 2572.160400,4331.208008 
	C2585.702393,4335.500000 2597.546143,4342.354980 2608.136719,4352.024902 
	C2622.865479,4365.472168 2638.034424,4378.439941 2655.308594,4388.759766 
	C2673.302246,4399.508301 2692.838867,4406.744629 2713.100586,4410.205566 
	C2748.128418,4416.189941 2780.745361,4407.538086 2809.506836,4386.820312 
	C2826.213379,4374.787109 2841.889404,4361.278809 2857.634033,4347.966797 
	C2873.463867,4334.583008 2890.142578,4322.849609 2909.343018,4314.607422 
	C2932.616943,4304.617188 2955.223877,4293.420898 2974.800781,4276.746582 
	C2998.309082,4256.723633 3013.440918,4232.951172 3011.740234,4200.907715 
	C3011.247803,4191.628418 3010.388672,4182.327637 3008.985107,4173.145508 
	C3006.532959,4157.104004 3009.251221,4142.644531 3020.435547,4130.385254 
	C3026.268555,4123.991211 3032.179443,4117.666016 3038.160645,4111.410645 
	C3056.598633,4092.128662 3063.031250,4069.483154 3057.371338,4043.411621 
	C3055.817383,4036.252441 3054.500732,4029.027100 3052.595703,4021.961670 
	C3048.320801,4006.109131 3052.006592,3993.071533 3065.443848,3983.158691 
	C3066.511230,3982.371582 3067.387695,3981.329834 3068.434570,3980.510254 
	C3088.621826,3964.696777 3104.064209,3944.836670 3117.502686,3923.231445 
	C3126.429199,3908.879639 3132.191650,3893.159912 3134.980957,3876.737549 
	C3137.891602,3859.600098 3137.636719,3842.207031 3131.697266,3825.386963 
	C3123.343018,3801.729248 3103.993896,3790.892822 3079.645264,3797.500732 
	C3069.457520,3800.265625 3059.738037,3804.969482 3050.059814,3809.352295 
	C3031.887451,3817.581299 3014.192139,3826.925049 2995.772705,3834.532715 
	C2961.247314,3848.792969 2925.447754,3858.836182 2888.792969,3866.383789 
	C2849.532959,3874.468018 2810.032715,3879.178223 2770.022461,3880.244873 
	C2720.659912,3881.561035 2671.529297,3878.953369 2619.148193,3871.507812 
z"/>
<path fill="#FCC21A" opacity="1.000000" stroke="none" 
	d="
M3191.080078,1432.830444 
	C3230.400391,1454.435181 3265.800293,1479.259521 3300.334229,1505.422607 
	C3345.600830,1539.716675 3386.798096,1578.525513 3425.327637,1620.041016 
	C3464.341309,1662.078491 3499.187012,1707.502319 3529.832764,1756.101440 
	C3545.829590,1781.469849 3561.027344,1807.251343 3574.529053,1834.033813 
	C3595.514893,1875.661133 3614.302490,1918.160889 3629.510742,1962.328857 
	C3642.326416,1999.548706 3653.237793,2037.249878 3661.277832,2075.689209 
	C3669.999268,2117.385986 3677.115479,2159.439453 3679.822021,2202.043213 
	C3681.468018,2227.954346 3682.968994,2253.915527 3683.221191,2279.866943 
	C3683.952148,2355.028076 3671.679932,2428.298828 3650.471191,2500.304443 
	C3627.207520,2579.285889 3593.254883,2653.568848 3553.790771,2725.568115 
	C3506.689453,2811.501465 3453.075439,2893.417969 3400.117188,2975.744141 
	C3375.967773,3013.285645 3351.748535,3050.822998 3334.352051,3092.134766 
	C3323.769287,3117.265381 3313.132080,3142.449463 3304.266602,3168.210938 
	C3283.043945,3229.879395 3263.465820,3292.115723 3242.047363,3353.713867 
	C3225.875732,3400.222656 3208.008789,3446.192627 3184.541504,3489.633789 
	C3158.440186,3537.950928 3127.399414,3582.614258 3085.942139,3619.398193 
	C3046.996582,3653.953369 3002.159668,3678.223145 2953.564941,3695.853271 
	C2906.356201,3712.980713 2857.286865,3721.875488 2807.542725,3727.709717 
	C2753.044434,3734.101562 2698.336426,3733.995850 2643.873291,3730.018311 
	C2585.345215,3725.743896 2527.508789,3715.416748 2472.200195,3694.874512 
	C2420.550049,3675.691162 2372.905518,3649.574463 2334.406006,3608.970459 
	C2315.452881,3588.981445 2299.886230,3566.825195 2288.479492,3541.667725 
	C2276.106934,3514.379639 2263.149414,3487.357666 2250.581787,3460.157715 
	C2236.069336,3428.748535 2222.051270,3397.105713 2207.182617,3365.867432 
	C2190.305664,3330.410156 2172.925049,3295.187744 2155.390625,3260.049316 
	C2139.345215,3227.895020 2123.149414,3195.805908 2106.376709,3164.027344 
	C2090.842285,3134.595215 2075.047852,3105.268066 2058.304199,3076.513916 
	C2034.516602,3035.663818 2010.020264,2995.218750 1985.314941,2954.914062 
	C1969.316162,2928.813477 1952.404175,2903.272705 1935.901001,2877.480957 
	C1903.944702,2827.538086 1874.069946,2776.401367 1846.144409,2724.076416 
	C1824.173706,2682.909424 1804.101807,2640.887939 1787.210205,2597.445801 
	C1775.401611,2567.076660 1764.041626,2536.399658 1754.968994,2505.138184 
	C1745.897339,2473.879395 1739.506836,2441.811279 1732.690430,2409.937744 
	C1724.297485,2370.693115 1722.309448,2330.625977 1721.862183,2290.750244 
	C1721.467285,2255.546143 1724.947388,2220.290283 1726.934692,2185.069824 
	C1729.420410,2141.015137 1738.660400,2098.015137 1748.322021,2055.157715 
	C1755.931030,2021.405029 1766.291260,1988.416016 1777.753662,1955.722900 
	C1790.554199,1919.213623 1805.885620,1883.874390 1822.659790,1849.067993 
	C1842.654297,1807.579468 1865.944092,1768.002930 1892.242920,1730.290894 
	C1909.361694,1705.742676 1927.401245,1681.750488 1946.307983,1658.552246 
	C1990.651733,1604.142700 2041.079956,1555.871704 2095.999023,1512.130005 
	C2147.794434,1470.876343 2203.567627,1435.860718 2262.467529,1406.039185 
	C2293.271973,1390.442627 2325.468750,1377.429565 2357.591553,1364.643066 
	C2404.075439,1346.140137 2452.347656,1333.056396 2501.200684,1322.698120 
	C2531.101318,1316.358398 2561.576904,1312.517822 2591.924072,1308.547974 
	C2632.251221,1303.272583 2672.876953,1300.497437 2713.509766,1301.732056 
	C2761.416504,1303.187744 2809.114502,1307.152588 2856.667480,1314.404297 
	C2901.609131,1321.257690 2945.498291,1331.925415 2988.841797,1344.799438 
	C3030.940186,1357.303711 3072.171143,1372.530151 3111.900635,1391.619995 
	C3138.306396,1404.307861 3164.617676,1417.098267 3191.080078,1432.830444 
z"/>
<path fill="#79A4AD" opacity="1.000000" stroke="none" 
	d="
M2620.900635,3871.665771 
	C2671.529297,3878.953369 2720.659912,3881.561035 2770.022461,3880.244873 
	C2810.032715,3879.178223 2849.532959,3874.468018 2888.792969,3866.383789 
	C2925.447754,3858.836182 2961.247314,3848.792969 2995.772705,3834.532715 
	C3014.192139,3826.925049 3031.887451,3817.581299 3050.059814,3809.352295 
	C3059.738037,3804.969482 3069.457520,3800.265625 3079.645264,3797.500732 
	C3103.993896,3790.892822 3123.343018,3801.729248 3131.697266,3825.386963 
	C3137.636719,3842.207031 3137.891602,3859.600098 3134.980957,3876.737549 
	C3132.191650,3893.159912 3126.429199,3908.879639 3117.502686,3923.231445 
	C3104.064209,3944.836670 3088.621826,3964.696777 3068.434570,3980.510254 
	C3067.387695,3981.329834 3066.511230,3982.371582 3065.443848,3983.158691 
	C3052.006592,3993.071533 3048.320801,4006.109131 3052.595703,4021.961670 
	C3054.500732,4029.027100 3055.817383,4036.252441 3057.371338,4043.411621 
	C3063.031250,4069.483154 3056.598633,4092.128662 3038.160645,4111.410645 
	C3032.179443,4117.666016 3026.268555,4123.991211 3020.435547,4130.385254 
	C3009.251221,4142.644531 3006.532959,4157.104004 3008.985107,4173.145508 
	C3010.388672,4182.327637 3011.247803,4191.628418 3011.740234,4200.907715 
	C3013.440918,4232.951172 2998.309082,4256.723633 2974.800781,4276.746582 
	C2955.223877,4293.420898 2932.616943,4304.617188 2909.343018,4314.607422 
	C2890.142578,4322.849609 2873.463867,4334.583008 2857.634033,4347.966797 
	C2841.889404,4361.278809 2826.213379,4374.787109 2809.506836,4386.820312 
	C2780.745361,4407.538086 2748.128418,4416.189941 2713.100586,4410.205566 
	C2692.838867,4406.744629 2673.302246,4399.508301 2655.308594,4388.759766 
	C2638.034424,4378.439941 2622.865479,4365.472168 2608.136719,4352.024902 
	C2597.546143,4342.354980 2585.702393,4335.500000 2572.160400,4331.208008 
	C2563.905273,4328.591309 2555.675781,4325.878906 2547.509277,4322.998535 
	C2497.197754,4305.253906 2467.039307,4268.436523 2450.099854,4219.382324 
	C2447.732666,4212.527832 2446.597900,4205.178223 2445.510498,4197.965332 
	C2442.649902,4178.988770 2430.933594,4165.535156 2417.919434,4152.875977 
	C2414.112793,4149.172852 2409.868408,4145.918945 2405.808838,4142.477051 
	C2380.822021,4121.294434 2369.861816,4093.519775 2368.503662,4061.566650 
	C2367.825439,4045.614502 2367.633545,4029.579346 2368.459961,4013.645996 
	C2369.087158,4001.549316 2366.380859,3991.419678 2357.986816,3982.605957 
	C2352.027344,3976.348633 2347.097900,3969.057617 2340.841064,3963.146973 
	C2321.179688,3944.574463 2310.386475,3921.403809 2304.935547,3895.477295 
	C2300.950195,3876.519531 2297.935059,3857.410889 2303.832031,3838.187256 
	C2304.608887,3835.654785 2304.744385,3832.908447 2305.654297,3830.436768 
	C2315.606934,3803.396484 2332.457764,3791.303223 2367.273193,3797.316162 
	C2378.263672,3799.214111 2389.181641,3803.402100 2399.272705,3808.310547 
	C2441.427734,3828.814941 2486.068359,3842.078125 2531.206787,3853.527832 
	C2560.176758,3860.876221 2589.811523,3865.604980 2620.900635,3871.665771 
z"/>
</svg>