<svg width="81" height="31" viewBox="0 0 81 31" fill="none" xmlns="http://www.w3.org/2000/svg">
<rect x="0.0996094" y="0.699219" width="80.8" height="29.6" rx="12" fill="#0085FF"/>
<path d="M37.5615 13.844H39.9375V15.131H37.5615V22.9355H35.994V8.1185H37.5615V13.844ZM33.585 10.808H28.239V17.9525C29.548 17.947 30.6975 17.9085 31.6875 17.837C32.683 17.7655 33.684 17.639 34.6905 17.4575L34.8885 18.7775C33.871 18.959 32.87 19.0855 31.8855 19.157C30.9065 19.223 29.7735 19.256 28.4865 19.256H27.8595H26.6715V9.5375H33.585V10.808ZM47.379 8.432C48.457 8.432 49.392 8.54475 50.184 8.77025C50.9815 8.99575 51.592 9.323 52.0155 9.752C52.4445 10.1755 52.659 10.6815 52.659 11.27C52.659 11.8475 52.4445 12.3452 52.0155 12.7632C51.592 13.1812 50.9815 13.503 50.184 13.7285C49.392 13.9485 48.457 14.0585 47.379 14.0585C46.3065 14.0585 45.3715 13.9485 44.574 13.7285C43.782 13.503 43.1715 13.1812 42.7425 12.7632C42.3135 12.3452 42.099 11.8475 42.099 11.27C42.099 10.6815 42.3135 10.1755 42.7425 9.752C43.1715 9.323 43.782 8.99575 44.574 8.77025C45.3715 8.54475 46.3065 8.432 47.379 8.432ZM47.379 9.6695C46.62 9.6695 45.9655 9.73275 45.4155 9.85925C44.8655 9.98025 44.442 10.1617 44.145 10.4037C43.8535 10.6457 43.7105 10.9345 43.716 11.27C43.7105 11.7595 44.0323 12.1417 44.6813 12.4167C45.3303 12.6862 46.2295 12.8265 47.379 12.8375C48.523 12.8265 49.4195 12.6862 50.0685 12.4167C50.7175 12.1417 51.042 11.7595 51.042 11.27C51.042 10.9345 50.8935 10.6457 50.5965 10.4037C50.305 10.1617 49.8843 9.98025 49.3343 9.85925C48.7843 9.73275 48.1325 9.6695 47.379 9.6695ZM52.4775 22.721H42.264V17.7875H52.4775V22.721ZM43.815 21.4505H50.9595V19.0415H43.815V21.4505ZM54.1275 16.4675H40.647V15.197H54.1275V16.4675Z" fill="white"/>
</svg>
