<svg width="34" height="34" viewBox="0 0 34 34" fill="none" xmlns="http://www.w3.org/2000/svg">
<g filter="url(#filter0_dd_1350_4)">
<rect x="5" y="5" width="24" height="24" rx="12" fill="white" shape-rendering="crispEdges"/>
<rect x="5.05" y="5.05" width="23.9" height="23.9" rx="11.95" stroke="#ABABAB" stroke-width="0.1" shape-rendering="crispEdges"/>
<path d="M21.096 20.368C21.096 20.9791 20.8533 21.5651 20.4212 21.9972C19.9891 22.4293 19.4031 22.672 18.792 22.672C17.8056 22.672 16.8516 22.029 16.524 21.1442C16.4742 21.0017 16.4822 20.8454 16.5464 20.7088C16.6107 20.5722 16.726 20.4663 16.8675 20.4138C17.009 20.3614 17.1655 20.3666 17.3032 20.4283C17.4409 20.49 17.549 20.6033 17.604 20.7438C17.7653 21.1794 18.288 21.52 18.792 21.52C19.0975 21.52 19.3905 21.3986 19.6066 21.1826C19.8226 20.9665 19.944 20.6735 19.944 20.368C19.944 20.0625 19.8226 19.7695 19.6066 19.5534C19.3905 19.3374 19.0975 19.216 18.792 19.216H10.728C10.5752 19.216 10.4287 19.1553 10.3207 19.0473C10.2127 18.9393 10.152 18.7928 10.152 18.64C10.152 18.4872 10.2127 18.3407 10.3207 18.2327C10.4287 18.1247 10.5752 18.064 10.728 18.064H18.792C19.4031 18.064 19.9891 18.3067 20.4212 18.7388C20.8533 19.1709 21.096 19.7569 21.096 20.368ZM16.488 14.608C17.0991 14.608 17.6851 14.3653 18.1172 13.9332C18.5493 13.5011 18.792 12.9151 18.792 12.304C18.792 11.6929 18.5493 11.1069 18.1172 10.6748C17.6851 10.2427 17.0991 10 16.488 10C15.5016 10 14.5476 10.643 14.22 11.5278C14.1702 11.6703 14.1782 11.8266 14.2424 11.9632C14.3067 12.0998 14.422 12.2057 14.5635 12.2582C14.705 12.3106 14.8615 12.3054 14.9992 12.2437C15.1369 12.182 15.245 12.0687 15.3 11.9282C15.4613 11.4926 15.984 11.152 16.488 11.152C16.7935 11.152 17.0865 11.2734 17.3026 11.4894C17.5186 11.7055 17.64 11.9985 17.64 12.304C17.64 12.6095 17.5186 12.9025 17.3026 13.1186C17.0865 13.3346 16.7935 13.456 16.488 13.456H9.576C9.42324 13.456 9.27673 13.5167 9.16871 13.6247C9.06069 13.7327 9 13.8792 9 14.032C9 14.1848 9.06069 14.3313 9.16871 14.4393C9.27673 14.5473 9.42324 14.608 9.576 14.608H16.488ZM22.824 12.304C21.8376 12.304 20.8836 12.947 20.556 13.8318C20.5062 13.9743 20.5142 14.1306 20.5784 14.2672C20.6427 14.4038 20.758 14.5097 20.8995 14.5622C21.041 14.6146 21.1975 14.6094 21.3352 14.5477C21.4729 14.486 21.581 14.3727 21.636 14.2322C21.7973 13.7966 22.32 13.456 22.824 13.456C23.1295 13.456 23.4225 13.5774 23.6386 13.7934C23.8546 14.0095 23.976 14.3025 23.976 14.608C23.976 14.9135 23.8546 15.2065 23.6386 15.4226C23.4225 15.6386 23.1295 15.76 22.824 15.76H10.152C9.99924 15.76 9.85273 15.8207 9.74471 15.9287C9.63669 16.0367 9.576 16.1832 9.576 16.336C9.576 16.4888 9.63669 16.6353 9.74471 16.7433C9.85273 16.8513 9.99924 16.912 10.152 16.912H22.824C23.4351 16.912 24.0211 16.6693 24.4532 16.2372C24.8853 15.8051 25.128 15.2191 25.128 14.608C25.128 13.9969 24.8853 13.4109 24.4532 12.9788C24.0211 12.5467 23.4351 12.304 22.824 12.304Z" fill="#72A6FC"/>
</g>
<defs>
<filter id="filter0_dd_1350_4" x="0" y="0" width="34" height="34" filterUnits="userSpaceOnUse" color-interpolation-filters="sRGB">
<feFlood flood-opacity="0" result="BackgroundImageFix"/>
<feColorMatrix in="SourceAlpha" type="matrix" values="0 0 0 0 0 0 0 0 0 0 0 0 0 0 0 0 0 0 127 0" result="hardAlpha"/>
<feOffset dx="1" dy="1"/>
<feGaussianBlur stdDeviation="2"/>
<feComposite in2="hardAlpha" operator="out"/>
<feColorMatrix type="matrix" values="0 0 0 0 0 0 0 0 0 0 0 0 0 0 0 0 0 0 0.05 0"/>
<feBlend mode="normal" in2="BackgroundImageFix" result="effect1_dropShadow_1350_4"/>
<feColorMatrix in="SourceAlpha" type="matrix" values="0 0 0 0 0 0 0 0 0 0 0 0 0 0 0 0 0 0 127 0" result="hardAlpha"/>
<feOffset dx="-1" dy="-1"/>
<feGaussianBlur stdDeviation="2"/>
<feComposite in2="hardAlpha" operator="out"/>
<feColorMatrix type="matrix" values="0 0 0 0 0 0 0 0 0 0 0 0 0 0 0 0 0 0 0.05 0"/>
<feBlend mode="normal" in2="effect1_dropShadow_1350_4" result="effect2_dropShadow_1350_4"/>
<feBlend mode="normal" in="SourceGraphic" in2="effect2_dropShadow_1350_4" result="shape"/>
</filter>
</defs>
</svg>
