<svg width="29" height="30" viewBox="0 0 29 30" fill="none" xmlns="http://www.w3.org/2000/svg">
<path fill-rule="evenodd" clip-rule="evenodd" d="M16.961 0.820442C16.4282 0.601562 15.7514 0.601563 14.3992 0.601563C13.047 0.601563 12.3717 0.601562 11.8374 0.820442C11.1282 1.11163 10.5636 1.67258 10.2678 2.37996C10.1325 2.70108 10.0806 3.07692 10.059 3.62268C10.0494 4.01811 9.93914 4.40456 9.73857 4.74548C9.538 5.0864 9.25378 5.37053 8.9128 5.571C8.5654 5.76411 8.17487 5.86641 7.7774 5.86843C7.37994 5.87044 6.98839 5.7721 6.63904 5.58252C6.15232 5.3262 5.79952 5.18508 5.45104 5.139C4.68864 5.0389 3.91755 5.24383 3.30544 5.70924C2.84752 6.05772 2.50912 6.63948 1.83376 7.80156C1.15696 8.96364 0.820004 9.54396 0.743684 10.1128C0.642884 10.8702 0.850244 11.6363 1.31968 12.2425C1.5328 12.519 1.83376 12.7508 2.29888 13.0417C2.98576 13.4694 3.4264 14.198 3.4264 15.0016C3.4264 15.8051 2.98576 16.5337 2.30032 16.96C1.83376 17.2523 1.5328 17.4841 1.31824 17.7606C1.08652 18.06 0.91644 18.4024 0.817822 18.768C0.719203 19.1335 0.694005 19.515 0.743684 19.8904C0.820004 20.4577 1.15696 21.0395 1.83376 22.2016C2.51056 23.3636 2.84752 23.944 3.30544 24.2939C3.916 24.759 4.68784 24.9635 5.45104 24.8641C5.79952 24.818 6.15232 24.6769 6.63904 24.4206C6.98857 24.2308 7.38038 24.1323 7.77812 24.1343C8.17587 24.1363 8.56666 24.2388 8.91424 24.4321C9.61408 24.8353 10.0288 25.5769 10.059 26.3804C10.0806 26.9276 10.1325 27.302 10.2678 27.6232C10.5616 28.3288 11.1261 28.8904 11.8374 29.1827C12.3702 29.4016 13.047 29.4016 14.3992 29.4016C15.7514 29.4016 16.4282 29.4016 16.961 29.1827C17.6702 28.8915 18.2348 28.3305 18.5306 27.6232C18.6659 27.302 18.7178 26.9276 18.7394 26.3804C18.7682 25.5769 19.1843 24.8339 19.8856 24.4321C20.233 24.239 20.6235 24.1367 21.021 24.1347C21.4185 24.1327 21.81 24.231 22.1594 24.4206C22.6461 24.6769 22.9989 24.818 23.3474 24.8641C24.1106 24.9649 24.8824 24.759 25.493 24.2939C25.9509 23.9454 26.2893 23.3636 26.9646 22.2016C27.6414 21.0395 27.9784 20.4592 28.0547 19.8904C28.1042 19.5149 28.0788 19.1334 27.9799 18.7678C27.881 18.4023 27.7107 18.0599 27.4787 17.7606C27.2656 17.4841 26.9646 17.2523 26.4995 16.9614C25.8126 16.5337 25.372 15.8051 25.372 15.0016C25.372 14.198 25.8126 13.4694 26.4981 13.0432C26.9646 12.7508 27.2656 12.519 27.4802 12.2425C27.7119 11.9431 27.882 11.6007 27.9806 11.2351C28.0792 10.8696 28.1044 10.4881 28.0547 10.1128C27.9784 9.5454 27.6414 8.96364 26.9646 7.80156C26.2878 6.63948 25.9509 6.05916 25.493 5.70924C24.8809 5.24383 24.1098 5.0389 23.3474 5.139C22.9989 5.18508 22.6461 5.3262 22.1594 5.58252C21.8098 5.77236 21.418 5.87083 21.0203 5.86882C20.6225 5.86681 20.2317 5.76437 19.8842 5.571C19.5435 5.37035 19.2595 5.08615 19.0592 4.74524C18.8589 4.40433 18.7488 4.01797 18.7394 3.62268C18.7178 3.07548 18.6659 2.70108 18.5306 2.37996C18.3842 2.02966 18.1702 1.71163 17.9009 1.44405C17.6316 1.17646 17.3122 0.964554 16.961 0.820442ZM14.3992 19.3216C16.804 19.3216 18.7523 17.3876 18.7523 15.0016C18.7523 12.6155 16.8026 10.6816 14.3992 10.6816C11.9944 10.6816 10.0461 12.6155 10.0461 15.0016C10.0461 17.3876 11.9958 19.3216 14.3992 19.3216Z" fill="black"/>
</svg>
