<svg width="15" height="16" viewBox="0 0 15 16" fill="none" xmlns="http://www.w3.org/2000/svg">
<path fill-rule="evenodd" clip-rule="evenodd" d="M8.66563 0.992911C8.40238 0.884766 8.06799 0.884766 7.39991 0.884766C6.73183 0.884766 6.39815 0.884766 6.13419 0.992911C5.78375 1.13678 5.5048 1.41394 5.35867 1.76344C5.29179 1.9221 5.26618 2.1078 5.25551 2.37745C5.25076 2.57283 5.19627 2.76376 5.09717 2.93221C4.99807 3.10065 4.85764 3.24103 4.68917 3.34008C4.51752 3.43549 4.32457 3.48604 4.12819 3.48703C3.93181 3.48803 3.73835 3.43944 3.56574 3.34577C3.32526 3.21913 3.15095 3.14941 2.97877 3.12664C2.60208 3.07718 2.2211 3.17843 1.91867 3.40839C1.69242 3.58056 1.52522 3.868 1.19153 4.44217C0.857139 5.01633 0.690653 5.30306 0.652945 5.58409C0.603141 5.95833 0.705594 6.33684 0.937537 6.63637C1.04284 6.77297 1.19154 6.88752 1.42134 7.03124C1.76072 7.24255 1.97843 7.60256 1.97843 7.99957C1.97843 8.39657 1.76072 8.75658 1.42205 8.96718C1.19154 9.11161 1.04284 9.22616 0.936825 9.36276C0.822336 9.51071 0.7383 9.67988 0.689575 9.86049C0.640849 10.0411 0.628399 10.2296 0.652945 10.415C0.690653 10.6954 0.857139 10.9828 1.19153 11.557C1.52593 12.1311 1.69242 12.4179 1.91867 12.5907C2.22034 12.8206 2.60169 12.9216 2.97877 12.8725C3.15095 12.8497 3.32526 12.78 3.56574 12.6534C3.73844 12.5596 3.93203 12.5109 4.12854 12.5119C4.32506 12.5129 4.51815 12.5635 4.68988 12.659C5.03566 12.8583 5.24057 13.2247 5.25551 13.6217C5.26618 13.892 5.29179 14.077 5.35867 14.2357C5.50382 14.5843 5.78272 14.8618 6.13419 15.0062C6.39743 15.1144 6.73183 15.1144 7.39991 15.1144C8.06799 15.1144 8.40238 15.1144 8.66563 15.0062C9.01607 14.8624 9.29502 14.5852 9.44115 14.2357C9.50803 14.077 9.53364 13.892 9.54431 13.6217C9.55854 13.2247 9.76416 12.8576 10.1106 12.659C10.2823 12.5636 10.4753 12.5131 10.6716 12.5121C10.868 12.5111 11.0615 12.5597 11.2341 12.6534C11.4746 12.78 11.6489 12.8497 11.821 12.8725C12.1981 12.9223 12.5795 12.8206 12.8812 12.5907C13.1074 12.4186 13.2746 12.1311 13.6083 11.557C13.9427 10.9828 14.1092 10.6961 14.1469 10.415C14.1713 10.2295 14.1588 10.041 14.1099 9.86041C14.0611 9.6798 13.9769 9.51065 13.8623 9.36276C13.757 9.22616 13.6083 9.11161 13.3785 8.96789C13.0391 8.75658 12.8214 8.39657 12.8214 7.99957C12.8214 7.60256 13.0391 7.24255 13.3778 7.03195C13.6083 6.88752 13.757 6.77297 13.863 6.63637C13.9775 6.48842 14.0615 6.31926 14.1102 6.13864C14.159 5.95803 14.1714 5.76954 14.1469 5.58409C14.1092 5.30377 13.9427 5.01633 13.6083 4.44217C13.2739 3.868 13.1074 3.58127 12.8812 3.40839C12.5787 3.17843 12.1977 3.07718 11.821 3.12664C11.6489 3.14941 11.4746 3.21913 11.2341 3.34577C11.0614 3.43957 10.8678 3.48823 10.6713 3.48723C10.4748 3.48624 10.2817 3.43562 10.1099 3.34008C9.9416 3.24095 9.80131 3.10052 9.70234 2.93209C9.60337 2.76365 9.54898 2.57276 9.54431 2.37745C9.53364 2.10709 9.50803 1.9221 9.44115 1.76344C9.36883 1.59037 9.26311 1.43323 9.13005 1.30102C8.99698 1.16881 8.83917 1.06411 8.66563 0.992911ZM7.39991 10.134C8.58808 10.134 9.55071 9.17849 9.55071 7.99957C9.55071 6.82064 8.58737 5.86513 7.39991 5.86513C6.21174 5.86513 5.24911 6.82064 5.24911 7.99957C5.24911 9.17849 6.21245 10.134 7.39991 10.134Z" fill="#3C3C3C"/>
</svg>
