<svg width="12" height="13" viewBox="0 0 12 13" fill="none" xmlns="http://www.w3.org/2000/svg">
<path fill-rule="evenodd" clip-rule="evenodd" d="M6.79263 0.641981C6.57063 0.550781 6.28863 0.550781 5.72523 0.550781C5.16183 0.550781 4.88043 0.550781 4.65783 0.641981C4.3623 0.763308 4.12706 0.99704 4.00383 1.29178C3.94743 1.42558 3.92583 1.58218 3.91683 1.80958C3.91283 1.97434 3.86687 2.13536 3.7833 2.27741C3.69973 2.41946 3.5813 2.53785 3.43923 2.62138C3.29448 2.70184 3.13176 2.74447 2.96614 2.74531C2.80053 2.74615 2.63739 2.70517 2.49183 2.62618C2.28903 2.51938 2.14203 2.46058 1.99683 2.44138C1.67916 2.39967 1.35787 2.48506 1.10283 2.67898C0.912029 2.82418 0.771029 3.06658 0.489629 3.55078C0.207629 4.03498 0.067229 4.27678 0.035429 4.51378C-0.00657102 4.82938 0.079829 5.14858 0.275429 5.40118C0.364229 5.51638 0.489629 5.61298 0.683429 5.73418C0.969629 5.91238 1.15323 6.21598 1.15323 6.55078C1.15323 6.88558 0.969629 7.18918 0.684029 7.36678C0.489629 7.48858 0.364229 7.58518 0.274829 7.70038C0.178279 7.82515 0.107411 7.96781 0.0663196 8.12012C0.0252286 8.27244 0.0147295 8.43139 0.035429 8.58778C0.067229 8.82418 0.207629 9.06658 0.489629 9.55078C0.771629 10.035 0.912029 10.2768 1.10283 10.4226C1.35723 10.6164 1.67883 10.7016 1.99683 10.6602C2.14203 10.641 2.28903 10.5822 2.49183 10.4754C2.63746 10.3963 2.80072 10.3553 2.96645 10.3561C3.13217 10.3569 3.295 10.3996 3.43983 10.4802C3.73143 10.6482 3.90423 10.9572 3.91683 11.292C3.92583 11.52 3.94743 11.676 4.00383 11.8098C4.12623 12.1038 4.36143 12.3378 4.65783 12.4596C4.87983 12.5508 5.16183 12.5508 5.72523 12.5508C6.28863 12.5508 6.57063 12.5508 6.79263 12.4596C7.08816 12.3383 7.3234 12.1045 7.44663 11.8098C7.50303 11.676 7.52463 11.52 7.53363 11.292C7.54563 10.9572 7.71903 10.6476 8.01123 10.4802C8.15598 10.3997 8.3187 10.3571 8.48431 10.3563C8.64992 10.3554 8.81307 10.3964 8.95863 10.4754C9.16143 10.5822 9.30843 10.641 9.45363 10.6602C9.77163 10.7022 10.0932 10.6164 10.3476 10.4226C10.5384 10.2774 10.6794 10.035 10.9608 9.55078C11.2428 9.06658 11.3832 8.82478 11.415 8.58778C11.4356 8.43135 11.425 8.27237 11.3839 8.12006C11.3427 7.96774 11.2717 7.8251 11.175 7.70038C11.0862 7.58518 10.9608 7.48858 10.767 7.36738C10.4808 7.18918 10.2972 6.88558 10.2972 6.55078C10.2972 6.21598 10.4808 5.91238 10.7664 5.73478C10.9608 5.61298 11.0862 5.51638 11.1756 5.40118C11.2722 5.27642 11.343 5.13375 11.3841 4.98144C11.4252 4.82913 11.4357 4.67018 11.415 4.51378C11.3832 4.27738 11.2428 4.03498 10.9608 3.55078C10.6788 3.06658 10.5384 2.82478 10.3476 2.67898C10.0926 2.48506 9.7713 2.39967 9.45363 2.44138C9.30843 2.46058 9.16143 2.51938 8.95863 2.62618C8.81299 2.70528 8.64974 2.74631 8.48401 2.74547C8.31829 2.74463 8.15546 2.70195 8.01063 2.62138C7.86867 2.53778 7.75036 2.41936 7.6669 2.27731C7.58344 2.13527 7.53757 1.97429 7.53363 1.80958C7.52463 1.58158 7.50303 1.42558 7.44663 1.29178C7.38564 1.14582 7.29649 1.01331 7.18428 0.901816C7.07206 0.790321 6.93898 0.702028 6.79263 0.641981ZM5.72523 8.35078C6.72723 8.35078 7.53903 7.54498 7.53903 6.55078C7.53903 5.55658 6.72663 4.75078 5.72523 4.75078C4.72323 4.75078 3.91143 5.55658 3.91143 6.55078C3.91143 7.54498 4.72383 8.35078 5.72523 8.35078Z" fill="#707070"/>
</svg>
