<svg width="11" height="3" viewBox="0 0 11 3" fill="none" xmlns="http://www.w3.org/2000/svg">
<path d="M0.734375 1.8C0.734375 1.95467 0.795819 2.10301 0.90519 2.21238C1.01456 2.32175 1.1629 2.3832 1.31757 2.3832C1.47225 2.3832 1.62059 2.32175 1.72996 2.21238C1.83933 2.10301 1.90077 1.95467 1.90077 1.8C1.90077 1.64532 1.83933 1.49698 1.72996 1.38761C1.62059 1.27824 1.47225 1.2168 1.31757 1.2168C1.1629 1.2168 1.01456 1.27824 0.90519 1.38761C0.795819 1.49698 0.734375 1.64532 0.734375 1.8ZM4.81677 1.8C4.81677 1.95467 4.87822 2.10301 4.98759 2.21238C5.09696 2.32175 5.2453 2.3832 5.39997 2.3832C5.55465 2.3832 5.70299 2.32175 5.81236 2.21238C5.92173 2.10301 5.98317 1.95467 5.98317 1.8C5.98317 1.64532 5.92173 1.49698 5.81236 1.38761C5.70299 1.27824 5.55465 1.2168 5.39997 1.2168C5.2453 1.2168 5.09696 1.27824 4.98759 1.38761C4.87822 1.49698 4.81677 1.64532 4.81677 1.8ZM8.89917 1.8C8.89917 1.95467 8.96062 2.10301 9.06999 2.21238C9.17936 2.32175 9.3277 2.3832 9.48237 2.3832C9.63705 2.3832 9.78539 2.32175 9.89476 2.21238C10.0041 2.10301 10.0656 1.95467 10.0656 1.8C10.0656 1.64532 10.0041 1.49698 9.89476 1.38761C9.78539 1.27824 9.63705 1.2168 9.48237 1.2168C9.3277 1.2168 9.17936 1.27824 9.06999 1.38761C8.96062 1.49698 8.89917 1.64532 8.89917 1.8Z" stroke="#3D3D3D" stroke-width="1.1664" stroke-linecap="round" stroke-linejoin="round"/>
</svg>
