<svg width="20" height="22" viewBox="0 0 20 22" fill="none" xmlns="http://www.w3.org/2000/svg">
<path d="M16.5 22C15.5833 22 14.8042 21.6792 14.1625 21.0375C13.5208 20.3958 13.2 19.6167 13.2 18.7C13.2 18.5717 13.2092 18.4386 13.2275 18.3007C13.2458 18.1628 13.2733 18.0393 13.31 17.93L5.555 13.42C5.24333 13.695 4.895 13.9106 4.51 14.0668C4.125 14.223 3.72167 14.3007 3.3 14.3C2.38333 14.3 1.60417 13.9792 0.9625 13.3375C0.320833 12.6958 0 11.9167 0 11C0 10.0833 0.320833 9.30417 0.9625 8.6625C1.60417 8.02083 2.38333 7.7 3.3 7.7C3.72167 7.7 4.125 7.7781 4.51 7.9343C4.895 8.0905 5.24333 8.30573 5.555 8.58L13.31 4.07C13.2733 3.96 13.2458 3.83643 13.2275 3.6993C13.2092 3.56217 13.2 3.42907 13.2 3.3C13.2 2.38333 13.5208 1.60417 14.1625 0.9625C14.8042 0.320833 15.5833 0 16.5 0C17.4167 0 18.1958 0.320833 18.8375 0.9625C19.4792 1.60417 19.8 2.38333 19.8 3.3C19.8 4.21667 19.4792 4.99583 18.8375 5.6375C18.1958 6.27917 17.4167 6.6 16.5 6.6C16.0783 6.6 15.675 6.52227 15.29 6.3668C14.905 6.21133 14.5567 5.99573 14.245 5.72L6.49 10.23C6.52667 10.34 6.55417 10.4639 6.5725 10.6018C6.59083 10.7397 6.6 10.8724 6.6 11C6.6 11.1276 6.59083 11.2607 6.5725 11.3993C6.55417 11.5379 6.52667 11.6615 6.49 11.77L14.245 16.28C14.5567 16.005 14.905 15.7898 15.29 15.6343C15.675 15.4788 16.0783 15.4007 16.5 15.4C17.4167 15.4 18.1958 15.7208 18.8375 16.3625C19.4792 17.0042 19.8 17.7833 19.8 18.7C19.8 19.6167 19.4792 20.3958 18.8375 21.0375C18.1958 21.6792 17.4167 22 16.5 22Z" fill="#707070"/>
</svg>
