<svg width="12" height="26" viewBox="0 0 12 26" fill="none" xmlns="http://www.w3.org/2000/svg">
<rect x="0.25" y="0.25" width="11.5" height="25.5" rx="4.75" fill="white"/>
<rect x="0.25" y="0.25" width="11.5" height="25.5" rx="4.75" stroke="#B6B6B6" stroke-width="0.5"/>
<path d="M8.94306 17.4046C9.20674 17.6683 9.20664 18.0958 8.94284 18.3594V18.3594C8.67925 18.6227 8.25213 18.6226 7.98861 18.3592L3.26456 13.6368C3.18072 13.5535 3.11418 13.4544 3.06878 13.3453C3.02337 13.2362 3 13.1191 3 13.0009C3 12.8827 3.02337 12.7657 3.06878 12.6566C3.11418 12.5475 3.18072 12.4484 3.26456 12.3651L7.98865 7.64017C8.25209 7.37669 8.67924 7.37667 8.9427 7.64013V7.64013C9.20612 7.90355 9.20614 8.33064 8.94274 8.59409L5.17433 12.3632C4.82292 12.7147 4.82294 13.2845 5.17439 13.6359L8.94306 17.4046Z" fill="#5D5D5D"/>
</svg>
