<svg width="12" height="7" viewBox="0 0 12 7" fill="none" xmlns="http://www.w3.org/2000/svg">
<path d="M10.6153 0.752249C10.8789 0.488575 11.3065 0.488675 11.57 0.752474C11.8334 1.01606 11.8333 1.44319 11.5699 1.7067L6.84745 6.43076C6.76414 6.5146 6.66507 6.58113 6.55594 6.62654C6.44682 6.67194 6.32979 6.69531 6.2116 6.69531C6.0934 6.69531 5.97638 6.67194 5.86725 6.62654C5.75813 6.58113 5.65906 6.5146 5.57575 6.43076L0.850832 1.70666C0.587352 1.44322 0.587335 1.01607 0.850791 0.752614C1.11421 0.489192 1.5413 0.489172 1.80475 0.752571L5.57385 4.52098C5.92533 4.8724 6.49514 4.87237 6.84659 4.52092L10.6153 0.752249Z" fill="#3D3D3D"/>
</svg>
