<svg width="7" height="12" viewBox="0 0 7 12" fill="none" xmlns="http://www.w3.org/2000/svg">
<path d="M6.44306 10.2415C6.70674 10.5052 6.70664 10.9327 6.44284 11.1963C6.17925 11.4596 5.75213 11.4595 5.48861 11.1961L0.764555 6.4737C0.680716 6.39039 0.61418 6.29132 0.568777 6.1822C0.523374 6.07307 0.5 5.95604 0.5 5.83785C0.5 5.71966 0.523374 5.60263 0.568777 5.4935C0.61418 5.38438 0.680716 5.28531 0.764555 5.202L5.48865 0.477083C5.75209 0.213604 6.17924 0.213586 6.4427 0.477043C6.70612 0.740466 6.70614 1.16755 6.44274 1.431L2.67433 5.2001C2.32292 5.55159 2.32294 6.12139 2.67439 6.47284L6.44306 10.2415Z" fill="#5D5D5D"/>
</svg>
