<svg width="89" height="32" viewBox="0 0 89 32" fill="none" xmlns="http://www.w3.org/2000/svg">
<path d="M82.116 1.29822C83.4169 0.50156 85.0547 0.501904 86.3553 1.29911C88.9382 2.88238 88.9377 6.63523 86.3543 8.21782L49.6858 30.6815C49.0078 31.0993 48.2015 31.4309 47.3134 31.6572C46.4253 31.8835 45.4729 32 44.511 32C43.5491 32 42.5967 31.8835 41.7086 31.6572C40.8204 31.4309 40.0142 31.0993 39.3362 30.6815L2.64699 8.21684C0.0639546 6.63526 0.0638092 2.88293 2.64673 1.30115C3.94616 0.505379 5.58203 0.505312 6.88152 1.30098L42.1312 22.8839C43.5849 23.7741 45.415 23.774 46.8687 22.8837L82.116 1.29822Z" fill="#3D3D3D" fill-opacity="0.27"/>
</svg>
