<svg width="13" height="11" viewBox="0 0 13 11" fill="none" xmlns="http://www.w3.org/2000/svg">
<path d="M12.3133 3.31446C12.3138 2.98258 12.2011 2.69763 11.9737 2.47025C11.7464 2.24294 11.4615 2.13 11.1297 2.13H6.20691L4.97085 0.893934L4.92691 0.85H4.86478L1.67694 0.85L1.67672 0.85C1.34545 0.850481 1.06095 0.963393 0.83371 1.19014C0.606241 1.41712 0.493341 1.70207 0.493341 2.03424L0.493341 8.92576L0.493341 8.92598L11.1297 9.96L11.1295 10.11C11.4618 10.1105 11.7468 9.9978 11.9738 9.77027C12.2007 9.54293 12.3133 9.2581 12.3133 8.9264V3.31446ZM12.3133 3.31446L12.1633 3.31424H12.3133V3.31446ZM5.78207 3.02607L5.82601 3.07H5.88814H11.1297C11.2091 3.07 11.2638 3.09404 11.3066 3.13679C11.3493 3.17954 11.3733 3.23426 11.3733 3.3136V8.9264C11.3733 9.00574 11.3493 9.06046 11.3066 9.10321C11.2638 9.14596 11.2091 9.17 11.1297 9.17H1.67758C1.59764 9.17 1.54277 9.14585 1.50013 9.10321C1.45738 9.06046 1.43334 9.00574 1.43334 8.9264V2.03424C1.43334 1.9543 1.45749 1.89942 1.50013 1.85679C1.54288 1.81404 1.5976 1.79 1.67694 1.79H4.54601L5.78207 3.02607Z" fill="#3D3D3D" stroke="#3D3D3D" stroke-width="0.3"/>
</svg>
