<svg width="28" height="21" viewBox="0 0 28 21" fill="none" xmlns="http://www.w3.org/2000/svg">
<path d="M18.6665 10.4C17.4672 10.4 16.3075 9.85753 15.3999 8.87308C14.5173 7.91285 13.9783 6.63236 13.8832 5.26854C13.7817 3.81372 14.2198 2.47591 15.1164 1.50091C16.0129 0.525909 17.2665 0 18.6665 0C20.0566 0 21.3137 0.535363 22.2073 1.508C23.1097 2.49009 23.549 3.82554 23.4475 5.26795C23.3501 6.63354 22.8116 7.91344 21.9308 8.87249C21.0255 9.85753 19.8664 10.4 18.6665 10.4ZM26.3565 20.8H10.977C10.7298 20.8013 10.4855 20.7452 10.263 20.6359C10.0405 20.5266 9.84577 20.367 9.69372 20.1695C9.53243 19.9553 9.42105 19.707 9.36791 19.4431C9.31477 19.1792 9.32126 18.9065 9.38688 18.6455C9.87805 16.6477 11.0949 14.9908 12.9055 13.8544C14.5126 12.8463 16.5583 12.2909 18.6665 12.2909C20.8161 12.2909 22.8081 12.8227 24.4246 13.8302C26.2393 14.9606 27.4579 16.627 27.9467 18.6491C28.0115 18.9103 28.0173 19.1829 27.9636 19.4467C27.9098 19.7105 27.798 19.9586 27.6364 20.1724C27.4845 20.369 27.2902 20.5278 27.0683 20.6366C26.8465 20.7454 26.603 20.8013 26.3565 20.8ZM7.64156 10.6364C5.58882 10.6364 3.784 8.7029 3.61658 6.32686C3.53375 5.10959 3.90825 3.9839 4.66658 3.15841C5.41674 2.34118 6.4749 1.89091 7.64156 1.89091C8.80822 1.89091 9.85821 2.34354 10.6125 3.1655C11.3766 3.9975 11.75 5.12081 11.6625 6.32804C11.495 8.70349 9.6908 10.6364 7.64156 10.6364ZM11.4717 12.4948C10.4456 11.9866 9.11388 11.7325 7.64214 11.7325C5.92365 11.7325 4.25475 12.1863 2.94225 13.01C1.45418 13.9454 0.453181 15.3075 0.0489334 16.952C-0.010225 17.1885 -0.0158203 17.4355 0.032566 17.6746C0.0809522 17.9136 0.182068 18.1385 0.328349 18.3323C0.467151 18.5128 0.644971 18.6587 0.848135 18.7587C1.0513 18.8587 1.27439 18.9101 1.50026 18.9091H7.97522C8.08451 18.9091 8.19033 18.8702 8.27422 18.7992C8.35812 18.7283 8.41477 18.6298 8.43431 18.5208C8.44072 18.4836 8.44889 18.4464 8.45822 18.4098C8.95289 16.3971 10.112 14.6965 11.8246 13.4568C11.8876 13.4108 11.9383 13.3496 11.972 13.2787C12.0058 13.2079 12.0215 13.1296 12.0179 13.0511C12.0142 12.9725 11.9913 12.8961 11.9511 12.8288C11.911 12.7614 11.8548 12.7053 11.7879 12.6655C11.6963 12.6112 11.5913 12.5539 11.4717 12.4948Z" fill="#3C3C3C"/>
</svg>
