<svg width="7" height="13" viewBox="0 0 7 13" fill="none" xmlns="http://www.w3.org/2000/svg">
<path d="M0.477499 2.0788C0.213825 1.81513 0.213925 1.3876 0.477724 1.12405C0.741315 0.860704 1.16844 0.860768 1.43195 1.12419L6.15601 5.84661C6.23985 5.92992 6.30638 6.02899 6.35179 6.13812C6.39719 6.24724 6.42056 6.36427 6.42056 6.48246C6.42056 6.60066 6.39719 6.71768 6.35179 6.82681C6.30638 6.93593 6.23985 7.035 6.15601 7.11831L1.43191 11.8432C1.16847 12.1067 0.741322 12.1067 0.477865 11.8433C0.214442 11.5798 0.214422 11.1528 0.477821 10.8893L4.24623 7.12021C4.59765 6.76873 4.59762 6.19892 4.24617 5.84748L0.477499 2.0788Z" fill="#3D3D3D"/>
</svg>
