<svg width="88" height="20" viewBox="0 0 88 20" fill="none" xmlns="http://www.w3.org/2000/svg">
<path d="M15 15.28C15 16.792 12.672 19.384 8.472 19.384C3.648 19.384 0.624 16.264 0.624 10.672C0.624 5.08 3.648 1.96 8.472 1.96C12.672 1.96 15 3.88 15 6.016C15 7.288 14.16 8.368 13.008 8.368C10.464 8.368 10.968 3.712 7.728 3.712C5.76 3.712 4.632 5.728 4.632 9.136C4.632 12.064 6.12 16.408 10.344 16.408C12.816 16.408 14.04 14.944 14.664 14.944C14.856 14.944 15 15.04 15 15.28ZM17.2665 7.12C17.2665 4.144 15.7065 3.472 15.7065 2.32C15.7065 1.312 17.0985 0.783998 18.2985 0.783998C20.2905 0.783998 21.0825 1.912 21.0825 4.336V13.072C21.0825 16.216 22.3545 16.84 22.3545 17.92C22.3545 18.352 22.0905 19.024 21.0825 19.024H17.2665C16.2345 19.024 15.9705 18.352 15.9705 17.92C15.9705 16.84 17.2665 16.216 17.2665 13.072V7.12ZM29.3863 6.736C32.2663 6.736 34.4743 7.984 34.4743 9.952C34.4743 13.456 28.8583 13.264 28.8583 15.52C28.8583 16.12 29.3863 16.936 30.8503 16.936C32.8663 16.936 33.8023 15.904 34.3303 15.904C34.5943 15.904 34.6903 16.12 34.6903 16.264C34.6903 17.464 32.3863 19.384 29.3863 19.384C25.5703 19.384 23.1703 16.936 23.1703 13.072C23.1703 9.184 25.5703 6.736 29.3863 6.736ZM29.0263 8.296C27.6823 8.296 26.9863 9.592 26.9863 11.848C26.9863 12.856 27.1543 13.72 27.4423 14.464C28.4983 12.568 30.5623 12.16 30.5623 10.048C30.5623 9.28 30.1303 8.296 29.0263 8.296ZM41.1774 13.072C41.1774 16.216 42.4494 16.84 42.4494 17.92C42.4494 18.352 42.1854 19.024 41.1774 19.024H37.3614C36.3294 19.024 36.0654 18.352 36.0654 17.92C36.0654 16.84 37.3614 16.216 37.3614 13.072C37.3614 10.096 35.8014 9.4 35.8014 8.2C35.8014 7.216 37.1934 6.736 38.3934 6.736C39.9294 6.736 40.7454 7.384 41.0574 8.824C41.9934 7.552 43.3374 6.736 44.7294 6.736C46.9134 6.736 47.9454 8.584 47.9454 9.952C47.9454 11.128 47.4174 11.968 46.4094 11.968C44.2974 11.968 44.9694 8.92 43.6014 8.92C42.3774 8.92 41.1774 10.912 41.1774 13.072ZM48.4253 2.32C48.4253 1.312 49.8173 0.783998 51.0173 0.783998C53.0093 0.783998 53.8013 1.912 53.8013 4.336V10.552L54.8093 10.168C55.7933 9.784 57.0173 9.424 57.0173 8.272C57.0173 7.264 57.7853 6.736 59.1293 6.736C60.4493 6.736 61.2413 7.336 61.2413 8.08C61.2413 8.752 60.8093 9.52 59.6573 10L58.6493 10.384C57.5933 10.84 57.5693 11.44 58.3373 12.808L58.8173 13.648C60.4493 16.6 62.4173 16.36 62.4173 17.44C62.4173 18.448 61.0733 19.384 59.7773 19.384C57.8573 19.384 57.0173 18.28 56.2493 16.84L53.8013 12.328V13.072C53.8013 16.216 55.0733 16.84 55.0733 17.92C55.0733 18.352 54.8093 19.024 53.8013 19.024H49.9853C48.9533 19.024 48.6893 18.352 48.6893 17.92C48.6893 16.84 49.9853 16.216 49.9853 13.072V7.12C49.9853 4.144 48.4253 3.472 48.4253 2.32ZM69.2066 6.736C72.0866 6.736 74.2946 7.984 74.2946 9.952C74.2946 13.456 68.6786 13.264 68.6786 15.52C68.6786 16.12 69.2066 16.936 70.6706 16.936C72.6866 16.936 73.6226 15.904 74.1506 15.904C74.4146 15.904 74.5106 16.12 74.5106 16.264C74.5106 17.464 72.2066 19.384 69.2066 19.384C65.3906 19.384 62.9906 16.936 62.9906 13.072C62.9906 9.184 65.3906 6.736 69.2066 6.736ZM68.8466 8.296C67.5026 8.296 66.8066 9.592 66.8066 11.848C66.8066 12.856 66.9746 13.72 67.2626 14.464C68.3186 12.568 70.3826 12.16 70.3826 10.048C70.3826 9.28 69.9506 8.296 68.8466 8.296ZM80.9978 13.072C80.9978 16.216 82.2698 16.84 82.2698 17.92C82.2698 18.352 82.0058 19.024 80.9978 19.024H77.1818C76.1498 19.024 75.8857 18.352 75.8857 17.92C75.8857 16.84 77.1818 16.216 77.1818 13.072C77.1818 10.096 75.6218 9.4 75.6218 8.2C75.6218 7.216 77.0138 6.736 78.2138 6.736C79.7498 6.736 80.5658 7.384 80.8778 8.824C81.8138 7.552 83.1578 6.736 84.5498 6.736C86.7338 6.736 87.7657 8.584 87.7657 9.952C87.7657 11.128 87.2378 11.968 86.2298 11.968C84.1178 11.968 84.7898 8.92 83.4218 8.92C82.1978 8.92 80.9978 10.912 80.9978 13.072Z" fill="url(#paint0_linear_595_5)"/>
<defs>
<linearGradient id="paint0_linear_595_5" x1="44.5" y1="19.1481" x2="44.5" y2="5.14815" gradientUnits="userSpaceOnUse">
<stop stop-color="#479CF7"/>
<stop offset="1" stop-color="#98ADFF"/>
</linearGradient>
</defs>
</svg>
