<svg width="80" height="80" viewBox="0 0 80 80" fill="none" xmlns="http://www.w3.org/2000/svg">
<rect x="0.5" y="0.5" width="79" height="79" rx="39.5" fill="white"/>
<rect x="0.5" y="0.5" width="79" height="79" rx="39.5" stroke="#CCCCCC"/>
<path d="M69.7249 67.1813C65.0807 58.8283 57.7897 52.9671 49.3179 50.4813C53.4367 48.3021 56.7304 44.7426 58.6678 40.3766C60.6052 36.0107 61.0734 31.0928 59.9969 26.416C58.9204 21.7392 56.3619 17.5761 52.7341 14.5979C49.1063 11.6197 44.6205 10 40 10C35.3795 10 30.8937 11.6197 27.2659 14.5979C23.6381 17.5761 21.0796 21.7392 20.0031 26.416C18.9267 31.0928 19.3948 36.0107 21.3322 40.3766C23.2696 44.7426 26.5633 48.3021 30.6821 50.4813C22.2103 52.964 14.9193 58.8252 10.2751 67.1813C10.1476 67.3901 10.0619 67.6236 10.0234 67.8678C9.98479 68.1119 9.99405 68.3616 10.0506 68.602C10.1072 68.8423 10.2098 69.0682 10.3524 69.2661C10.4951 69.4641 10.6747 69.6299 10.8805 69.7538C11.0863 69.8776 11.314 69.9568 11.55 69.9866C11.786 70.0164 12.0253 69.9963 12.2536 69.9274C12.4819 69.8584 12.6944 69.7421 12.8784 69.5855C13.0624 69.4288 13.2141 69.2351 13.3243 69.0158C18.9673 58.868 28.9373 52.8112 40 52.8112C51.0628 52.8112 61.0327 58.868 66.6757 69.0158C66.7859 69.2351 66.9376 69.4288 67.1216 69.5855C67.3056 69.7421 67.5181 69.8584 67.7464 69.9274C67.9747 69.9963 68.214 70.0164 68.45 69.9866C68.686 69.9568 68.9137 69.8776 69.1195 69.7538C69.3253 69.6299 69.5049 69.4641 69.6476 69.2661C69.7902 69.0682 69.8928 68.8423 69.9494 68.602C70.0059 68.3616 70.0152 68.1119 69.9766 67.8678C69.9381 67.6236 69.8524 67.3901 69.7249 67.1813ZM22.9623 31.4087C22.9623 27.9014 23.9616 24.4728 25.8337 21.5566C27.7058 18.6403 30.3667 16.3674 33.48 15.0252C36.5932 13.683 40.0189 13.3318 43.3239 14.016C46.6289 14.7003 49.6647 16.3892 52.0475 18.8693C54.4302 21.3494 56.0529 24.5092 56.7103 27.9491C57.3677 31.3891 57.0303 34.9547 55.7408 38.195C54.4512 41.4354 52.2675 44.205 49.4656 46.1535C46.6638 48.1021 43.3697 49.1422 40 49.1422C35.483 49.1365 31.1526 47.2663 27.9585 43.9419C24.7645 40.6175 22.9677 36.1102 22.9623 31.4087Z" fill="#CCCCCC"/>
</svg>
