<svg width="377" height="456" viewBox="0 0 377 456" fill="none" xmlns="http://www.w3.org/2000/svg">
<rect width="377" height="456" fill="white"/>
<g clip-path="url(#clip0_1844_652)">
<rect x="15.2539" y="19.5312" width="346.491" height="52.3006" rx="15.2543" fill="white"/>
<path d="M15.2539 34.7856C15.2539 26.3609 22.0835 19.5312 30.5082 19.5312H346.491C354.916 19.5312 361.745 26.3609 361.745 34.7856V56.5775C361.745 65.0022 354.916 71.8318 346.491 71.8318H30.5082C22.0835 71.8318 15.2539 65.0022 15.2539 56.5775V34.7856Z" fill="#D1D1D1" fill-opacity="0.4"/>
<path d="M55.555 52.0574L55.555 52.0569L55.555 37.039C55.555 36.3151 55.801 35.6941 56.2967 35.1995C56.7919 34.7054 57.4119 34.4593 58.1338 34.4583L58.1342 34.4583L65.0812 34.4583H65.2166L65.3123 34.554L68.0059 37.2476H78.7337C79.4568 37.2476 80.0775 37.4938 80.5729 37.9891C81.0683 38.4845 81.3139 39.1053 81.313 39.8283C81.313 39.8285 81.313 39.8286 81.313 39.8288M55.555 52.0574L78.7337 54.3107C79.3762 54.3116 79.9122 54.0969 80.3418 53.6664C80.7713 53.2359 80.9861 52.6998 80.9861 52.0583V39.8283L81.313 39.8288M55.555 52.0574C55.556 52.7816 55.8018 53.4028 56.2964 53.8975C56.7911 54.3922 57.412 54.6376 58.1356 54.6376L78.7332 54.6376L78.7337 54.6376M55.555 52.0574L78.7337 54.6376M81.313 39.8288L81.313 52.0583C81.313 52.7811 81.0675 53.4018 80.5732 53.8973C80.0785 54.393 79.4575 54.6385 78.7337 54.6376M81.313 39.8288L78.7337 54.6376M67.0801 39.2003L67.1759 39.2961H67.3113H78.7337C78.9066 39.2961 79.0259 39.3485 79.119 39.4416C79.2122 39.5348 79.2646 39.654 79.2646 39.8269V52.0583C79.2646 52.2312 79.2122 52.3504 79.119 52.4436C79.0259 52.5368 78.9066 52.5891 78.7337 52.5891H58.1356C57.9614 52.5891 57.8419 52.5365 57.7489 52.4436C57.6558 52.3504 57.6034 52.2312 57.6034 52.0583V37.039C57.6034 36.8648 57.656 36.7452 57.7489 36.6523C57.8421 36.5591 57.9614 36.5067 58.1342 36.5067H64.3865L67.0801 39.2003Z" fill="#3D3D3D" stroke="#3D3D3D" stroke-width="0.653757"/>
<path d="M44.9237 38.6036C45.4983 38.029 46.4299 38.0292 47.0043 38.6041C47.5781 39.1785 47.578 40.1093 47.004 40.6835L36.7129 50.9782C36.5313 51.1609 36.3155 51.3059 36.0777 51.4048C35.8398 51.5038 35.5848 51.5547 35.3273 51.5547C35.0697 51.5547 34.8147 51.5038 34.5769 51.4048C34.3391 51.3059 34.1232 51.1609 33.9416 50.9782L23.6451 40.6835C23.071 40.1094 23.0709 39.1785 23.645 38.6044C24.2191 38.0304 25.1498 38.0303 25.7239 38.6043L33.9375 46.8164C34.7034 47.5822 35.9451 47.5821 36.711 46.8163L44.9237 38.6036Z" fill="#3D3D3D"/>
<path d="M113.542 51.5686V53.3651H91.7153V51.5686H113.542ZM111.451 34.9974V36.7403H107.67V45.0795H111.397V46.7956H93.6996V45.0795H97.4268V36.7403H93.6459V34.9974H111.451ZM99.5183 45.0795H105.605V36.7403H99.5183V45.0795ZM137.273 51.7026V53.4724H115.446V51.7026H125.26V47.1979H118.181V39.8507H132.446V36.0967H118.127V34.3538H134.511V41.5669H120.272V45.4549H135.074V47.1979H127.325V51.7026H137.273ZM154.782 33.1204V46.9565H152.745V40.4943H149.098V38.7514H152.745V33.1204H154.782ZM146.229 37.7056C146.229 40.3066 147.972 43.1221 151.002 44.3824L149.902 45.9912C147.663 45.0527 146.095 43.2696 145.29 41.2183C144.446 43.5377 142.783 45.5354 140.41 46.5811L139.284 44.9186C142.394 43.6047 144.191 40.5479 144.191 37.7056V36.2844H139.74V34.5415H150.439V36.2844H146.229V37.7056ZM159.421 32.5841V47.171H157.41V32.5841H159.421ZM159.421 48.2168V56.422H157.357V49.9329H143.36V48.2168H159.421ZM182.213 45.4817V47.1979H165.723V34.6488H181.945V36.4185H167.868V39.958H181.436V41.6473H167.868V45.4817H182.213ZM184.734 51.5686V53.3115H162.907V51.5686H184.734ZM201.252 34.8365V54.25H198.811V37.357H198.704L193.985 40.4943V38.0542L198.811 34.8365H201.252Z" fill="#3D3D3D"/>
</g>
<rect x="15.2539" y="196.047" width="346.491" height="52.3006" rx="15.2543" fill="white"/>
<path d="M91.7864 228.573L91.7864 228.573L91.7864 213.555C91.7864 212.831 92.0324 212.21 92.5281 211.715C93.0233 211.221 93.6433 210.975 94.3652 210.974L94.3657 210.974L101.313 210.974H101.448L101.544 211.07L104.237 213.763H114.965C115.688 213.763 116.309 214.009 116.804 214.505C117.3 215 117.545 215.621 117.544 216.344C117.544 216.344 117.544 216.344 117.544 216.344M91.7864 228.573L114.965 230.826C115.608 230.827 116.144 230.612 116.573 230.182C117.003 229.751 117.218 229.215 117.218 228.574V216.344L117.544 216.344M91.7864 228.573C91.7874 229.297 92.0332 229.918 92.5279 230.413C93.0226 230.908 93.6435 231.153 94.3671 231.153L114.965 231.153L114.965 231.153M91.7864 228.573L114.965 231.153M117.544 216.344L117.544 228.574C117.544 229.297 117.299 229.917 116.805 230.413C116.31 230.909 115.689 231.154 114.965 231.153M117.544 216.344L114.965 231.153M103.312 215.716L103.407 215.812H103.543H114.965C115.138 215.812 115.257 215.864 115.35 215.957C115.444 216.05 115.496 216.17 115.496 216.343V228.574C115.496 228.747 115.444 228.866 115.35 228.959C115.257 229.052 115.138 229.105 114.965 229.105H94.3671C94.1929 229.105 94.0733 229.052 93.9804 228.959C93.8872 228.866 93.8348 228.747 93.8348 228.574V213.555C93.8348 213.38 93.8875 213.261 93.9804 213.168C94.0735 213.075 94.1928 213.022 94.3657 213.022H100.618L103.312 215.716Z" fill="#3D3D3D" stroke="#3D3D3D" stroke-width="0.653757"/>
<path d="M65.6017 211.475C65.0271 210.9 65.0273 209.968 65.6022 209.394C66.1766 208.82 67.1073 208.82 67.6816 209.394L77.9762 219.686C78.1589 219.867 78.3039 220.083 78.4029 220.321C78.5018 220.559 78.5527 220.814 78.5527 221.071C78.5527 221.329 78.5018 221.584 78.4029 221.822C78.3039 222.059 78.1589 222.275 77.9762 222.457L67.6815 232.753C67.1074 233.327 66.1766 233.328 65.6025 232.753C65.0284 232.179 65.0284 231.249 65.6024 230.675L73.8144 222.461C74.5803 221.695 74.5802 220.453 73.8143 219.687L65.6017 211.475Z" fill="#3D3D3D"/>
<path d="M129.126 230.762V211.348H140.817V213.493H131.539V219.982H139.932V222.101H131.539V230.762H129.126ZM143.954 230.762V216.202H146.179V218.427H146.34C146.877 216.952 148.378 215.96 150.094 215.96C150.443 215.96 151.033 215.987 151.301 216.014V218.347C151.14 218.293 150.497 218.186 149.907 218.186C147.815 218.186 146.26 219.634 146.26 221.591V230.762H143.954ZM159.024 231.057C155.055 231.057 152.374 228.08 152.374 223.549C152.374 219.017 155.055 216.014 159.024 216.014C162.965 216.014 165.62 219.017 165.62 223.549C165.62 228.08 162.965 231.057 159.024 231.057ZM159.024 229.019C161.946 229.019 163.314 226.445 163.314 223.549C163.314 220.653 161.946 218.052 159.024 218.052C156.047 218.052 154.68 220.653 154.68 223.549C154.68 226.445 156.047 229.019 159.024 229.019ZM170.956 222.02V230.762H168.65V216.202H170.875V218.481H171.063C171.76 217.006 173.101 216.014 175.327 216.014C178.276 216.014 180.234 217.81 180.234 221.511V230.762H177.928V221.672C177.928 219.419 176.694 218.079 174.629 218.079C172.511 218.079 170.956 219.5 170.956 222.02ZM190.289 216.202V218.132H187.232V226.579C187.232 228.456 188.144 228.751 189.136 228.751C189.565 228.751 190.155 228.724 190.503 228.697V230.842C190.155 230.896 189.565 230.949 188.895 230.949C186.964 230.949 184.899 229.743 184.899 227.169V218.132H182.7V216.202H184.899V212.716H187.232V216.202H190.289ZM201.068 221.404V223.522H192.568V221.404H201.068ZM210.721 231.057C206.512 231.057 203.911 228.08 203.911 223.602C203.911 219.124 206.538 216.014 210.507 216.014C213.564 216.014 216.781 217.891 216.781 223.281V224.246H206.217C206.324 227.329 208.12 229.019 210.721 229.019C212.464 229.019 213.564 228.268 214.1 227.356H216.567C215.87 229.555 213.725 231.057 210.721 231.057ZM206.243 222.288H214.449C214.449 219.848 212.893 218.052 210.507 218.052C207.986 218.052 206.377 220.036 206.243 222.288ZM222.091 222.02V230.762H219.785V216.202H222.01V218.481H222.198C222.895 217.006 224.236 216.014 226.461 216.014C229.411 216.014 231.368 217.81 231.368 221.511V230.762H229.062V221.672C229.062 219.419 227.829 218.079 225.764 218.079C223.646 218.079 222.091 219.5 222.091 222.02ZM240.566 231.057C236.946 231.057 234.372 228.134 234.372 223.522C234.372 218.91 236.946 216.014 240.592 216.014C243.408 216.014 244.32 217.73 244.802 218.508H244.963V211.348H247.296V230.762H245.044V228.536H244.802C244.293 229.341 243.354 231.057 240.566 231.057ZM240.887 228.992C243.542 228.992 245.044 226.74 245.044 223.468C245.044 220.251 243.596 218.079 240.887 218.079C238.099 218.079 236.704 220.438 236.704 223.468C236.704 226.579 238.126 228.992 240.887 228.992Z" fill="#3D3D3D"/>
<path d="M105.657 93.6314V103.004H109.462V104.664H105.657V116.334H103.665V93.6314H105.657ZM101.469 97.2833V98.9432H87.9596V97.2833H93.8077V93.9123H95.7996V97.2833H101.469ZM94.8292 100.833C98.0469 100.833 100.371 102.978 100.396 106.043C100.371 109.107 98.0469 111.252 94.8292 111.252C91.5859 111.252 89.2365 109.107 89.262 106.043C89.2365 102.978 91.5859 100.833 94.8292 100.833ZM94.8292 102.518C92.7096 102.518 91.1518 104 91.1773 106.043C91.1518 108.111 92.7096 109.567 94.8292 109.541C96.9233 109.567 98.4555 108.111 98.481 106.043C98.4555 104 96.9233 102.518 94.8292 102.518ZM118.17 94.7551C121.567 94.7295 123.993 96.5938 123.993 99.3773C123.993 102.135 121.567 104.051 118.17 104.025C114.774 104.051 112.348 102.135 112.348 99.3773C112.348 96.5938 114.774 94.7295 118.17 94.7551ZM118.17 96.3895C115.898 96.3639 114.289 97.6152 114.314 99.3773C114.289 101.165 115.898 102.391 118.17 102.365C120.469 102.391 122.078 101.165 122.078 99.3773C122.078 97.6152 120.469 96.3639 118.17 96.3895ZM129.407 93.657V116.36H127.44V93.657H129.407ZM110.637 105.966C114.902 105.966 120.724 105.889 125.781 105.149L125.908 106.655C123.738 107.051 121.477 107.294 119.294 107.422V115.645H117.302V107.549C114.991 107.651 112.808 107.664 110.918 107.677L110.637 105.966ZM158.571 94.2443V95.8021H155.072V100.246H158.494V101.778H151.165V104H160.537V105.608H139.852V104H149.173V101.778H141.869V100.246H145.291V95.8021H141.792V94.2443H158.571ZM157.881 107.422V112.299H144.397V114.547H158.571V116.079H142.405V110.844H155.915V108.903H142.354V107.422H157.881ZM147.283 100.246H153.08V95.8021H147.283V100.246ZM174.021 95.8021V97.4876H165.619V109.056C169.705 109.056 172.412 108.916 175.553 108.315L175.808 109.975C172.463 110.614 169.705 110.767 165.338 110.767H163.601V95.8021H174.021ZM181.299 93.6314V116.385H179.281V103.565H172.667V101.906H179.281V93.6314H181.299ZM198.383 98.1515C198.383 100.654 200.145 103.208 203.057 104.306L202.01 105.838C199.826 104.996 198.256 103.374 197.438 101.42C196.596 103.591 194.974 105.519 192.74 106.477L191.641 104.919C194.629 103.617 196.468 100.68 196.468 98.1515V95.0615H198.383V98.1515ZM210.897 93.657V107.677H208.981V101.42H205.968V106.962H204.078V94.0911H205.968V99.7604H208.981V93.657H210.897ZM203.389 108.188C208.088 108.188 211.024 109.669 211.024 112.248C211.024 114.802 208.088 116.283 203.389 116.283C198.664 116.283 195.753 114.802 195.778 112.248C195.753 109.669 198.664 108.188 203.389 108.188ZM203.389 109.72C199.916 109.72 197.745 110.665 197.77 112.248C197.745 113.806 199.916 114.725 203.389 114.725C206.836 114.725 209.007 113.806 209.032 112.248C209.007 110.665 206.836 109.72 203.389 109.72ZM222.031 97.2066C222.005 100.45 224.304 103.31 227.649 104.434L226.526 105.992C224.023 105.047 222.056 103.208 221.086 100.807C220.103 103.527 218.022 105.647 215.289 106.681L214.191 105.047C217.69 103.821 220.013 100.807 220.039 97.2833V94.9338H222.031V97.2066ZM233.038 93.6314V107.09H231.02V100.169H225.964V98.5091H231.02V93.6314H233.038ZM225.504 107.754C230.228 107.754 233.114 109.311 233.114 112.044C233.114 114.751 230.228 116.283 225.504 116.283C220.78 116.283 217.894 114.751 217.894 112.044C217.894 109.311 220.78 107.754 225.504 107.754ZM225.504 109.337C222.031 109.337 219.86 110.358 219.886 112.044C219.86 113.678 222.031 114.674 225.504 114.674C228.977 114.674 231.122 113.678 231.122 112.044C231.122 110.358 228.977 109.337 225.504 109.337Z" fill="#707070"/>
<path d="M78.1473 105.652H70.8626V112.936C70.8626 113.323 70.7091 113.693 70.4359 113.967C70.1626 114.24 69.792 114.393 69.4056 114.393C69.0192 114.393 68.6487 114.24 68.3754 113.967C68.1022 113.693 67.9487 113.323 67.9487 112.936V105.652H60.664C60.2776 105.652 59.907 105.498 59.6338 105.225C59.3605 104.952 59.207 104.581 59.207 104.195C59.207 103.808 59.3605 103.438 59.6338 103.164C59.907 102.891 60.2776 102.738 60.664 102.738H67.9487V95.453C67.9487 95.0666 68.1022 94.6961 68.3754 94.4228C68.6487 94.1496 69.0192 93.9961 69.4056 93.9961C69.792 93.9961 70.1626 94.1496 70.4359 94.4228C70.7091 94.6961 70.8626 95.0666 70.8626 95.453V102.738H78.1473C78.5337 102.738 78.9043 102.891 79.1775 103.164C79.4508 103.438 79.6043 103.808 79.6043 104.195C79.6043 104.581 79.4508 104.952 79.1775 105.225C78.9043 105.498 78.5337 105.652 78.1473 105.652Z" fill="#707070"/>
<g clip-path="url(#clip1_1844_652)">
<g clip-path="url(#clip2_1844_652)">
<path d="M108.882 154.647V177.35H106.89V154.647H108.882ZM90.3927 171.297C92.3336 171.285 94.5553 171.272 96.8537 171.195V168.718C94.134 168.424 92.3591 166.879 92.3847 164.607C92.3591 162.053 94.5553 160.393 97.8241 160.393C101.093 160.393 103.315 162.053 103.315 164.607C103.315 166.854 101.553 168.399 98.8711 168.693V171.119C101.067 171.029 103.289 170.863 105.383 170.582L105.536 172.115C100.48 172.932 94.9129 173.008 90.6992 173.008L90.3927 171.297ZM104.796 157.456V159.091H90.8779V157.456H96.8537V154.673H98.8711V157.456H104.796ZM97.8241 161.951C95.7301 161.951 94.2489 163.023 94.2489 164.607C94.2489 166.19 95.7301 167.211 97.8241 167.186C99.9437 167.211 101.399 166.19 101.399 164.607C101.399 163.023 99.9437 161.951 97.8241 161.951ZM120.297 156.307C123.872 156.307 126.4 158.478 126.4 161.644C126.4 164.811 123.872 166.982 120.297 166.982C116.722 166.982 114.143 164.811 114.168 161.644C114.143 158.478 116.722 156.307 120.297 156.307ZM120.297 158.069C117.871 158.069 116.109 159.525 116.134 161.644C116.109 163.764 117.871 165.22 120.297 165.22C122.698 165.22 124.434 163.764 124.434 161.644C124.434 159.525 122.698 158.069 120.297 158.069ZM131.482 154.647V177.401H129.49V154.647H131.482ZM112.993 170.685C117.181 170.685 122.953 170.659 127.984 169.918L128.137 171.4C122.953 172.37 117.36 172.396 113.274 172.396L112.993 170.685ZM149.384 156.792V175.281H147.06V159.193H146.958L142.463 162.181V159.857L147.06 156.792H149.384ZM162.28 165.041V167.058H154.185V165.041H162.28ZM172.163 156.792V175.281H169.84V159.193H169.737L165.243 162.181V159.857L169.84 156.792H172.163Z" fill="#3D3D3D"/>
<path d="M79.7591 171.201V157.255L72.7857 150.281H62.3256C61.4008 150.281 60.514 150.649 59.8601 151.302C59.2062 151.956 58.8389 152.843 58.8389 153.768V171.201C58.8389 172.126 59.2062 173.013 59.8601 173.667C60.514 174.321 61.4008 174.688 62.3256 174.688H76.2724C77.1971 174.688 78.084 174.321 78.7379 173.667C79.3917 173.013 79.7591 172.126 79.7591 171.201Z" stroke="black" stroke-width="1.74335" stroke-linecap="round" stroke-linejoin="round"/>
</g>
<rect x="276.758" y="137.207" width="84.9884" height="52.3006" fill="url(#paint0_linear_1844_652)"/>
</g>
<g clip-path="url(#clip3_1844_652)">
<rect x="15" y="314" width="346.491" height="52.3006" rx="15.2543" fill="white"/>
<path d="M55.3011 346.526L55.3011 346.526L55.3011 331.508C55.3011 330.784 55.5471 330.163 56.0428 329.668C56.538 329.174 57.158 328.928 57.8799 328.927L57.8803 328.927L64.8273 328.927H64.9627L65.0584 329.023L67.752 331.716H78.4798C79.2029 331.716 79.8236 331.963 80.319 332.458C80.8144 332.953 81.06 333.574 81.0591 334.297C81.0591 334.297 81.0591 334.297 81.0591 334.298M55.3011 346.526L78.4798 348.779C79.1223 348.78 79.6583 348.566 80.0879 348.135C80.5174 347.705 80.7322 347.169 80.7322 346.527V334.297L81.0591 334.298M55.3011 346.526C55.3021 347.25 55.5479 347.872 56.0425 348.366C56.5372 348.861 57.1581 349.106 57.8817 349.106L78.4793 349.106L78.4798 349.106M55.3011 346.526L78.4798 349.106M81.0591 334.298L81.0591 346.527C81.0591 347.25 80.8136 347.871 80.3193 348.366C79.8246 348.862 79.2036 349.107 78.4798 349.106M81.0591 334.298L78.4798 349.106M66.8262 333.669L66.922 333.765H67.0573H78.4798C78.6527 333.765 78.7719 333.817 78.8651 333.91C78.9583 334.004 79.0106 334.123 79.0106 334.296V346.527C79.0106 346.7 78.9583 346.819 78.8651 346.912C78.7719 347.006 78.6527 347.058 78.4798 347.058H57.8817C57.7075 347.058 57.5879 347.005 57.495 346.912C57.4019 346.819 57.3495 346.7 57.3495 346.527V331.508C57.3495 331.334 57.4021 331.214 57.495 331.121C57.5882 331.028 57.7074 330.975 57.8803 330.975H64.1326L66.8262 333.669Z" fill="#3D3D3D" stroke="#3D3D3D" stroke-width="0.653757"/>
<path d="M29.1153 329.428C28.5407 328.853 28.541 327.922 29.1158 327.347C29.6902 326.773 30.621 326.774 31.1953 327.348L41.4899 337.639C41.6726 337.82 41.8176 338.036 41.9165 338.274C42.0155 338.512 42.0664 338.767 42.0664 339.024C42.0664 339.282 42.0155 339.537 41.9165 339.775C41.8176 340.013 41.6726 340.228 41.4899 340.41L31.1952 350.706C30.6211 351.281 29.6903 351.281 29.1161 350.707C28.5421 350.132 28.542 349.202 29.116 348.628L37.3281 340.414C38.0939 339.648 38.0939 338.406 37.328 337.641L29.1153 329.428Z" fill="#3D3D3D"/>
<path d="M113.288 346.037V347.834H91.4614V346.037H113.288ZM111.197 329.466V331.209H107.416V339.548H111.143V341.264H93.4457V339.548H97.1728V331.209H93.392V329.466H111.197ZM99.2644 339.548H105.351V331.209H99.2644V339.548ZM137.019 346.171V347.941H115.192V346.171H125.006V341.667H117.927V334.319H132.192V330.565H117.873V328.823H134.257V336.036H120.019V339.924H134.82V341.667H127.071V346.171H137.019ZM154.529 327.589V341.425H152.491V334.963H148.844V333.22H152.491V327.589H154.529ZM145.975 332.174C145.975 334.775 147.718 337.591 150.748 338.851L149.648 340.46C147.409 339.521 145.841 337.738 145.036 335.687C144.192 338.006 142.529 340.004 140.156 341.05L139.03 339.387C142.14 338.073 143.937 335.017 143.937 332.174V330.753H139.486V329.01H150.185V330.753H145.975V332.174ZM159.167 327.053V341.64H157.156V327.053H159.167ZM159.167 342.686V350.891H157.103V344.402H143.106V342.686H159.167ZM181.96 339.95V341.667H165.469V329.118H181.691V330.887H167.614V334.427H181.182V336.116H167.614V339.95H181.96ZM184.48 346.037V347.78H162.653V346.037H184.48ZM194.133 348.719L194.106 346.949L200.73 339.977C203.036 337.537 204.135 336.223 204.135 334.427C204.135 332.442 202.446 331.129 200.274 331.129C197.968 331.129 196.493 332.603 196.493 334.775H194.214C194.187 331.343 196.841 329.037 200.354 329.037C203.867 329.037 206.387 331.397 206.387 334.427C206.387 336.599 205.368 338.288 201.936 341.827L197.485 346.413V346.574H206.736V348.719H194.133Z" fill="#3D3D3D"/>
</g>
<g clip-path="url(#clip4_1844_652)">
<rect x="15" y="376" width="346.491" height="52.3006" rx="15.2543" fill="white"/>
<path d="M55.3011 408.526L55.3011 408.526L55.3011 393.508C55.3011 392.784 55.5471 392.163 56.0428 391.668C56.538 391.174 57.158 390.928 57.8799 390.927L57.8803 390.927L64.8273 390.927H64.9627L65.0584 391.023L67.752 393.716H78.4798C79.2029 393.716 79.8236 393.963 80.319 394.458C80.8144 394.953 81.06 395.574 81.0591 396.297C81.0591 396.297 81.0591 396.297 81.0591 396.298M55.3011 408.526L78.4798 410.779C79.1223 410.78 79.6583 410.566 80.0879 410.135C80.5174 409.705 80.7322 409.169 80.7322 408.527V396.297L81.0591 396.298M55.3011 408.526C55.3021 409.25 55.5479 409.872 56.0425 410.366C56.5372 410.861 57.1581 411.106 57.8817 411.106L78.4793 411.106L78.4798 411.106M55.3011 408.526L78.4798 411.106M81.0591 396.298L81.0591 408.527C81.0591 409.25 80.8136 409.871 80.3193 410.366C79.8246 410.862 79.2036 411.107 78.4798 411.106M81.0591 396.298L78.4798 411.106M66.8262 395.669L66.922 395.765H67.0573H78.4798C78.6527 395.765 78.7719 395.817 78.8651 395.91C78.9583 396.004 79.0106 396.123 79.0106 396.296V408.527C79.0106 408.7 78.9583 408.819 78.8651 408.912C78.7719 409.006 78.6527 409.058 78.4798 409.058H57.8817C57.7075 409.058 57.5879 409.005 57.495 408.912C57.4019 408.819 57.3495 408.7 57.3495 408.527V393.508C57.3495 393.334 57.4021 393.214 57.495 393.121C57.5882 393.028 57.7074 392.975 57.8803 392.975H64.1326L66.8262 395.669Z" fill="#3D3D3D" stroke="#3D3D3D" stroke-width="0.653757"/>
<path d="M29.1153 391.428C28.5407 390.853 28.541 389.922 29.1158 389.347C29.6902 388.773 30.621 388.774 31.1953 389.348L41.4899 399.639C41.6726 399.82 41.8176 400.036 41.9165 400.274C42.0155 400.512 42.0664 400.767 42.0664 401.024C42.0664 401.282 42.0155 401.537 41.9165 401.775C41.8176 402.013 41.6726 402.228 41.4899 402.41L31.1952 412.706C30.6211 413.281 29.6903 413.281 29.1161 412.707C28.5421 412.132 28.542 411.202 29.116 410.628L37.3281 402.414C38.0939 401.648 38.0939 400.406 37.328 399.641L29.1153 391.428Z" fill="#3D3D3D"/>
<path d="M113.288 408.037V409.834H91.4614V408.037H113.288ZM111.197 391.466V393.209H107.416V401.548H111.143V403.264H93.4457V401.548H97.1728V393.209H93.392V391.466H111.197ZM99.2644 401.548H105.351V393.209H99.2644V401.548ZM137.019 408.171V409.941H115.192V408.171H125.006V403.667H117.927V396.319H132.192V392.565H117.873V390.823H134.257V398.036H120.019V401.924H134.82V403.667H127.071V408.171H137.019ZM154.529 389.589V403.425H152.491V396.963H148.844V395.22H152.491V389.589H154.529ZM145.975 394.174C145.975 396.775 147.718 399.591 150.748 400.851L149.648 402.46C147.409 401.521 145.841 399.738 145.036 397.687C144.192 400.006 142.529 402.004 140.156 403.05L139.03 401.387C142.14 400.073 143.937 397.017 143.937 394.174V392.753H139.486V391.01H150.185V392.753H145.975V394.174ZM159.167 389.053V403.64H157.156V389.053H159.167ZM159.167 404.686V412.891H157.103V406.402H143.106V404.686H159.167ZM181.96 401.95V403.667H165.469V391.118H181.691V392.887H167.614V396.427H181.182V398.116H167.614V401.95H181.96ZM184.48 408.037V409.78H162.653V408.037H184.48ZM200.837 410.987C196.976 410.987 194.214 408.922 194.08 405.839H196.52C196.654 407.689 198.504 408.842 200.81 408.842C203.357 408.842 205.234 407.447 205.234 405.436C205.234 403.318 203.545 401.816 200.515 401.816H198.933V399.698H200.515C202.875 399.698 204.51 398.384 204.51 396.373C204.51 394.442 203.089 393.129 200.89 393.129C198.826 393.129 196.922 394.282 196.815 396.185H194.482C194.616 393.102 197.458 391.037 200.917 391.037C204.618 391.037 206.87 393.45 206.843 396.239C206.87 398.438 205.583 400.073 203.545 400.637V400.771C206.066 401.173 207.621 402.969 207.594 405.436C207.621 408.627 204.698 410.987 200.837 410.987Z" fill="#3D3D3D"/>
</g>
<rect x="15" y="248" width="346.491" height="52.3006" rx="15.2543" fill="white"/>
<path d="M91.5325 280.526L91.5325 280.526L91.5325 265.508C91.5325 264.784 91.7785 264.163 92.2742 263.668C92.7694 263.174 93.3894 262.928 94.1113 262.927L94.1118 262.927L101.059 262.927H101.194L101.29 263.023L103.983 265.716H114.711C115.434 265.716 116.055 265.963 116.55 266.458C117.046 266.953 117.291 267.574 117.291 268.297C117.291 268.297 117.291 268.297 117.291 268.298M91.5325 280.526L114.711 282.779C115.354 282.78 115.89 282.566 116.319 282.135C116.749 281.705 116.964 281.169 116.964 280.527V268.297L117.291 268.298M91.5325 280.526C91.5335 281.25 91.7793 281.872 92.274 282.366C92.7687 282.861 93.3896 283.106 94.1132 283.106L114.711 283.106L114.711 283.106M91.5325 280.526L114.711 283.106M117.291 268.298L117.291 280.527C117.291 281.25 117.045 281.871 116.551 282.366C116.056 282.862 115.435 283.107 114.711 283.106M117.291 268.298L114.711 283.106M103.058 267.669L103.153 267.765H103.289H114.711C114.884 267.765 115.003 267.817 115.097 267.91C115.19 268.004 115.242 268.123 115.242 268.296V280.527C115.242 280.7 115.19 280.819 115.097 280.912C115.003 281.006 114.884 281.058 114.711 281.058H94.1132C93.939 281.058 93.8194 281.005 93.7265 280.912C93.6333 280.819 93.5809 280.7 93.5809 280.527V265.508C93.5809 265.334 93.6336 265.214 93.7265 265.121C93.8196 265.028 93.9389 264.975 94.1118 264.975H100.364L103.058 267.669Z" fill="#3D3D3D" stroke="#3D3D3D" stroke-width="0.653757"/>
<path d="M65.3478 263.428C64.7732 262.853 64.7734 261.922 65.3482 261.347C65.9227 260.773 66.8534 260.774 67.4277 261.348L77.7223 271.639C77.905 271.82 78.05 272.036 78.1489 272.274C78.2479 272.512 78.2988 272.767 78.2988 273.024C78.2988 273.282 78.2479 273.537 78.1489 273.775C78.05 274.013 77.905 274.228 77.7223 274.41L67.4276 284.706C66.8535 285.281 65.9227 285.281 65.3486 284.707C64.7745 284.132 64.7745 283.202 65.3485 282.628L73.5605 274.414C74.3263 273.648 74.3263 272.406 73.5604 271.641L65.3478 263.428Z" fill="#3D3D3D"/>
<path d="M128.872 282.715V263.301H135.683C139.758 263.301 141.662 265.581 141.662 268.45C141.662 270.943 140.187 272.07 138.498 272.525V272.713C140.295 272.82 142.44 274.483 142.44 277.567C142.44 280.489 140.509 282.715 135.924 282.715H128.872ZM135.897 280.57C138.927 280.57 140.107 279.229 140.107 277.54C140.107 275.555 138.525 273.893 136.031 273.893H131.285V280.57H135.897ZM135.602 271.801C137.694 271.801 139.356 270.514 139.356 268.476C139.356 266.787 138.23 265.446 135.683 265.446H131.285V271.801H135.602ZM144.88 278.585C144.88 275.234 147.829 274.483 150.35 274.295C151.275 274.228 153.635 274.107 154.292 274.081V272.901C154.292 271.051 153.192 269.978 150.993 269.978C149.143 269.978 148.044 270.836 147.722 271.936H145.309C145.604 269.603 147.883 267.967 151.101 267.967C153.005 267.967 156.571 268.53 156.571 273.115V282.715H154.292V280.731H154.184C153.702 281.723 152.361 283.063 149.84 283.063C147.079 283.063 144.88 281.428 144.88 278.585ZM147.186 278.693C147.186 280.221 148.473 280.999 150.243 280.999C152.844 280.999 154.292 279.256 154.292 277.432V275.958L150.618 276.226C148.527 276.36 147.186 277.111 147.186 278.693ZM166.224 283.01C162.095 283.01 159.574 279.873 159.574 275.502C159.574 271.077 162.202 267.967 166.17 267.967C169.281 267.967 171.587 269.79 171.962 272.552H169.656C169.334 271.212 168.155 270.005 166.224 270.005C163.623 270.005 161.88 272.15 161.88 275.421C161.88 278.8 163.569 280.945 166.224 280.945C167.94 280.945 169.254 280.033 169.656 278.425H171.962C171.587 281.026 169.468 283.01 166.224 283.01ZM174.805 282.715V263.301H177.111V274.59H177.379L183.68 268.155H186.522L180.382 274.376L186.978 282.715H184.055L178.666 275.85L177.111 277.272V282.715H174.805ZM196.149 273.357V275.475H187.649V273.357H196.149ZM205.802 283.01C201.592 283.01 198.991 280.033 198.991 275.555C198.991 271.077 201.619 267.967 205.587 267.967C208.644 267.967 211.862 269.844 211.862 275.234V276.199H201.297C201.404 279.283 203.201 280.972 205.802 280.972C207.545 280.972 208.644 280.221 209.18 279.309H211.647C210.95 281.508 208.805 283.01 205.802 283.01ZM201.324 274.242H209.529C209.529 271.801 207.974 270.005 205.587 270.005C203.067 270.005 201.458 271.989 201.324 274.242ZM217.171 273.973V282.715H214.865V268.155H217.091V270.434H217.278C217.975 268.959 219.316 267.967 221.542 267.967C224.491 267.967 226.449 269.764 226.449 273.464V282.715H224.143V273.625C224.143 271.372 222.909 270.032 220.845 270.032C218.726 270.032 217.171 271.453 217.171 273.973ZM235.646 283.01C232.026 283.01 229.452 280.087 229.452 275.475C229.452 270.863 232.026 267.967 235.673 267.967C238.488 267.967 239.4 269.683 239.883 270.461H240.044V263.301H242.376V282.715H240.124V280.489H239.883C239.373 281.294 238.435 283.01 235.646 283.01ZM235.968 280.945C238.622 280.945 240.124 278.693 240.124 275.421C240.124 272.204 238.676 270.032 235.968 270.032C233.179 270.032 231.785 272.391 231.785 275.421C231.785 278.532 233.206 280.945 235.968 280.945Z" fill="#3D3D3D"/>
<defs>
<linearGradient id="paint0_linear_1844_652" x1="350.85" y1="163.357" x2="296.588" y2="163.357" gradientUnits="userSpaceOnUse">
<stop stop-color="white"/>
<stop offset="1" stop-color="white" stop-opacity="0"/>
</linearGradient>
<clipPath id="clip0_1844_652">
<rect x="15.2539" y="19.5312" width="346.491" height="52.3006" rx="15.2543" fill="white"/>
</clipPath>
<clipPath id="clip1_1844_652">
<rect x="15.2539" y="137.207" width="346.491" height="52.3006" rx="15.2543" fill="white"/>
</clipPath>
<clipPath id="clip2_1844_652">
<rect width="346.491" height="52.3006" fill="white" transform="translate(15.2539 137.207)"/>
</clipPath>
<clipPath id="clip3_1844_652">
<rect x="15" y="314" width="346.491" height="52.3006" rx="15.2543" fill="white"/>
</clipPath>
<clipPath id="clip4_1844_652">
<rect x="15" y="376" width="346.491" height="52.3006" rx="15.2543" fill="white"/>
</clipPath>
</defs>
</svg>
