<svg width="785" height="250" viewBox="0 0 785 250" fill="none" xmlns="http://www.w3.org/2000/svg">
<rect width="370" height="250" rx="10" fill="#D9D9D9" fill-opacity="0.5"/>
<path d="M64.5352 122.211V124.672H45.0117V122.211H49.3711V116.984C47.7188 116 46.7227 114.488 46.7227 112.602C46.7227 109.156 50.0977 106.859 54.7383 106.859C59.3555 106.859 62.7539 109.156 62.7773 112.602C62.7656 114.441 61.793 115.941 60.1992 116.938V122.211H64.5352ZM54.7383 109.227C51.6914 109.227 49.6758 110.445 49.6758 112.602C49.6758 114.688 51.6914 115.977 54.7383 115.977C57.7617 115.977 59.8008 114.688 59.8242 112.602C59.8008 110.445 57.7617 109.227 54.7383 109.227ZM52.3242 122.211H57.1758V118.062C56.4141 118.215 55.5938 118.297 54.7383 118.297C53.8828 118.297 53.0742 118.227 52.3242 118.062V122.211ZM85.4414 108.641V111.055H82.6758V113.234H85.4414V115.719H82.6758V118.414H79.6758V105.828H82.6758V108.641H85.4414ZM82.6758 119.258V127.156H79.6758V121.672H68.3086V119.258H82.6758ZM71.7539 107C75.0586 106.977 77.5664 109.18 77.5664 112.18C77.5664 115.25 75.0586 117.406 71.7539 117.406C68.4258 117.406 65.8945 115.25 65.8945 112.18C65.8945 109.18 68.4258 106.977 71.7539 107ZM71.7539 109.555C70.0664 109.555 68.8242 110.516 68.8477 112.18C68.8242 113.891 70.0664 114.875 71.7539 114.875C73.3945 114.875 74.6367 113.891 74.6602 112.18C74.6367 110.516 73.3945 109.555 71.7539 109.555ZM101.004 107.234V109.625H95.7305V111.523H100.207V113.797H95.7305V115.836C98.0625 115.812 99.7617 115.73 101.73 115.391L102.035 117.734C99.5742 118.133 97.5352 118.18 94.3242 118.18H92.8711V107.234H101.004ZM110.355 119.961V127.156H107.379V122.352H95.543V119.961H110.355ZM110.355 105.852V119.117H107.52V105.852H110.355ZM106.113 106.25V118.977H103.277V113.656H101.121V111.242H103.277V106.25H106.113ZM123.996 108.641C123.996 111.758 126.762 115.109 131.59 115.93L130.277 118.414C126.562 117.676 123.797 115.59 122.426 112.836C121.008 115.566 118.242 117.664 114.551 118.414L113.262 115.93C117.996 115.086 120.785 111.734 120.809 108.641V107.094H123.996V108.641ZM132.293 122.07V124.531H112.77V122.07H132.293ZM150.902 116.844V119.211H135.809V107.398H150.738V109.812H138.855V112.062H150.246V114.406H138.855V116.844H150.902ZM153.035 122.234V124.672H133.512V122.234H153.035Z" fill="black"/>
<path d="M55.9531 145.375V159.266H54.7344V145.375H55.9531ZM44.6406 155.562C45.8281 155.555 47.1875 155.547 48.5938 155.5V153.984C46.9297 153.805 45.8438 152.859 45.8594 151.469C45.8438 149.906 47.1875 148.891 49.1875 148.891C51.1875 148.891 52.5469 149.906 52.5469 151.469C52.5469 152.844 51.4688 153.789 49.8281 153.969V155.453C51.1719 155.398 52.5312 155.297 53.8125 155.125L53.9062 156.062C50.8125 156.562 47.4062 156.609 44.8281 156.609L44.6406 155.562ZM53.4531 147.094V148.094H44.9375V147.094H48.5938V145.391H49.8281V147.094H53.4531ZM49.1875 149.844C47.9062 149.844 47 150.5 47 151.469C47 152.438 47.9062 153.062 49.1875 153.047C50.4844 153.062 51.375 152.438 51.375 151.469C51.375 150.5 50.4844 149.844 49.1875 149.844ZM62.9375 146.391C65.125 146.391 66.6719 147.719 66.6719 149.656C66.6719 151.594 65.125 152.922 62.9375 152.922C60.75 152.922 59.1719 151.594 59.1875 149.656C59.1719 147.719 60.75 146.391 62.9375 146.391ZM62.9375 147.469C61.4531 147.469 60.375 148.359 60.3906 149.656C60.375 150.953 61.4531 151.844 62.9375 151.844C64.4062 151.844 65.4688 150.953 65.4688 149.656C65.4688 148.359 64.4062 147.469 62.9375 147.469ZM69.7812 145.375V159.297H68.5625V145.375H69.7812ZM58.4688 155.188C61.0312 155.188 64.5625 155.172 67.6406 154.719L67.7344 155.625C64.5625 156.219 61.1406 156.234 58.6406 156.234L58.4688 155.188ZM88.9531 156.469V157.484H76.2344V156.469H81.9531V153.469H77.7344V146.359H78.9688V148.875H86.1875V146.359H87.3906V153.469H83.1562V156.469H88.9531ZM78.9688 152.469H86.1875V149.875H78.9688V152.469ZM101.203 146.781V148.172C101.188 149.875 101.188 151.781 100.688 154.578L99.4375 154.438C99.9688 151.781 99.9688 149.828 99.9688 148.172V147.797H91.4062V146.781H101.203ZM102.719 156.281V157.297H90.0625V156.281H95.0312V151.312H96.2344V156.281H102.719ZM108.781 149.109C108.781 151.625 110.391 154.156 112.406 155.078L111.672 156.078C110.094 155.266 108.789 153.602 108.172 151.625C107.555 153.703 106.25 155.484 104.672 156.328L103.875 155.344C105.906 154.344 107.531 151.672 107.531 149.109V146.578H108.781V149.109ZM115.406 145.375V159.297H114.188V151.125H110.891V150.125H114.188V145.375H115.406ZM129.609 146.938V147.938H121.75V146.938H125.125V145.266H126.344V146.938H129.609ZM125.719 148.656C127.578 148.656 128.891 149.672 128.891 151.219C128.891 152.781 127.578 153.797 125.719 153.797C123.844 153.797 122.562 152.781 122.578 151.219C122.562 149.672 123.844 148.656 125.719 148.656ZM125.719 149.578C124.516 149.594 123.719 150.25 123.719 151.219C123.719 152.203 124.516 152.844 125.719 152.844C126.922 152.844 127.734 152.203 127.75 151.219C127.734 150.25 126.922 149.594 125.719 149.578ZM133.25 145.375V154.359H132.016V152.438H129.594V151.422H132.016V149.734H129.609V148.719H132.016V145.375H133.25ZM128.672 154.5C131.562 154.5 133.328 155.359 133.328 156.875C133.328 158.359 131.562 159.234 128.672 159.234C125.75 159.234 124 158.359 124 156.875C124 155.359 125.75 154.5 128.672 154.5ZM128.672 155.453C126.562 155.453 125.266 155.969 125.266 156.875C125.266 157.75 126.562 158.281 128.672 158.281C130.75 158.281 132.031 157.75 132.031 156.875C132.031 155.969 130.75 155.453 128.672 155.453ZM140.484 147.391C140.469 149.422 141.938 151.219 144 151.938L143.375 152.906C141.766 152.32 140.492 151.117 139.875 149.578C139.258 151.227 137.969 152.523 136.344 153.156L135.703 152.188C137.781 151.422 139.234 149.484 139.234 147.391V146.062H140.484V147.391ZM147.031 154.438V159.266H145.812V155.453H137.688V154.438H147.031ZM147.031 145.375V153.75H145.812V145.375H147.031ZM157.141 146.453C159.031 146.469 160.391 148.086 160.594 150.688H163.703V145.375H164.922V159.297H163.703V151.703H160.609C160.461 154.422 159.078 156.125 157.141 156.125C155.094 156.125 153.656 154.25 153.656 151.297C153.656 148.344 155.094 146.469 157.141 146.453ZM157.141 147.547C155.766 147.562 154.828 149.031 154.828 151.297C154.828 153.562 155.766 155.031 157.141 155.031C158.5 155.031 159.453 153.562 159.453 151.297C159.453 149.031 158.5 147.562 157.141 147.547ZM178.953 145.375V159.266H177.719V151.422H175.406V150.391H177.719V145.375H178.953ZM171.578 146.734V147.75H170.484V149.625C170.469 151.125 170.703 153.383 171.859 154.891C172.969 153.422 173.203 151.195 173.219 149.625V147.75H172.125V146.734H176.016V147.75H174.391V149.625C174.391 151.656 174.859 154.266 176.578 155.516L175.781 156.391C174.758 155.617 174.148 154.32 173.812 152.891C173.492 154.344 172.906 155.711 171.859 156.531C170.781 155.695 170.188 154.305 169.891 152.859C169.547 154.281 168.938 155.602 167.922 156.391L167.125 155.516C168.844 154.25 169.297 151.562 169.312 149.625V147.75H167.578V146.734H171.578ZM192.047 146.281V147.5C192.047 148.82 192.047 150.25 191.656 152.25H193.719V153.266H187.984V159.297H186.75V153.266H181.062V152.25H190.406C190.828 150.25 190.828 148.789 190.828 147.5V147.297H182.656V146.281H192.047Z" fill="black"/>
<path d="M91.9375 38.375H55.0625C53.0259 38.375 51.375 40.0259 51.375 42.0625V78.9375C51.375 80.974 53.0259 82.625 55.0625 82.625H91.9375C93.974 82.625 95.625 80.974 95.625 78.9375V42.0625C95.625 40.0259 93.974 38.375 91.9375 38.375Z" stroke="black" stroke-width="4" stroke-linejoin="round"/>
<path d="M63.666 54.3555V50.668H83.3327V54.3555M71.041 72.793H75.9577M73.4993 53.1263V72.793" stroke="black" stroke-width="4" stroke-linecap="round" stroke-linejoin="round"/>
<rect x="415" width="370" height="250" rx="10" fill="#D9D9D9" fill-opacity="0.5"/>
<path d="M476.605 105.828V113.75H479.746V116.188H476.605V127.203H473.605V105.828H476.605ZM470.629 107.797V110.211H463.598V119.562C466.691 119.527 469.246 119.387 472.082 118.883L472.41 121.391C469.105 121.953 466.199 122.047 462.426 122.023H460.621V107.797H470.629ZM498.379 105.828V127.203H495.355V105.828H498.379ZM486.801 107.328C490.012 107.328 492.402 110.281 492.402 114.922C492.402 119.609 490.012 122.539 486.801 122.539C483.52 122.539 481.129 119.609 481.152 114.922C481.129 110.281 483.52 107.328 486.801 107.328ZM486.801 110.023C485.137 110.023 484.035 111.758 484.035 114.922C484.035 118.109 485.137 119.82 486.801 119.82C488.418 119.82 489.52 118.109 489.52 114.922C489.52 111.758 488.418 110.023 486.801 110.023ZM507.145 107.328C510.027 107.328 512.172 109.707 512.605 113.539H516.309V105.828H519.262V127.203H516.309V115.93H512.629C512.312 120.031 510.121 122.539 507.145 122.539C503.91 122.539 501.59 119.609 501.613 114.922C501.59 110.281 503.91 107.328 507.145 107.328ZM507.145 110.023C505.551 110.023 504.449 111.758 504.473 114.922C504.449 118.109 505.551 119.82 507.145 119.82C508.762 119.82 509.816 118.109 509.816 114.922C509.816 111.758 508.762 110.023 507.145 110.023ZM539.066 107.797V110.352C539.066 113.281 539.066 116.188 538.293 120.594L535.27 120.336C536.066 116.234 536.066 113.188 536.09 110.352V110.188H524.02V107.797H539.066ZM541.457 121.906V124.367H522.004V121.906H541.457ZM561.074 105.852V118.414H558.238V113.258H556.387V118.25H553.598V106.227H556.387V110.867H558.238V105.852H561.074ZM561.074 119.281V126.922H546.52V119.281H561.074ZM549.496 121.648V124.531H558.121V121.648H549.496ZM551.723 107.094V113.445H546.496V115.367C548.828 115.344 550.562 115.25 552.59 114.875L552.848 117.219C550.363 117.641 548.254 117.688 545.09 117.688H543.613V111.219H548.84V109.414H543.59V107.094H551.723Z" fill="black"/>
<path d="M470.953 145.375V159.266H469.734V145.375H470.953ZM459.641 155.562C460.828 155.555 462.188 155.547 463.594 155.5V153.984C461.93 153.805 460.844 152.859 460.859 151.469C460.844 149.906 462.188 148.891 464.188 148.891C466.188 148.891 467.547 149.906 467.547 151.469C467.547 152.844 466.469 153.789 464.828 153.969V155.453C466.172 155.398 467.531 155.297 468.812 155.125L468.906 156.062C465.812 156.562 462.406 156.609 459.828 156.609L459.641 155.562ZM468.453 147.094V148.094H459.938V147.094H463.594V145.391H464.828V147.094H468.453ZM464.188 149.844C462.906 149.844 462 150.5 462 151.469C462 152.438 462.906 153.062 464.188 153.047C465.484 153.062 466.375 152.438 466.375 151.469C466.375 150.5 465.484 149.844 464.188 149.844ZM477.938 146.391C480.125 146.391 481.672 147.719 481.672 149.656C481.672 151.594 480.125 152.922 477.938 152.922C475.75 152.922 474.172 151.594 474.188 149.656C474.172 147.719 475.75 146.391 477.938 146.391ZM477.938 147.469C476.453 147.469 475.375 148.359 475.391 149.656C475.375 150.953 476.453 151.844 477.938 151.844C479.406 151.844 480.469 150.953 480.469 149.656C480.469 148.359 479.406 147.469 477.938 147.469ZM484.781 145.375V159.297H483.562V145.375H484.781ZM473.469 155.188C476.031 155.188 479.562 155.172 482.641 154.719L482.734 155.625C479.562 156.219 476.141 156.234 473.641 156.234L473.469 155.188ZM503.953 156.469V157.484H491.234V156.469H496.953V153.469H492.734V146.359H493.969V148.875H501.188V146.359H502.391V153.469H498.156V156.469H503.953ZM493.969 152.469H501.188V149.875H493.969V152.469ZM516.203 146.781V148.172C516.188 149.875 516.188 151.781 515.688 154.578L514.438 154.438C514.969 151.781 514.969 149.828 514.969 148.172V147.797H506.406V146.781H516.203ZM517.719 156.281V157.297H505.062V156.281H510.031V151.312H511.234V156.281H517.719ZM523.781 149.109C523.781 151.625 525.391 154.156 527.406 155.078L526.672 156.078C525.094 155.266 523.789 153.602 523.172 151.625C522.555 153.703 521.25 155.484 519.672 156.328L518.875 155.344C520.906 154.344 522.531 151.672 522.531 149.109V146.578H523.781V149.109ZM530.406 145.375V159.297H529.188V151.125H525.891V150.125H529.188V145.375H530.406ZM544.609 146.938V147.938H536.75V146.938H540.125V145.266H541.344V146.938H544.609ZM540.719 148.656C542.578 148.656 543.891 149.672 543.891 151.219C543.891 152.781 542.578 153.797 540.719 153.797C538.844 153.797 537.562 152.781 537.578 151.219C537.562 149.672 538.844 148.656 540.719 148.656ZM540.719 149.578C539.516 149.594 538.719 150.25 538.719 151.219C538.719 152.203 539.516 152.844 540.719 152.844C541.922 152.844 542.734 152.203 542.75 151.219C542.734 150.25 541.922 149.594 540.719 149.578ZM548.25 145.375V154.359H547.016V152.438H544.594V151.422H547.016V149.734H544.609V148.719H547.016V145.375H548.25ZM543.672 154.5C546.562 154.5 548.328 155.359 548.328 156.875C548.328 158.359 546.562 159.234 543.672 159.234C540.75 159.234 539 158.359 539 156.875C539 155.359 540.75 154.5 543.672 154.5ZM543.672 155.453C541.562 155.453 540.266 155.969 540.266 156.875C540.266 157.75 541.562 158.281 543.672 158.281C545.75 158.281 547.031 157.75 547.031 156.875C547.031 155.969 545.75 155.453 543.672 155.453ZM555.484 147.391C555.469 149.422 556.938 151.219 559 151.938L558.375 152.906C556.766 152.32 555.492 151.117 554.875 149.578C554.258 151.227 552.969 152.523 551.344 153.156L550.703 152.188C552.781 151.422 554.234 149.484 554.234 147.391V146.062H555.484V147.391ZM562.031 154.438V159.266H560.812V155.453H552.688V154.438H562.031ZM562.031 145.375V153.75H560.812V145.375H562.031ZM572.141 146.453C574.031 146.469 575.391 148.086 575.594 150.688H578.703V145.375H579.922V159.297H578.703V151.703H575.609C575.461 154.422 574.078 156.125 572.141 156.125C570.094 156.125 568.656 154.25 568.656 151.297C568.656 148.344 570.094 146.469 572.141 146.453ZM572.141 147.547C570.766 147.562 569.828 149.031 569.828 151.297C569.828 153.562 570.766 155.031 572.141 155.031C573.5 155.031 574.453 153.562 574.453 151.297C574.453 149.031 573.5 147.562 572.141 147.547ZM593.953 145.375V159.266H592.719V151.422H590.406V150.391H592.719V145.375H593.953ZM586.578 146.734V147.75H585.484V149.625C585.469 151.125 585.703 153.383 586.859 154.891C587.969 153.422 588.203 151.195 588.219 149.625V147.75H587.125V146.734H591.016V147.75H589.391V149.625C589.391 151.656 589.859 154.266 591.578 155.516L590.781 156.391C589.758 155.617 589.148 154.32 588.812 152.891C588.492 154.344 587.906 155.711 586.859 156.531C585.781 155.695 585.188 154.305 584.891 152.859C584.547 154.281 583.938 155.602 582.922 156.391L582.125 155.516C583.844 154.25 584.297 151.562 584.312 149.625V147.75H582.578V146.734H586.578ZM607.047 146.281V147.5C607.047 148.82 607.047 150.25 606.656 152.25H608.719V153.266H602.984V159.297H601.75V153.266H596.062V152.25H605.406C605.828 150.25 605.828 148.789 605.828 147.5V147.297H597.656V146.281H607.047Z" fill="black"/>
<path d="M481.344 82.5625C476.33 82.5625 471.521 80.5706 467.975 77.025C464.429 73.4794 462.438 68.6705 462.438 63.6562C462.438 58.642 464.429 53.8331 467.975 50.2875C471.521 46.7419 476.33 44.75 481.344 44.75C481.8 44.75 482.237 44.9311 482.559 45.2534C482.881 45.5757 483.062 46.0129 483.062 46.4688V61.9375H498.531C498.987 61.9375 499.424 62.1186 499.747 62.4409C500.069 62.7632 500.25 63.2004 500.25 63.6562C500.25 68.6705 498.258 73.4794 494.712 77.025C491.167 80.5706 486.358 82.5625 481.344 82.5625ZM479.625 48.2906C476.729 48.6128 473.983 49.7462 471.704 51.5605C469.424 53.3747 467.703 55.7959 466.738 58.5453C465.774 61.2947 465.606 64.2606 466.253 67.1014C466.901 69.9421 468.337 72.5423 470.397 74.6026C472.458 76.6628 475.058 78.0993 477.899 78.7466C480.739 79.394 483.705 79.2259 486.455 78.2616C489.204 77.2974 491.625 75.5763 493.44 73.2965C495.254 71.0166 496.387 68.2707 496.709 65.375H483.062C482.151 65.375 481.276 65.0128 480.632 64.3682C479.987 63.7235 479.625 62.8492 479.625 61.9375V48.2906Z" fill="black"/>
<path d="M507.125 55.0625H491.656C490.745 55.0625 489.87 54.7003 489.226 54.0557C488.581 53.411 488.219 52.5367 488.219 51.625V36.1562C488.219 35.7004 488.4 35.2632 488.722 34.9409C489.044 34.6186 489.482 34.4375 489.938 34.4375C494.952 34.4375 499.761 36.4294 503.306 39.975C506.852 43.5206 508.844 48.3295 508.844 53.3438C508.844 53.7996 508.663 54.2368 508.34 54.5591C508.018 54.8814 507.581 55.0625 507.125 55.0625ZM491.656 51.625H505.303C504.912 48.1403 503.348 44.8918 500.869 42.4123C498.389 39.9328 495.141 38.3692 491.656 37.9781V51.625Z" fill="black"/>
</svg>
