<svg width="13" height="13" viewBox="0 0 13 13" fill="none" xmlns="http://www.w3.org/2000/svg">
<path d="M11.2643 7.53728H7.08571V11.7158C7.08571 11.9375 6.99766 12.1501 6.84093 12.3068C6.68421 12.4635 6.47164 12.5516 6.24999 12.5516C6.02835 12.5516 5.81578 12.4635 5.65905 12.3068C5.50233 12.1501 5.41428 11.9375 5.41428 11.7158V7.53728H1.23571C1.01406 7.53728 0.801496 7.44923 0.644769 7.2925C0.488042 7.13578 0.399994 6.92321 0.399994 6.70156C0.399994 6.47992 0.488042 6.26735 0.644769 6.11062C0.801496 5.9539 1.01406 5.86585 1.23571 5.86585H5.41428V1.68728C5.41428 1.46563 5.50233 1.25306 5.65905 1.09634C5.81578 0.93961 6.02835 0.851562 6.24999 0.851562C6.47164 0.851562 6.68421 0.93961 6.84093 1.09634C6.99766 1.25306 7.08571 1.46563 7.08571 1.68728V5.86585H11.2643C11.4859 5.86585 11.6985 5.9539 11.8552 6.11062C12.0119 6.26735 12.1 6.47992 12.1 6.70156C12.1 6.92321 12.0119 7.13578 11.8552 7.2925C11.6985 7.44923 11.4859 7.53728 11.2643 7.53728Z" fill="#707070"/>
</svg>
