<svg width="7" height="7" viewBox="0 0 7 7" fill="none" xmlns="http://www.w3.org/2000/svg">
<path d="M4 3.9H3.9V4V6.5C3.9 6.60609 3.85786 6.70783 3.78284 6.78284C3.70783 6.85786 3.60609 6.9 3.5 6.9C3.39391 6.9 3.29217 6.85786 3.21716 6.78284C3.14214 6.70783 3.1 6.60609 3.1 6.5V4V3.9H3H0.5C0.393913 3.9 0.292172 3.85786 0.217157 3.78284C0.142143 3.70783 0.1 3.60609 0.1 3.5C0.1 3.39391 0.142143 3.29217 0.217157 3.21716C0.292172 3.14214 0.393913 3.1 0.5 3.1H3H3.1V3V0.5C3.1 0.393913 3.14214 0.292172 3.21716 0.217157C3.29217 0.142143 3.39391 0.1 3.5 0.1C3.60609 0.1 3.70783 0.142143 3.78284 0.217157C3.85786 0.292172 3.9 0.393913 3.9 0.5V3V3.1H4H6.5C6.60609 3.1 6.70783 3.14214 6.78284 3.21716C6.85786 3.29217 6.9 3.39391 6.9 3.5C6.9 3.60609 6.85786 3.70783 6.78284 3.78284C6.70783 3.85786 6.60609 3.9 6.5 3.9H4Z" fill="#858585" stroke="#EDEDED" stroke-width="0.2"/>
</svg>
