<svg width="12" height="13" viewBox="0 0 12 13" fill="none" xmlns="http://www.w3.org/2000/svg">
<path d="M8.39269 1.25753C8.57906 1.06743 8.80127 0.916153 9.04646 0.812449C9.29165 0.708746 9.55497 0.654669 9.82119 0.653345C10.0874 0.652022 10.3512 0.703477 10.5975 0.804738C10.8437 0.905998 11.0674 1.05506 11.2556 1.24329C11.4439 1.43153 11.593 1.65522 11.6943 1.90142C11.7955 2.14762 11.847 2.41145 11.8457 2.67767C11.8444 2.94389 11.7904 3.20721 11.6867 3.45242C11.583 3.69762 11.4318 3.91984 11.2417 4.10624L10.5989 4.75024L7.74927 1.90065L8.39269 1.25753ZM7.23389 2.4169L1.34369 8.3077C1.1214 8.52981 0.963025 8.80767 0.885185 9.11211L0.17731 11.8786C0.161691 11.9399 0.162281 12.0041 0.179022 12.0651C0.195764 12.1261 0.228081 12.1817 0.2728 12.2264C0.317518 12.2711 0.3731 12.3034 0.434085 12.3202C0.49507 12.3369 0.559361 12.3375 0.620643 12.3219L3.38769 11.6149C3.69233 11.5372 3.97041 11.3788 4.19269 11.1564L10.0829 5.26532L7.23389 2.4169Z" fill="#2D2D2D"/>
</svg>
