<svg width="19" height="18" viewBox="0 0 19 18" fill="none" xmlns="http://www.w3.org/2000/svg">
<path d="M17.2143 10.2857H10.7857V16.7143C10.7857 17.0553 10.6503 17.3823 10.4091 17.6234C10.168 17.8645 9.84099 18 9.5 18C9.15901 18 8.83198 17.8645 8.59086 17.6234C8.34974 17.3823 8.21429 17.0553 8.21429 16.7143V10.2857H1.78571C1.44472 10.2857 1.1177 10.1503 0.876577 9.90914C0.635459 9.66802 0.5 9.34099 0.5 9C0.5 8.65901 0.635459 8.33198 0.876577 8.09086C1.1177 7.84975 1.44472 7.71429 1.78571 7.71429H8.21429V1.28571C8.21429 0.944722 8.34974 0.617695 8.59086 0.376577C8.83198 0.135458 9.15901 0 9.5 0C9.84099 0 10.168 0.135458 10.4091 0.376577C10.6503 0.617695 10.7857 0.944722 10.7857 1.28571V7.71429H17.2143C17.5553 7.71429 17.8823 7.84975 18.1234 8.09086C18.3645 8.33198 18.5 8.65901 18.5 9C18.5 9.34099 18.3645 9.66802 18.1234 9.90914C17.8823 10.1503 17.5553 10.2857 17.2143 10.2857Z" fill="white"/>
</svg>
